<svg width="66" height="70" viewBox="0 0 66 70" fill="none" xmlns="http://www.w3.org/2000/svg">
<g clip-path="url(#clip0_513_9214)">
<path d="M50.3577 7.59998H43.6257C42.8997 7.59998 42.3717 8.19398 42.3717 8.85398V13.936L35.3097 8.39198C33.9237 7.33598 32.0097 7.33598 30.6237 8.39198L10.2958 24.364C9.37175 25.09 8.84375 26.212 8.84375 27.334V56.506C8.84375 58.618 10.5598 60.334 12.6718 60.334H53.4597C55.5717 60.334 57.2878 58.618 57.2878 56.506V27.4C57.2878 26.212 56.7597 25.09 55.8357 24.43L51.7437 21.196V8.85398C51.6117 8.19398 51.0837 7.59998 50.3577 7.59998ZM54.1857 26.41C54.5157 26.674 54.6477 27.004 54.6477 27.4V56.572C54.6477 57.298 54.0537 57.892 53.3277 57.892H12.6058C11.8798 57.892 11.2858 57.298 11.2858 56.572V27.4C11.2858 27.004 11.4837 26.608 11.8137 26.41L32.2078 10.438C32.6698 10.108 33.3298 10.108 33.7917 10.438L42.8337 17.5C42.8997 17.566 42.8997 17.566 42.9657 17.566C43.0317 17.632 43.0977 17.632 43.1637 17.698C43.2297 17.698 43.3617 17.764 43.4277 17.764C43.4937 17.764 43.4937 17.764 43.5597 17.764H43.6257C43.6917 17.764 43.8237 17.764 43.8897 17.698C43.9557 17.698 44.0217 17.632 44.0877 17.632C44.1537 17.566 44.2197 17.566 44.2857 17.5C44.3517 17.434 44.4177 17.368 44.4837 17.302C44.4837 17.302 44.5497 17.302 44.5497 17.236C44.6157 17.17 44.6157 17.17 44.6157 17.104C44.6817 17.038 44.6817 16.972 44.7477 16.906C44.7477 16.84 44.8137 16.708 44.8137 16.642C44.8137 16.576 44.8137 16.576 44.8137 16.51V10.108H49.0378V21.79V21.856C49.0378 21.922 49.0377 22.054 49.1037 22.12C49.1037 22.186 49.1697 22.252 49.1697 22.318C49.2357 22.384 49.2357 22.45 49.3017 22.516C49.3677 22.582 49.4337 22.648 49.4997 22.714C49.4997 22.714 49.4997 22.78 49.5657 22.78L54.1857 26.41Z" fill="#0057FF"/>
<path d="M40.1275 36.376H35.6395L37.7515 26.674C37.8835 26.08 37.5535 25.486 37.0255 25.222C36.4975 24.958 35.8375 25.156 35.5075 25.684L24.8815 40.864C24.6175 41.26 24.5515 41.722 24.8155 42.184C25.0135 42.58 25.4755 42.844 25.9375 42.844H30.3595L28.2475 52.546C28.1155 53.14 28.4455 53.734 28.9735 53.998C29.1055 54.064 29.3035 54.13 29.5015 54.13C29.8975 54.13 30.2935 53.932 30.5575 53.602L41.1835 38.422C41.4475 38.026 41.5135 37.564 41.2495 37.102C41.0515 36.64 40.5895 36.376 40.1275 36.376ZM32.0755 47.002L33.1975 41.854C33.1975 41.788 33.1975 41.788 33.1975 41.722C33.1975 41.656 33.1975 41.656 33.1975 41.59C33.1975 41.524 33.1975 41.524 33.1975 41.458C33.1975 41.392 33.1975 41.26 33.1315 41.194C33.1315 41.128 33.0655 41.062 33.0655 40.996C32.9995 40.93 32.9995 40.864 32.9335 40.798C32.8675 40.732 32.8015 40.666 32.8015 40.6C32.7355 40.534 32.6695 40.534 32.6035 40.468C32.5375 40.402 32.4715 40.402 32.4055 40.336C32.3395 40.336 32.3395 40.27 32.2735 40.27C32.2075 40.27 32.2075 40.27 32.1415 40.27C32.0755 40.27 32.0755 40.27 32.0095 40.27H28.3135L33.9895 32.152L32.8675 37.3C32.8675 37.366 32.8675 37.366 32.8675 37.432C32.8675 37.498 32.8675 37.498 32.8675 37.564C32.8675 37.63 32.8675 37.63 32.8675 37.696C32.8675 37.762 32.8675 37.894 32.9335 37.96C32.9335 38.026 32.9995 38.092 32.9995 38.158C33.0655 38.224 33.0655 38.29 33.1315 38.356C33.1975 38.422 33.2635 38.488 33.2635 38.554C33.3295 38.62 33.3955 38.62 33.4615 38.686C33.5275 38.752 33.5935 38.752 33.6595 38.818C33.7255 38.818 33.7255 38.884 33.7915 38.884C33.8575 38.884 33.8575 38.884 33.9235 38.884C33.9895 38.884 33.9895 38.884 34.0555 38.884H37.7515L32.0755 47.002Z" fill="#0057FF"/>
</g>
<defs>
<clipPath id="clip0_513_9214">
<rect width="66" height="69.3" fill="white"/>
</clipPath>
</defs>
</svg>
