<svg width="102" height="105" viewBox="0 0 102 105" fill="none" xmlns="http://www.w3.org/2000/svg">
<g filter="url(#filter0_d_513_1114)">
<path d="M51 80C70.33 80 86 64.33 86 45C86 25.67 70.33 10 51 10C31.67 10 16 25.67 16 45C16 64.33 31.67 80 51 80Z" fill="#0057FF"/>
</g>
<g filter="url(#filter1_d_513_1114)">
<path d="M51 83C70.33 83 86 67.33 86 48C86 28.67 70.33 13 51 13C31.67 13 16 28.67 16 48C16 67.33 31.67 83 51 83Z" fill="white"/>
</g>
<g clip-path="url(#clip0_513_1114)">
<path d="M50.9996 33.0175C53.7724 33.0175 56.2839 34.1419 58.1018 35.9599L58.1439 36.0052C59.9373 37.8213 61.0447 40.3144 61.0447 43.0621C61.0447 45.8316 59.9198 48.3422 58.1018 50.1616L58.0971 50.1658C56.2782 51.9833 53.7681 53.1073 50.9996 53.1073C48.2301 53.1073 45.7195 51.9824 43.9002 50.1644L43.8959 50.1597C42.0784 48.3408 40.9545 45.8307 40.9545 43.0621C40.9545 40.2922 42.0798 37.7807 43.8987 35.9613C45.7153 34.1419 48.2268 33.0175 50.9996 33.0175ZM51.7026 37.3664L53.3382 40.407L56.7318 41.0221C57.1645 41.0996 57.4527 41.5144 57.3752 41.9472C57.3469 42.1064 57.2722 42.2462 57.1683 42.3554L54.782 44.8522L55.2464 48.2732C55.305 48.7097 54.9984 49.1118 54.5618 49.1704C54.4012 49.1921 54.2448 49.1638 54.1087 49.0981L50.9996 47.6009L47.8904 49.0986C47.4936 49.2899 47.0159 49.1231 46.8246 48.7263C46.7514 48.5742 46.7306 48.4102 46.7551 48.2553L47.2172 44.8522L44.8299 42.3563C44.5266 42.0374 44.5394 41.5314 44.8583 41.2281C44.9854 41.1072 45.1417 41.0368 45.3038 41.0155L48.661 40.407L50.2966 37.3664C50.5049 36.9785 50.9897 36.833 51.3775 37.0413C51.5207 37.1183 51.6308 37.2331 51.7026 37.3664ZM52.1136 41.5002L50.9996 39.429L49.8856 41.5002C49.7726 41.7062 49.5719 41.8621 49.3233 41.9065L47.0093 42.3261L48.6378 44.0288C48.7985 44.1979 48.884 44.436 48.8504 44.685L48.5339 47.0165L50.6528 45.996C50.8645 45.8944 51.1186 45.8864 51.3464 45.996L53.4653 47.0165L53.1487 44.685C53.118 44.4535 53.1884 44.2107 53.3613 44.0288L54.9899 42.3261L52.7164 41.9136C52.4689 41.8825 52.2402 41.736 52.1136 41.5002ZM62.6751 52.7151L68.0501 58.0901C68.3624 58.4024 68.3624 58.9089 68.0501 59.2212C67.8843 59.387 67.6637 59.465 67.4468 59.4546L61.7118 59.6289L61.5356 65.4234C61.5238 65.8633 61.1567 66.2105 60.7168 66.1987C60.5047 66.193 60.3143 66.1047 60.1749 65.9653L52.3673 58.1615C51.9279 58.2678 51.4701 58.3245 51.0001 58.3245C50.53 58.3245 50.0726 58.2682 49.6333 58.1615L41.8266 65.9677C41.6853 66.1052 41.4949 66.1935 41.2828 66.1992C40.843 66.211 40.4759 65.8637 40.4641 65.4239L40.2874 59.6294L34.5524 59.455C34.3355 59.4654 34.1149 59.3875 33.9491 59.2216C33.6368 58.9094 33.6368 58.4029 33.9491 58.0906L39.3241 52.7156C38.9745 52.1288 38.7363 51.4924 38.6097 50.8395C38.4373 49.9518 38.4727 49.0291 38.7151 48.1523C37.9228 47.7025 37.2453 47.0737 36.7374 46.3225C36.1072 45.3889 35.7377 44.2659 35.7377 43.0626C35.7377 41.8584 36.1072 40.7358 36.7374 39.8023C37.2453 39.0506 37.9233 38.4218 38.7151 37.9725C38.4727 37.0952 38.4373 36.1725 38.6097 35.2848C38.8237 34.1783 39.3571 33.1219 40.208 32.271L40.2538 32.2285C41.0986 31.4013 42.1365 30.8825 43.2217 30.6723C44.109 30.5008 45.0321 30.5357 45.9095 30.7776C46.3592 29.9858 46.9881 29.3079 47.7397 28.8C48.6733 28.1697 49.7963 27.8003 50.9991 27.8003C52.2024 27.8003 53.3259 28.1697 54.2595 28.8C55.0111 29.3079 55.6399 29.9858 56.0897 30.7776C56.967 30.5357 57.8902 30.5008 58.7774 30.6723C59.8815 30.8863 60.9365 31.4197 61.7893 32.272C62.642 33.1219 63.1754 34.1783 63.3894 35.2848C63.5619 36.1725 63.5265 37.0952 63.2841 37.9725C64.0759 38.4218 64.7539 39.0506 65.2617 39.8023C65.892 40.7358 66.2614 41.8584 66.2614 43.0617C66.2614 44.265 65.892 45.3885 65.2617 46.322C64.7539 47.0737 64.0759 47.7025 63.2841 48.1523C63.5265 49.0291 63.5619 49.9518 63.3894 50.8395C63.2628 51.4924 63.0247 52.1284 62.6751 52.7151ZM53.9736 57.5057L59.9978 63.5299L60.1409 58.8333C60.1523 58.4128 60.491 58.0693 60.9162 58.058L65.6128 57.9149L61.6679 53.9699C60.8382 54.7537 59.8296 55.2479 58.777 55.452C57.8892 55.6244 56.9666 55.589 56.0897 55.3466C55.6399 56.1385 55.0111 56.8174 54.2595 57.3243C54.1659 57.3876 54.0709 57.4481 53.9736 57.5057ZM40.3313 53.9704L36.3864 57.9153L41.0834 58.0585C41.5086 58.0698 41.8474 58.4133 41.8587 58.8338L42.0019 63.5303L48.0265 57.5062C47.9292 57.4481 47.8333 57.3876 47.7397 57.3243C46.9881 56.8174 46.3592 56.1385 45.9095 55.3466C45.0321 55.5885 44.1095 55.624 43.2222 55.452C42.1696 55.2479 41.1614 54.7537 40.3313 53.9704ZM51.0001 29.4009C50.1246 29.4009 49.3096 29.6683 48.6336 30.1247C47.9344 30.5972 47.3807 31.2723 47.0594 32.0617L47.0533 32.0712C46.8827 32.4765 46.4145 32.6669 46.0092 32.4964C45.2244 32.1652 44.3537 32.0802 43.5222 32.2408C42.7361 32.3929 41.9849 32.7676 41.3749 33.3638L41.3395 33.4016C40.7201 34.021 40.3327 34.7859 40.1782 35.5852C40.0204 36.3997 40.0993 37.2511 40.4135 38.0235L40.44 38.0816C40.6053 38.4903 40.4078 38.9571 39.9992 39.1224C39.2093 39.4432 38.5346 39.9969 38.0622 40.6961C37.6058 41.3722 37.3384 42.1867 37.3384 43.0617C37.3384 43.9376 37.6058 44.7526 38.0622 45.4286C38.5346 46.1274 39.2093 46.6811 39.9992 47.0023L40.0086 47.0085C40.414 47.179 40.6044 47.6472 40.4338 48.0526C40.1022 48.8378 40.0171 49.7076 40.1782 50.5391C40.3304 51.3257 40.705 52.0769 41.3012 52.6868L41.339 52.7222C41.9556 53.3421 42.7209 53.7285 43.5227 53.8835C44.3372 54.0413 45.1885 53.9624 45.9605 53.6482L46.0186 53.6218C46.4273 53.4564 46.894 53.6539 47.0594 54.0625C47.3807 54.852 47.9344 55.5276 48.6336 55.9996C49.3096 56.4559 50.1246 56.7238 50.9991 56.7238C51.8746 56.7238 52.6895 56.4559 53.3656 55.9996C54.0648 55.5276 54.6185 54.852 54.9398 54.0625L54.9459 54.0531C55.1165 53.6477 55.5847 53.4573 55.99 53.6279C56.7752 53.9596 57.645 54.0446 58.4765 53.8835C59.2631 53.7314 60.0143 53.3567 60.6242 52.7605L60.6597 52.7227C61.2795 52.1062 61.666 51.3408 61.8209 50.5391C61.9787 49.725 61.9003 48.8737 61.5857 48.1017L61.5592 48.0431C61.3938 47.6345 61.5913 47.1677 62 47.0023C62.7894 46.6811 63.4646 46.1274 63.937 45.4281C64.3929 44.7526 64.6608 43.9371 64.6608 43.0626C64.6608 42.1867 64.3934 41.3722 63.937 40.6961C63.4646 39.9969 62.7899 39.4432 62 39.1224L61.9905 39.1163C61.5852 38.9457 61.3948 38.4775 61.5653 38.0722C61.8965 37.287 61.982 36.4167 61.8209 35.5852C61.6664 34.7859 61.279 34.021 60.6601 33.4021C60.0436 32.7822 59.2782 32.3958 58.477 32.2408C57.6625 32.0835 56.8107 32.1619 56.0387 32.4761L55.9806 32.5025C55.5719 32.6679 55.1051 32.4704 54.9398 32.0617C54.6185 31.2723 54.0648 30.5972 53.3656 30.1247C52.69 29.6688 51.8745 29.4009 51.0001 29.4009ZM56.9708 37.0909C55.4434 35.5635 53.3316 34.6181 50.9996 34.6181C48.6676 34.6181 46.5558 35.5635 45.0284 37.0909C43.4995 38.6164 42.5551 40.7283 42.5551 43.0621C42.5551 45.396 43.4995 47.5078 45.0255 49.0334C46.5539 50.5622 48.6657 51.5066 50.9996 51.5066C53.3335 51.5066 55.4453 50.5622 56.9708 49.0362C58.4996 47.5078 59.4441 45.396 59.4441 43.0621C59.4441 40.7462 58.5138 38.649 57.0086 37.1263L56.9708 37.0909Z" fill="#0057FF"/>
</g>
<defs>
<filter id="filter0_d_513_1114" x="0" y="0" width="102" height="102" filterUnits="userSpaceOnUse" color-interpolation-filters="sRGB">
<feFlood flood-opacity="0" result="BackgroundImageFix"/>
<feColorMatrix in="SourceAlpha" type="matrix" values="0 0 0 0 0 0 0 0 0 0 0 0 0 0 0 0 0 0 127 0" result="hardAlpha"/>
<feOffset dy="6"/>
<feGaussianBlur stdDeviation="8"/>
<feComposite in2="hardAlpha" operator="out"/>
<feColorMatrix type="matrix" values="0 0 0 0 0 0 0 0 0 0 0 0 0 0 0 0 0 0 0.08 0"/>
<feBlend mode="normal" in2="BackgroundImageFix" result="effect1_dropShadow_513_1114"/>
<feBlend mode="normal" in="SourceGraphic" in2="effect1_dropShadow_513_1114" result="shape"/>
</filter>
<filter id="filter1_d_513_1114" x="0" y="3" width="102" height="102" filterUnits="userSpaceOnUse" color-interpolation-filters="sRGB">
<feFlood flood-opacity="0" result="BackgroundImageFix"/>
<feColorMatrix in="SourceAlpha" type="matrix" values="0 0 0 0 0 0 0 0 0 0 0 0 0 0 0 0 0 0 127 0" result="hardAlpha"/>
<feOffset dy="6"/>
<feGaussianBlur stdDeviation="8"/>
<feComposite in2="hardAlpha" operator="out"/>
<feColorMatrix type="matrix" values="0 0 0 0 0.00392157 0 0 0 0 0.337255 0 0 0 0 0.976471 0 0 0 0.1 0"/>
<feBlend mode="normal" in2="BackgroundImageFix" result="effect1_dropShadow_513_1114"/>
<feBlend mode="normal" in="SourceGraphic" in2="effect1_dropShadow_513_1114" result="shape"/>
</filter>
<clipPath id="clip0_513_1114">
<rect width="40" height="41.1111" fill="white" transform="translate(31 27)"/>
</clipPath>
</defs>
</svg>
