<svg width="102" height="107" viewBox="0 0 102 107" fill="none" xmlns="http://www.w3.org/2000/svg">
<g filter="url(#filter0_d_513_1124)">
<path d="M51 85C70.33 85 86 69.33 86 50C86 30.67 70.33 15 51 15C31.67 15 16 30.67 16 50C16 69.33 31.67 85 51 85Z" fill="#0057FF"/>
</g>
<g filter="url(#filter1_d_513_1124)">
<path d="M51 80C70.33 80 86 64.33 86 45C86 25.67 70.33 10 51 10C31.67 10 16 25.67 16 45C16 64.33 31.67 80 51 80Z" fill="white"/>
</g>
<g clip-path="url(#clip0_513_1124)">
<path d="M51.0003 37.2331C51.6751 37.2251 52.3324 37.0177 52.8895 36.637C53.4467 36.2563 53.8788 35.7193 54.1314 35.0936C54.3841 34.4679 54.4461 33.7814 54.3096 33.1206C54.173 32.4598 53.8441 31.8541 53.3641 31.3797C52.8842 30.9054 52.2746 30.5836 51.6122 30.4549C50.9498 30.3262 50.2641 30.3963 49.6415 30.6563C49.0188 30.9164 48.4869 31.3548 48.1128 31.9164C47.7387 32.478 47.5391 33.1377 47.5391 33.8125C47.539 34.2651 47.6288 34.7133 47.8033 35.1309C47.9777 35.5486 48.2333 35.9275 48.5553 36.2457C48.8772 36.5639 49.2591 36.815 49.6788 36.9845C50.0985 37.154 50.5477 37.2385 51.0003 37.2331ZM51.0003 32.025C51.354 32.033 51.6974 32.1453 51.9874 32.3477C52.2775 32.5502 52.5013 32.8338 52.6307 33.163C52.7602 33.4922 52.7895 33.8523 52.7151 34.1981C52.6406 34.5439 52.4656 34.8601 52.2122 35.1068C51.9587 35.3535 51.638 35.5199 51.2903 35.5851C50.9426 35.6502 50.5834 35.6112 50.2578 35.4729C49.9322 35.3347 49.6547 35.1033 49.4601 34.8079C49.2656 34.5125 49.1626 34.1662 49.1641 33.8125C49.164 33.5732 49.2118 33.3363 49.3045 33.1158C49.3973 32.8953 49.5332 32.6955 49.7043 32.5282C49.8753 32.3609 50.0781 32.2295 50.3007 32.1417C50.5232 32.0539 50.7611 32.0114 51.0003 32.0168V32.025ZM54.2503 37.7693H47.7503C47.2418 37.7693 46.754 37.9714 46.3944 38.331C46.0348 38.6906 45.8328 39.1783 45.8328 39.6868V43.6681C45.8328 45.0418 46.3785 46.3593 47.3499 47.3307C48.3213 48.3021 49.6388 48.8478 51.0125 48.8478C52.3862 48.8478 53.7037 48.3021 54.6751 47.3307C55.6465 46.3593 56.1922 45.0418 56.1922 43.6681V39.6868C56.1933 39.4323 56.1437 39.1801 56.0463 38.9449C55.9489 38.7097 55.8056 38.4962 55.6249 38.317C55.4441 38.1378 55.2295 37.9963 54.9935 37.9009C54.7575 37.8055 54.5049 37.758 54.2503 37.7612V37.7693ZM54.5428 43.6681C54.4991 44.5815 54.1056 45.443 53.4437 46.0739C52.7819 46.7049 51.9025 47.0568 50.9881 47.0568C50.0737 47.0568 49.1944 46.7049 48.5325 46.0739C47.8707 45.443 47.4771 44.5815 47.4334 43.6681V39.6868C47.4334 39.6093 47.4643 39.5349 47.5191 39.48C47.574 39.4252 47.6484 39.3943 47.7259 39.3943H54.2259C54.3035 39.3943 54.3779 39.4252 54.4328 39.48C54.4876 39.5349 54.5184 39.6093 54.5184 39.6868V43.6681H54.5428ZM61.9122 49.9975C62.5887 49.9975 63.2501 49.7969 63.8126 49.421C64.3751 49.0451 64.8135 48.5109 65.0724 47.8859C65.3313 47.2608 65.3991 46.573 65.2671 45.9095C65.1351 45.246 64.8093 44.6365 64.3309 44.1581C63.8526 43.6797 63.2431 43.3539 62.5795 43.2219C61.916 43.09 61.2282 43.1577 60.6032 43.4166C59.9781 43.6755 59.4439 44.1139 59.068 44.6764C58.6922 45.239 58.4916 45.9003 58.4916 46.5768C58.4915 47.4798 58.8486 48.3462 59.4848 48.987C60.121 49.6278 60.9848 49.991 61.8878 49.9975H61.9122ZM61.9122 44.7893C62.2673 44.7893 62.6145 44.8947 62.9098 45.092C63.2051 45.2893 63.4352 45.5697 63.5711 45.8978C63.707 46.2259 63.7426 46.587 63.6733 46.9353C63.604 47.2836 63.433 47.6035 63.1819 47.8547C62.9308 48.1058 62.6108 48.2768 62.2625 48.3461C61.9142 48.4154 61.5531 48.3798 61.225 48.2439C60.8969 48.108 60.6165 47.8779 60.4192 47.5826C60.2219 47.2873 60.1166 46.9401 60.1166 46.585C60.1144 46.1115 60.2993 45.6564 60.631 45.3186C60.9627 44.9808 61.4144 44.7876 61.8878 44.7812L61.9122 44.7893ZM65.1622 50.5337H58.6622C58.4063 50.5261 58.1515 50.5698 57.9128 50.6623C57.6741 50.7547 57.4563 50.894 57.2723 51.072C57.0883 51.2499 56.9418 51.4629 56.8414 51.6984C56.741 51.9339 56.6888 52.1871 56.6878 52.4431V56.4243C56.7408 57.7626 57.3097 59.0284 58.2753 59.9565C59.2409 60.8845 60.5282 61.4029 61.8675 61.4029C63.2068 61.4029 64.4941 60.8845 65.4597 59.9565C66.4253 59.0284 66.9942 57.7626 67.0472 56.4243V52.4431C67.0472 51.9373 66.8474 51.4521 66.4913 51.0929C66.1352 50.7338 65.6517 50.5299 65.1459 50.5256L65.1622 50.5337ZM65.4547 56.4325C65.411 57.3458 65.0174 58.2073 64.3556 58.8383C63.6937 59.4692 62.8144 59.8212 61.9 59.8212C60.9856 59.8212 60.1063 59.4692 59.4444 58.8383C58.7826 58.2073 58.389 57.3458 58.3453 56.4325V52.4512C58.3453 52.3736 58.3761 52.2992 58.431 52.2444C58.4858 52.1895 58.5602 52.1587 58.6378 52.1587H65.1378C65.2154 52.1587 65.2898 52.1895 65.3446 52.2444C65.3995 52.2992 65.4303 52.3736 65.4303 52.4512V56.4325H65.4547ZM40.1128 49.9975C40.7893 49.9975 41.4507 49.7969 42.0132 49.421C42.5757 49.0451 43.0142 48.5109 43.2731 47.8859C43.532 47.2608 43.5997 46.573 43.4677 45.9095C43.3357 45.246 43.0099 44.6365 42.5316 44.1581C42.0532 43.6797 41.4437 43.3539 40.7801 43.2219C40.1166 43.09 39.4288 43.1577 38.8038 43.4166C38.1788 43.6755 37.6445 44.1139 37.2687 44.6764C36.8928 45.239 36.6922 45.9003 36.6922 46.5768C36.6922 47.026 36.7807 47.4709 36.9526 47.8859C37.1245 48.3009 37.3764 48.678 37.6941 48.9956C38.0117 49.3132 38.3888 49.5652 38.8038 49.7371C39.2188 49.909 39.6636 49.9975 40.1128 49.9975ZM40.1128 44.7893C40.468 44.7893 40.8151 44.8947 41.1104 45.092C41.4057 45.2893 41.6358 45.5697 41.7718 45.8978C41.9077 46.2259 41.9432 46.587 41.8739 46.9353C41.8047 47.2836 41.6336 47.6035 41.3825 47.8547C41.1314 48.1058 40.8114 48.2768 40.4631 48.3461C40.1148 48.4154 39.7538 48.3798 39.4257 48.2439C39.0975 48.108 38.8171 47.8779 38.6198 47.5826C38.4225 47.2873 38.3172 46.9401 38.3172 46.585C38.3161 46.3485 38.3618 46.1141 38.4515 45.8953C38.5413 45.6765 38.6734 45.4776 38.8402 45.31C39.0071 45.1424 39.2054 45.0094 39.4238 44.9187C39.6422 44.8279 39.8763 44.7812 40.1128 44.7812V44.7893ZM43.3628 50.5337H36.8628C36.3543 50.5337 35.8665 50.7357 35.5069 51.0953C35.1473 51.4549 34.9453 51.9427 34.9453 52.4512V56.4325C34.9453 57.8062 35.491 59.1237 36.4624 60.0951C37.4338 61.0664 38.7513 61.6122 40.125 61.6122C41.4987 61.6122 42.8162 61.0664 43.7876 60.0951C44.759 59.1237 45.3047 57.8062 45.3047 56.4325V52.4512C45.3058 52.198 45.2567 51.9472 45.1603 51.713C45.0639 51.4789 44.9221 51.2662 44.7431 51.0872C44.5641 50.9082 44.3513 50.7664 44.1172 50.67C43.8831 50.5736 43.6322 50.5245 43.3791 50.5256L43.3628 50.5337ZM43.6878 56.4243C43.6441 57.3377 43.2506 58.1992 42.5887 58.8302C41.9269 59.4611 41.0475 59.8131 40.1331 59.8131C39.2187 59.8131 38.3394 59.4611 37.6775 58.8302C37.0157 58.1992 36.6221 57.3377 36.5784 56.4243V52.4431C36.5784 52.3655 36.6093 52.2911 36.6641 52.2363C36.719 52.1814 36.7934 52.1506 36.8709 52.1506H43.3709C43.4485 52.1506 43.5229 52.1814 43.5778 52.2363C43.6326 52.2911 43.6634 52.3655 43.6634 52.4431V56.4243H43.6878ZM55.5503 54.4256C55.5503 54.6411 55.4647 54.8477 55.3123 55.0001C55.16 55.1525 54.9533 55.2381 54.7378 55.2381H47.1978C46.9823 55.2381 46.7757 55.1525 46.6233 55.0001C46.4709 54.8477 46.3853 54.6411 46.3853 54.4256C46.3853 54.2101 46.4709 54.0034 46.6233 53.8511C46.7757 53.6987 46.9823 53.6131 47.1978 53.6131H50.1878V50.7856C50.1878 50.5701 50.2734 50.3634 50.4258 50.2111C50.5782 50.0587 50.7848 49.9731 51.0003 49.9731C51.2158 49.9731 51.4225 50.0587 51.5748 50.2111C51.7272 50.3634 51.8128 50.5701 51.8128 50.7856V53.6131H54.7622C54.9706 53.6235 55.1669 53.7137 55.3106 53.865C55.4543 54.0162 55.5343 54.217 55.5341 54.4256H55.5503Z" fill="#0057FF"/>
</g>
<defs>
<filter id="filter0_d_513_1124" x="0" y="5" width="102" height="102" filterUnits="userSpaceOnUse" color-interpolation-filters="sRGB">
<feFlood flood-opacity="0" result="BackgroundImageFix"/>
<feColorMatrix in="SourceAlpha" type="matrix" values="0 0 0 0 0 0 0 0 0 0 0 0 0 0 0 0 0 0 127 0" result="hardAlpha"/>
<feOffset dy="6"/>
<feGaussianBlur stdDeviation="8"/>
<feComposite in2="hardAlpha" operator="out"/>
<feColorMatrix type="matrix" values="0 0 0 0 0 0 0 0 0 0 0 0 0 0 0 0 0 0 0.08 0"/>
<feBlend mode="normal" in2="BackgroundImageFix" result="effect1_dropShadow_513_1124"/>
<feBlend mode="normal" in="SourceGraphic" in2="effect1_dropShadow_513_1124" result="shape"/>
</filter>
<filter id="filter1_d_513_1124" x="0" y="0" width="102" height="102" filterUnits="userSpaceOnUse" color-interpolation-filters="sRGB">
<feFlood flood-opacity="0" result="BackgroundImageFix"/>
<feColorMatrix in="SourceAlpha" type="matrix" values="0 0 0 0 0 0 0 0 0 0 0 0 0 0 0 0 0 0 127 0" result="hardAlpha"/>
<feOffset dy="6"/>
<feGaussianBlur stdDeviation="8"/>
<feComposite in2="hardAlpha" operator="out"/>
<feColorMatrix type="matrix" values="0 0 0 0 0.00392157 0 0 0 0 0.337255 0 0 0 0 0.976471 0 0 0 0.1 0"/>
<feBlend mode="normal" in2="BackgroundImageFix" result="effect1_dropShadow_513_1124"/>
<feBlend mode="normal" in="SourceGraphic" in2="effect1_dropShadow_513_1124" result="shape"/>
</filter>
<clipPath id="clip0_513_1124">
<rect width="52" height="53.625" fill="white" transform="translate(25 20)"/>
</clipPath>
</defs>
</svg>
