<svg width="476" height="550" viewBox="0 0 476 550" fill="none" xmlns="http://www.w3.org/2000/svg">
<path d="M0.648358 545.659C0.368137 545.056 0.170752 544.406 0.0720868 543.72L0.566984 543.649C0.52291 543.343 0.5 543.029 0.5 542.708V541.708H0V539.709H0.5V537.71H0V535.711H0.5V533.712H0V531.713H0.5V529.714H0V527.715H0.5V525.716H0V523.718H0.5V521.719H0V519.72H0.5V517.721H0V515.722H0.5V513.723H0V511.724H0.5V509.725H0V507.726H0.5V505.727H0V503.729H0.5V501.73H0V499.731H0.5V497.732H0V495.733H0.5V493.734H0V491.735H0.5V489.736H0V487.737H0.5V485.738H0V483.74H0.5V481.741H0V479.742H0.5V477.743H0V475.744H0.5V473.745H0V471.746H0.5V469.747H0V467.748H0.5V465.749H0V463.751H0.5V461.752H0V459.753H0.5V457.754H0V455.755H0.5V453.756H0V451.757H0.5V449.758H0V447.759H0.5V445.76H0V443.762H0.5V441.763H0V439.764H0.5V437.765H0V435.766H0.5V433.767H0V431.768H0.5V429.769H0V427.77H0.5V425.771H0V423.772H0.5V421.774H0V419.775H0.5V417.776H0V415.777H0.5V413.778H0V411.779H0.5V409.78H0V407.781H0.5V405.782H0V403.783H0.5V401.785H0V399.786H0.5V397.787H0V395.788H0.5V393.789H0V391.79H0.5V389.791H0V387.792H0.5V385.793H0V383.794H0.5V381.796H0V379.797H0.5V377.798H0V375.799H0.5V373.8H0V371.801H0.5V369.802H0V367.803H0.5V365.804H0V363.805H0.5V361.807H0V359.808H0.5V357.809H0V355.81H0.5V353.811H0V351.812H0.5V349.813H0V347.814H0.5V345.815H0V343.816H0.5V341.818H0V339.819H0.5V337.82H0V335.821H0.5V333.822H0V331.823H0.5V329.824H0V327.825H0.5V325.826H0V323.827H0.5V321.829H0V319.83H0.5V317.831H0V315.832H0.5V313.833H0V311.834H0.5V309.835H0V307.836H0.5V305.837H0V303.838H0.5V301.84H0V299.841H0.5V297.842H0V295.843H0.5V293.844H0V291.845H0.5V289.846H0V287.847H0.5V285.848H0V283.849H0.5V281.85H0V279.852H0.5V277.853H0V275.854H0.5V273.855H0V271.856H0.5V269.857H0V267.858H0.5V265.859H0V263.86H0.5V261.861H0V259.863H0.5V257.864H0V255.865H0.5V253.866H0V251.867H0.5V249.868H0V247.869H0.5V245.87H0V243.871H0.5V241.872H0V239.873H0.5V237.874H0V235.876H0.5V233.877H0V231.878H0.5V229.879H0V227.88H0.5V225.881H0V223.882H0.5V221.883H0V219.884H0.5V217.885H0V215.886H0.5V213.887H0V211.889H0.5V209.89H0V207.891H0.5V205.892H0V203.893H0.5V201.894H0V199.895H0.5V197.896H0V195.897H0.5V193.898H0V191.899H0.5V189.9H0V187.902H0.5V185.903H0V183.904H0.5V181.905H0V179.906H0.5V177.907H0V175.908H0.5V173.909H0V171.91H0.5V169.911H0V167.912H0.5V165.913H0V163.915H0.5V161.916H0V159.917H0.5V157.918H0V155.919H0.5V153.92H0V151.921H0.5V149.922H0V147.923H0.5V145.924H0V143.925H0.5V141.926H0V139.928H0.5V137.929H0V135.93H0.5V133.931H0V131.932H0.5V129.933H0V127.934H0.5V125.935H0V123.936H0.5V121.937H0V119.938H0.5V117.94H0V115.941H0.5V113.942H0V111.943H0.5V109.944H0V107.945H0.5V105.946H0V103.947H0.5V101.948H0V99.9494H0.5V97.9505H0V95.9516H0.5V93.9526H0V91.9537H0.5V89.9548H0V87.9559H0.5V85.957H0V83.9581H0.5V81.9592H0V79.9603H0.5V77.9614H0V75.9625H0.5V73.9636H0V71.9646H0.5V69.9657H0V67.9668H0.5V65.9679H0V63.969H0.5V61.9701H0V59.9712H0.5V57.9723H0V55.9733H0.5V53.9744H0V51.9755H0.5V49.9766H0V47.9777H0.5V45.9788H0V43.9799H0.5V41.981H0V39.982H0.5V37.9831H0V35.9842H0.5V33.9853H0V31.9864H0.5V29.9875H0V27.9886H0.5V25.9897H0V23.9908H0.5V21.9918H0V19.9929H0.5V17.994H0V15.9951H0.5V13.9962H0V11.9973H0.5V9.99838H0V7.99947H0.5V7.00001C0.5 6.71182 0.518724 6.42826 0.554966 6.15042L0.0591661 6.08574C0.13969 5.46843 0.300642 4.87639 0.531164 4.32049L0.993027 4.51202C1.21205 3.98386 1.49883 3.49062 1.84266 3.04318L1.4462 2.73852C1.81885 2.25359 2.25358 1.81886 2.73851 1.44621L3.04317 1.84267C3.49061 1.49883 3.98385 1.21205 4.51201 0.993029L4.32048 0.531166C4.87638 0.300644 5.46842 0.13969 6.08573 0.0591663L6.15041 0.554966C6.42825 0.518724 6.71181 0.5 7 0.5H7.99424V0H9.98563V0.5H11.977V0H13.9684V0.5H15.9598V0H17.9512V0.5H19.9426V0H21.934V0.5H23.9254V0H25.9168V0.5H27.9082V0H29.8996V0.5H31.891V0H33.8823V0.5H35.8738V0H37.8652V0.5H39.8565V0H41.8479V0.5H43.8393V0H45.8307V0.5H47.8221V0H49.8135V0.5H51.8049V0H53.7963V0.5H55.7877V0H57.7791V0.5H59.7705V0H61.7619V0.5H63.7533V0H65.7447V0.5H67.7361V0H69.7275V0.5H71.7188V0H73.7102V0.5H75.7016V0H77.693V0.5H79.6844V0H81.6758V0.5H83.6672V0H85.6586V0.5H87.65V0H89.6414V0.5H91.6328V0H93.6242V0.5H95.6156V0H97.607V0.5H99.5983V0H101.59V0.5H103.581V0H105.573V0.5H107.564V0H109.555V0.5H111.547V0H113.538V0.5H115.53V0H117.521V0.5H119.512V0H121.504V0.5H123.495V0H125.486V0.5H127.478V0H129.469V0.5H131.461V0H133.452V0.5H135.443V0H137.435V0.5H139.426V0H141.418V0.5H143.409V0H145.4V0.5H147.392V0H149.383V0.5H151.375V0H153.366V0.5H155.357V0H157.349V0.5H159.34V0H161.332V0.5H163.323V0H165.314V0.5H167.306V0H169.297V0.5H171.289V0H173.28V0.5H175.271V0H177.263V0.5H179.254V0H181.245V0.5H183.237V0H185.228V0.5H187.22V0H189.211V0.5H191.202V0H193.194V0.5H195.185V0H197.177V0.5H199.168V0H201.159V0.5H203.151V0H205.142V0.5H207.134V0H209.125V0.5H211.116V0H213.108V0.5H215.099V0H217.091V0.5H219.082V0H221.073V0.5H223.065V0H225.056V0.5H227.047V0H229.039V0.5H231.03V0H233.022V0.5H235.013V0H237.004V0.5H238.996V0H240.987V0.5H242.979V0H244.97V0.5H246.961V0H248.953V0.5H250.944V0H252.935V0.5H254.927V0H256.918V0.5H258.91V0H260.901V0.5H262.892V0H264.884V0.5H266.875V0H268.866V0.5H270.858V0H272.849V0.5H274.841V0H276.832V0.5H278.823V0H280.815V0.5H282.806V0H284.797V0.5H286.789V0H288.78V0.5H290.772V0H292.763V0.5H294.754V0H296.746V0.5H298.737V0H300.728V0.5H302.72V0H304.711V0.5H306.703V0H308.694V0.5H310.685V0H312.677V0.5H314.668V0H316.66V0.5H318.651V0H320.642V0.5H322.634V0H324.625V0.5H326.616V0H328.608V0.5H330.599V0H332.591V0.5H334.582V0H336.573V0.5H338.565V0H340.556V0.5H342.547V0H344.539V0.5H346.53V0H348.522V0.5H350.513V0H352.504V0.5H354.496V0H356.487V0.5H358.478V0H360.47V0.5H362.461V0H364.453V0.5H366.444V0H368.435V0.5H370.427V0H372.418V0.5H374.409V0H376.401V0.5H378.392V0H380.384V0.5H382.375V0H384.366V0.5H386.358V0H388.349V0.5H390.341V0H392.332V0.5H394.323V0H396.315V0.5H398.306V0H400.297V0.5H402.289V0H404.28V0.5H406.272V0H408.263V0.5H410.254V0H412.246V0.5H414.237V0H416.228V0.5H418.22V0H420.211V0.5H422.203V0H424.194V0.5H426.185V0H428.177V0.5H430.168V0H432.159V0.5H434.151V0H436.142V0.5H438.134V0H440.125V0.5H442.116V0H444.108V0.5H446.099V0H448.091V0.5H450.082V0H452.073V0.5H454.065V0H456.056V0.5H458.047V0H460.039V0.5H462.03V0H464.022V0.5H466.013V0H468.004V0.5H469C469.288 0.5 469.572 0.518724 469.85 0.554966L469.914 0.0591654C470.532 0.139688 471.124 0.30064 471.68 0.531159L471.488 0.993026C472.016 1.21205 472.509 1.49883 472.957 1.84266L473.261 1.4462C473.746 1.81885 474.181 2.25358 474.554 2.73851L474.157 3.04317C474.501 3.49061 474.788 3.98385 475.007 4.51201L475.469 4.32049C475.699 4.87638 475.86 5.46842 475.941 6.08574L475.445 6.15041C475.481 6.42825 475.5 6.71181 475.5 7V8.00201H476V10.0068H475.5V12.0116H476V14.0164H475.5V16.0212H476V18.026H475.5V20.0308H476V22.0355H475.5V24.0403H476V26.0451H475.5V28.0499H476V30.0547H475.5V32.0595H476V34.0643H475.5V36.0691H476V38.0739H475.5V40.0787H476V42.0835H475.5V44.0883H476V46.093H475.5V48.0978H476V50.1026H475.5V52.1074H476V54.1122H475.5V56.117H476V58.1218H475.5V60.1266H476V62.1314H475.5V64.1362H476V66.141H475.5V68.1458H476V70.1505H475.5V72.1553H476V74.1601H475.5V76.1649H476V78.1697H475.5V80.1745H476V82.1793H475.5V84.1841H476V86.1889H475.5V88.1937H476V90.1985H475.5V92.2033H476V94.208H475.5V96.2128H476V98.2176H475.5V100.222H476V102.227H475.5V104.232H476V106.237H475.5V108.242H476V110.246H475.5V112.251H476V114.256H475.5V116.261H476V118.266H475.5V120.27H476V122.275H475.5V124.28H476V126.285H475.5V128.289H476V130.294H475.5V132.299H476V134.304H475.5V136.309H476V138.313H475.5V140.318H476V142.323H475.5V144.328H476V146.333H475.5V148.337H476V150.342H475.5V152.347H476V154.352H475.5V156.357H476V158.361H475.5V160.366H476V162.371H475.5V164.376H476V166.381H475.5V168.385H476V170.39H475.5V172.395H476V174.4H475.5V176.404H476V178.409H475.5V180.414H476V182.419H475.5V184.424H476V186.428H475.5V188.433H476V190.438H475.5V192.443H476V194.448H475.5V196.452H476V198.457H475.5V200.462H476V202.467H475.5V204.472H476V206.476H475.5V208.481H476V210.486H475.5V212.491H476V214.495H475.5V216.5H476V218.505H475.5V220.51H476V222.515H475.5V224.519H476V226.524H475.5V228.529H476V230.534H475.5V232.538H476V234.543H475.5V236.548H476V238.553H475.5V240.558H476V242.562H475.5V244.567H476V246.572H475.5V248.577H476V250.581H475.5V252.586H476V254.591H475.5V256.596H476V258.601H475.5V260.605H476V262.61H475.5V264.615H476V266.62H475.5V268.624H476V270.629H475.5V272.634H476V274.639H475.5V276.644H476V278.648H475.5V280.653H476V282.658H475.5V284.663H476V286.667H475.5V288.672H476V290.677H475.5V292.682H476V294.686H475.5V296.691H476V298.696H475.5V300.701H476V302.706H475.5V304.71H476V306.715H475.5V308.72H476V310.725H475.5V312.729H476V314.734H475.5V316.739H476V318.744H475.5V320.749H476V322.753H475.5V324.758H476V326.763H475.5V328.768H476V330.772H475.5V332.777H476V334.782H475.5V336.787H476V338.792H475.5V340.796H476V342.801H475.5V344.806H476V346.811H475.5V348.815H476V350.82H475.5V352.825H476V354.83H475.5V356.835H476V358.839H475.5V360.844H476V362.849H475.5V364.854H476V366.859H475.5V368.863H476V370.868H475.5V372.873H476V374.878H475.5V376.882H476V378.887H475.5V380.892H476V382.897H475.5V384.902H476V386.906H475.5V388.911H476V390.916H475.5V392.921H476V394.926H475.5V396.93H476V398.935H475.5V400.94H476V402.945H475.5V404.949H476V406.954H475.5V408.959H476V410.964H475.5V412.969H476V414.973H475.5V416.978H476V418.983H475.5V420.988H476V422.992H475.5V424.997H476V427.002H475.5V429.007H476V431.012H475.5V433.016H476V435.021H475.5V437.026H476V439.031H475.5V441.036H476V443.04H475.5V445.045H476V447.05H475.5V449.055H476V451.059H475.5V453.064H476V455.069H475.5V457.074H476V459.079H475.5V461.083H476V463.088H475.5V464.091C475.5 464.477 475.466 464.856 475.401 465.225L475.893 465.311C475.749 466.131 475.461 466.905 475.055 467.604L474.622 467.353C474.24 468.011 473.744 468.598 473.159 469.086L473.48 469.47C472.858 469.988 472.144 470.401 471.36 470.681L471.192 470.211C470.839 470.337 470.471 470.434 470.09 470.498L469.104 470.666L469.188 471.159L467.214 471.495L467.13 471.002L465.155 471.338L465.239 471.831L463.265 472.167L463.181 471.674L461.207 472.01L461.291 472.503L459.316 472.839L459.232 472.346L457.258 472.682L457.342 473.175L455.367 473.511L455.284 473.018L453.309 473.354L453.393 473.847L451.419 474.183L451.335 473.69L449.36 474.026L449.444 474.519L447.47 474.855L447.386 474.362L445.412 474.698L445.496 475.191L443.521 475.527L443.437 475.034L441.463 475.37L441.547 475.863L439.573 476.199L439.489 475.706L437.514 476.042L437.598 476.535L435.624 476.871L435.54 476.378L433.566 476.714L433.649 477.207L431.675 477.543L431.591 477.05L429.617 477.386L429.701 477.879L427.726 478.215L427.642 477.722L425.668 478.058L425.752 478.551L423.778 478.887L423.694 478.394L421.719 478.73L421.803 479.223L419.829 479.559L419.745 479.066L417.771 479.402L417.854 479.895L415.88 480.23L415.796 479.738L413.822 480.074L413.906 480.566L411.931 480.902L411.848 480.41L409.873 480.746L409.957 481.238L407.983 481.574L407.899 481.081L405.924 481.417L406.008 481.91L404.034 482.246L403.95 481.753L401.976 482.089L402.06 482.582L400.085 482.918L400.001 482.425L398.027 482.761L398.111 483.254L396.137 483.59L396.053 483.097L394.078 483.433L394.162 483.926L392.188 484.262L392.104 483.769L390.129 484.105L390.213 484.598L388.239 484.934L388.155 484.441L386.181 484.777L386.265 485.27L384.29 485.606L384.206 485.113L382.232 485.449L382.316 485.942L380.342 486.278L380.258 485.785L378.283 486.121L378.367 486.614L376.393 486.95L376.309 486.457L374.335 486.793L374.418 487.286L372.444 487.622L372.36 487.129L370.386 487.465L370.47 487.958L368.495 488.294L368.411 487.801L366.437 488.137L366.521 488.63L364.547 488.966L364.463 488.473L362.488 488.809L362.572 489.302L360.598 489.638L360.514 489.145L358.54 489.481L358.624 489.974L356.649 490.31L356.565 489.817L354.591 490.153L354.675 490.646L352.7 490.982L352.617 490.489L350.642 490.825L350.726 491.318L348.752 491.654L348.668 491.161L346.693 491.497L346.777 491.99L344.803 492.326L344.719 491.833L342.745 492.169L342.829 492.662L340.854 492.997L340.77 492.505L338.796 492.841L338.88 493.333L336.906 493.669L336.822 493.177L334.847 493.513L334.931 494.005L332.957 494.341L332.873 493.848L330.899 494.184L330.982 494.677L329.008 495.013L328.924 494.52L326.95 494.856L327.034 495.349L325.059 495.685L324.975 495.192L323.001 495.528L323.085 496.021L321.111 496.357L321.027 495.864L319.052 496.2L319.136 496.693L317.162 497.029L317.078 496.536L315.104 496.872L315.188 497.365L313.213 497.701L313.129 497.208L311.155 497.544L311.239 498.037L309.264 498.373L309.181 497.88L307.206 498.216L307.29 498.709L305.316 499.045L305.232 498.552L303.257 498.888L303.341 499.381L301.367 499.717L301.283 499.224L299.309 499.56L299.393 500.053L297.418 500.389L297.334 499.896L295.36 500.232L295.444 500.725L293.47 501.061L293.386 500.568L291.411 500.904L291.495 501.397L289.521 501.733L289.437 501.24L287.463 501.576L287.546 502.069L285.572 502.405L285.488 501.912L283.514 502.248L283.598 502.741L281.623 503.077L281.539 502.584L279.565 502.92L279.649 503.413L277.675 503.749L277.591 503.256L275.616 503.592L275.7 504.085L273.726 504.421L273.642 503.928L271.668 504.264L271.752 504.757L269.777 505.093L269.693 504.6L267.719 504.936L267.803 505.429L265.828 505.764L265.745 505.272L263.77 505.608L263.854 506.1L261.88 506.436L261.796 505.944L259.821 506.28L259.905 506.772L257.931 507.108L257.847 506.615L255.873 506.951L255.957 507.444L253.982 507.78L253.898 507.287L251.924 507.623L252.008 508.116L250.034 508.452L249.95 507.959L247.975 508.295L248.059 508.788L246.085 509.124L246.001 508.631L244.027 508.967L244.11 509.46L242.136 509.796L242.052 509.303L240.078 509.639L240.162 510.132L238.187 510.468L238.103 509.975L236.129 510.311L236.213 510.804L234.239 511.14L234.155 510.647L232.18 510.983L232.264 511.476L230.29 511.812L230.206 511.319L228.232 511.655L228.315 512.148L226.341 512.484L226.257 511.991L224.283 512.327L224.367 512.82L222.392 513.156L222.309 512.663L220.334 512.999L220.418 513.492L218.444 513.828L218.36 513.335L216.385 513.671L216.469 514.164L214.495 514.5L214.411 514.007L212.437 514.343L212.521 514.836L210.546 515.172L210.462 514.679L208.488 515.015L208.572 515.508L206.597 515.844L206.514 515.351L204.539 515.687L204.623 516.18L202.649 516.516L202.565 516.023L200.591 516.359L200.674 516.852L198.7 517.188L198.616 516.695L196.642 517.031L196.726 517.524L194.751 517.86L194.667 517.367L192.693 517.703L192.777 518.196L190.803 518.531L190.719 518.039L188.744 518.375L188.828 518.867L186.854 519.203L186.77 518.711L184.796 519.047L184.879 519.539L182.905 519.875L182.821 519.383L180.847 519.718L180.931 520.211L178.956 520.547L178.872 520.054L176.898 520.39L176.982 520.883L175.008 521.219L174.924 520.726L172.949 521.062L173.033 521.555L171.059 521.891L170.975 521.398L169.001 521.734L169.085 522.227L167.11 522.563L167.026 522.07L165.052 522.406L165.136 522.899L163.161 523.235L163.078 522.742L161.103 523.078L161.187 523.571L159.213 523.907L159.129 523.414L157.154 523.75L157.238 524.243L155.264 524.579L155.18 524.086L153.206 524.422L153.29 524.915L151.315 525.251L151.231 524.758L149.257 525.094L149.341 525.587L147.367 525.923L147.283 525.43L145.308 525.766L145.392 526.259L143.418 526.595L143.334 526.102L141.36 526.438L141.443 526.931L139.469 527.267L139.385 526.774L137.411 527.11L137.495 527.603L135.52 527.939L135.436 527.446L133.462 527.782L133.546 528.275L131.572 528.611L131.488 528.118L129.513 528.454L129.597 528.947L127.623 529.283L127.539 528.79L125.565 529.126L125.649 529.619L123.674 529.955L123.59 529.462L121.616 529.798L121.7 530.291L119.726 530.627L119.642 530.134L117.667 530.47L117.751 530.963L115.777 531.299L115.693 530.806L113.719 531.142L113.802 531.634L111.828 531.97L111.744 531.478L109.77 531.813L109.854 532.306L107.879 532.642L107.795 532.149L105.821 532.485L105.905 532.978L103.931 533.314L103.847 532.821L101.872 533.157L101.956 533.65L99.9819 533.986L99.898 533.493L97.9237 533.829L98.0076 534.322L96.0332 534.658L95.9493 534.165L93.975 534.501L94.0589 534.994L92.0845 535.33L92.0006 534.837L90.0263 535.173L90.1101 535.666L88.1358 536.002L88.0519 535.509L86.0776 535.845L86.1614 536.338L84.1871 536.674L84.1032 536.181L82.1288 536.517L82.2127 537.01L80.2384 537.346L80.1545 536.853L78.1801 537.189L78.264 537.682L76.2896 538.018L76.2058 537.525L74.2314 537.861L74.3153 538.354L72.3409 538.69L72.257 538.197L70.2827 538.533L70.3666 539.026L68.3922 539.362L68.3083 538.869L66.334 539.205L66.4179 539.698L64.4435 540.034L64.3596 539.541L62.3853 539.877L62.4691 540.37L60.4948 540.706L60.4109 540.213L58.4366 540.549L58.5204 541.042L56.5461 541.378L56.4622 540.885L54.4878 541.221L54.5717 541.714L52.5974 542.05L52.5135 541.557L50.5391 541.893L50.623 542.386L48.6486 542.722L48.5648 542.229L46.5904 542.565L46.6743 543.058L44.6999 543.393L44.616 542.901L42.6417 543.237L42.7256 543.729L40.7512 544.065L40.6673 543.573L38.693 543.909L38.7769 544.401L36.8025 544.737L36.7186 544.245L34.7443 544.58L34.8281 545.073L32.8538 545.409L32.7699 544.916L30.7955 545.252L30.8794 545.745L28.9051 546.081L28.8212 545.588L26.8468 545.924L26.9307 546.417L24.9563 546.753L24.8725 546.26L22.8981 546.596L22.982 547.089L21.0076 547.425L20.9237 546.932L18.9494 547.268L19.0333 547.761L17.0589 548.097L16.975 547.604L15.0007 547.94L15.0845 548.433L13.1102 548.769L13.0263 548.276L11.0519 548.612L11.1358 549.105L9.16146 549.441L9.07759 548.948L8.09041 549.116C7.7744 549.17 7.46098 549.2 7.15173 549.208L7.16452 549.708C6.47225 549.725 5.79779 549.64 5.15704 549.465L5.28893 548.982C4.67745 548.815 4.09865 548.56 3.56867 548.229L3.3042 548.654C2.72935 548.296 2.20826 547.856 1.75861 547.349L2.13257 547.017C1.71802 546.55 1.36911 546.022 1.10169 545.448L0.648358 545.659Z" stroke="#0057FF" stroke-dasharray="2 2"/>
</svg>
