<svg width="55" height="64" viewBox="0 0 55 64" fill="none" xmlns="http://www.w3.org/2000/svg">
<g clip-path="url(#clip0_513_8555)">
<path d="M26.8927 19.1741L24.3867 21.5889L33.7127 31.267L36.2187 28.8522L26.8927 19.1741Z" fill="#00CC83"/>
<path d="M52.9795 16.98L50.4595 14.58L41.6395 23.7001L31.7995 13.5L40.6795 4.20005L38.1595 1.80005L29.3395 10.98L26.6395 8.22005L13.9195 21.42L15.2395 22.8L11.2795 33.5401L11.8195 34.1401L10.6195 35.4001C8.69953 37.3801 8.51953 40.5 10.0795 42.72C8.15953 44.16 7.01953 46.4401 7.01953 48.9001V50.4001C7.01953 54.6001 10.3795 58.0201 14.4595 58.0201H31.4995V54.6001H14.4595C12.2995 54.6001 10.4995 52.7401 10.4995 50.46V48.96C10.4995 47.46 11.2795 46.14 12.4795 45.3601L12.6595 45.5401C13.6795 46.6201 15.1195 47.22 16.6195 47.22C18.1195 47.22 19.4995 46.6201 20.5795 45.5401L21.7195 44.34L22.2595 44.8801L32.6395 40.8L34.0195 42.2401L46.7395 29.0401L44.0395 26.2801L52.9795 16.98ZM17.9995 43.0801C17.6395 43.5001 17.0995 43.6801 16.5595 43.6801C16.0195 43.6801 15.5395 43.4401 15.1195 43.0801L13.0795 40.9801C12.2395 40.1401 12.2395 38.7001 13.0795 37.8601L14.2795 36.66L14.6995 37.0801L19.1995 41.76L17.9995 43.0801ZM29.9995 38.1001L23.0995 40.8L23.0395 40.7401C22.9795 40.68 22.9795 40.62 22.9195 40.62L17.2195 34.68L15.3595 32.7001L17.9395 25.6201L23.8795 31.7401L29.9995 38.1001ZM33.9595 37.2001L26.5195 29.4L18.7795 21.42L26.6395 13.2L26.8795 13.44L26.8195 13.5L28.0795 14.7L41.8795 28.98L33.9595 37.2001Z" fill="#00CC83"/>
<path d="M36.7793 54.6602H33.2393V58.2002H36.7793V54.6602Z" fill="#00CC83"/>
</g>
<defs>
<clipPath id="clip0_513_8555">
<rect width="55" height="64" fill="white"/>
</clipPath>
</defs>
</svg>
