<svg width="60" height="75" viewBox="0 0 60 75" fill="none" xmlns="http://www.w3.org/2000/svg">
<g clip-path="url(#clip0_513_8579)">
<path d="M30.0101 12C29.6986 11.9997 29.3947 12.0963 29.1407 12.2764C28.8866 12.4564 28.6949 12.711 28.5921 13.0049L27.1595 17.127L22.7913 17.2177C22.4802 17.2246 22.179 17.328 21.9293 17.5135C21.6795 17.699 21.4937 17.9576 21.3975 18.2533C21.3013 18.5491 21.2994 18.8674 21.3922 19.1642C21.485 19.461 21.6678 19.7217 21.9153 19.9101L25.3958 22.5468L24.1331 26.7246C24.0438 27.0223 24.0493 27.3403 24.1487 27.6348C24.2482 27.9293 24.4367 28.1856 24.6883 28.3683C24.9399 28.5511 25.242 28.6512 25.553 28.6548C25.8639 28.6584 26.1684 28.5654 26.4241 28.3886L30.0101 25.8955L33.5931 28.3886C33.8488 28.5665 34.1536 28.6605 34.4652 28.6574C34.7768 28.6543 35.0797 28.5544 35.3319 28.3714C35.5841 28.1885 35.773 27.9317 35.8725 27.6365C35.9719 27.3414 35.977 27.0227 35.887 26.7245L34.6214 22.5468L38.1019 19.9101C38.3494 19.7217 38.5322 19.461 38.625 19.1642C38.7178 18.8674 38.7159 18.549 38.6197 18.2533C38.5235 17.9576 38.3377 17.699 38.0879 17.5135C37.8382 17.328 37.537 17.2246 37.2259 17.2177L32.8577 17.127L31.4251 13.0049C31.3225 12.7115 31.1312 12.4572 30.8777 12.2772C30.6242 12.0972 30.321 12.0003 30.0101 12ZM30.0101 18.0615L30.3704 19.0957C30.4708 19.385 30.6574 19.6366 30.9052 19.8168C31.1529 19.9969 31.4499 20.097 31.7562 20.1035L32.8489 20.1268L31.9788 20.7859C31.7346 20.9709 31.5529 21.2261 31.4581 21.5173C31.3633 21.8085 31.36 22.1217 31.4485 22.4148L31.7679 23.4637L30.8655 22.8367C30.6143 22.6625 30.3158 22.5692 30.0101 22.5692C29.7043 22.5692 29.4058 22.6625 29.1546 22.8367L28.2523 23.4607L28.5716 22.4148C28.6602 22.1217 28.6569 21.8085 28.5621 21.5173C28.4673 21.2261 28.2855 20.9709 28.0413 20.7859L27.1712 20.1268L28.264 20.1035C28.5703 20.097 28.8672 19.9969 29.115 19.8168C29.3627 19.6366 29.5493 19.385 29.6497 19.0957L30.0101 18.0615ZM12.1624 24.1143C11.852 24.114 11.5493 24.2113 11.2962 24.3924C11.0432 24.5735 10.8524 24.8296 10.7503 25.125L9.56964 28.5586L5.96319 28.6348C5.65329 28.6415 5.35313 28.7451 5.10429 28.9314C4.85545 29.1177 4.67024 29.3774 4.57432 29.6745C4.4784 29.9716 4.47652 30.2914 4.56894 30.5896C4.66136 30.8878 4.84351 31.1497 5.09014 31.3389L7.96123 33.5362L6.92119 37.0137C6.83152 37.3129 6.83645 37.6329 6.93528 37.9292C7.03412 38.2254 7.22197 38.4834 7.47278 38.6672C7.72359 38.8511 8.02495 38.9517 8.33505 38.9552C8.64515 38.9586 8.94864 38.8647 9.20343 38.6865L12.1624 36.6094L15.1243 38.6865C15.3791 38.8647 15.6826 38.9586 15.9927 38.9552C16.3028 38.9517 16.6041 38.8511 16.855 38.6672C17.1058 38.4834 17.2936 38.2254 17.3925 37.9292C17.4913 37.6329 17.4962 37.3129 17.4066 37.0137L16.3636 33.5362L19.2376 31.3389C19.4842 31.1497 19.6664 30.8878 19.7588 30.5896C19.8512 30.2914 19.8493 29.9716 19.7534 29.6745C19.6575 29.3774 19.4723 29.1177 19.2234 28.9314C18.9746 28.7452 18.6745 28.6415 18.3646 28.6348L14.7581 28.5586L13.5745 25.125C13.4724 24.8296 13.2816 24.5735 13.0286 24.3924C12.7755 24.2113 12.4728 24.114 12.1624 24.1143ZM47.8314 24.1173C47.521 24.117 47.2182 24.2143 46.9652 24.3954C46.7121 24.5765 46.5213 24.8326 46.4192 25.128L45.2356 28.5616L41.6292 28.6378C41.3186 28.6437 41.0175 28.7471 40.7679 28.9335C40.5183 29.12 40.3325 29.3802 40.2365 29.678C40.1404 29.9758 40.1389 30.2964 40.232 30.5951C40.3252 30.8939 40.5084 31.1559 40.7562 31.3448L43.6302 33.5391L42.5872 37.0196C42.4968 37.3193 42.5014 37.6399 42.6002 37.9368C42.6991 38.2338 42.8873 38.4922 43.1388 38.6763C43.3902 38.8603 43.6923 38.9608 44.003 38.9637C44.3137 38.9666 44.6176 38.8718 44.8724 38.6925L47.8314 36.6153L50.7933 38.6925C51.0481 38.8707 51.3515 38.9645 51.6616 38.9611C51.9717 38.9576 52.2731 38.857 52.5239 38.6731C52.7747 38.4893 52.9626 38.2314 53.0614 37.9351C53.1602 37.6388 53.1652 37.3189 53.0755 37.0196L52.0296 33.5391L54.9066 31.3448C55.1543 31.1559 55.3375 30.8939 55.4307 30.5951C55.5238 30.2964 55.5223 29.9758 55.4262 29.678C55.3302 29.3802 55.1444 29.12 54.8948 28.9335C54.6452 28.7471 54.3441 28.6437 54.0335 28.6378L50.4271 28.5616L49.2405 25.128C49.1386 24.833 48.9482 24.5773 48.6958 24.3962C48.4433 24.2152 48.1412 24.1177 47.8314 24.1173ZM12.1624 30.2081L12.2767 30.5391C12.3771 30.8298 12.5635 31.0826 12.8107 31.2633C13.0579 31.444 13.3542 31.544 13.6595 31.5499L14.0052 31.5561L13.7269 31.7699C13.4846 31.956 13.3045 32.2124 13.2107 32.5045C13.117 32.7967 13.1141 33.1108 13.2025 33.4047L13.3021 33.7416L13.0179 33.5424C12.7673 33.3665 12.4693 33.2722 12.1639 33.2722C11.8585 33.2722 11.5605 33.3665 11.3099 33.5424L11.0257 33.7416L11.1253 33.4047C11.213 33.1102 11.2093 32.7957 11.1145 32.5035C11.0197 32.2113 10.8384 31.9553 10.595 31.7699L10.3167 31.5561L10.6683 31.5499C10.9736 31.544 11.2699 31.444 11.5171 31.2633C11.7643 31.0826 11.9507 30.8298 12.0511 30.5391L12.1624 30.2081ZM47.8314 30.2143L47.9456 30.5425C48.0459 30.8327 48.2318 31.0851 48.4784 31.2658C48.7251 31.4465 49.0207 31.5467 49.3255 31.5532L49.6742 31.5623L49.3959 31.7732C49.153 31.9589 48.9723 32.2151 48.8781 32.5073C48.7838 32.7995 48.7805 33.1138 48.8685 33.408L48.9711 33.7449L48.684 33.5457C48.4337 33.3704 48.1362 33.2765 47.8315 33.2765C47.5267 33.2765 47.2292 33.3704 46.9789 33.5457L46.6918 33.7449L46.7944 33.408C46.8821 33.1135 46.8783 32.799 46.7835 32.5068C46.6888 32.2146 46.5075 31.9586 46.2641 31.7732L45.9858 31.5623L46.3374 31.5532C46.6422 31.5467 46.9379 31.4464 47.1845 31.2657C47.4312 31.085 47.6171 30.8325 47.7173 30.5422L47.8314 30.2143ZM29.9134 30.7709C25.983 30.7709 22.762 33.9789 22.762 37.9018C22.762 39.9341 23.6259 41.7737 25.0062 43.0756C20.7644 44.9512 17.7991 49.1835 17.7991 54.103V57.0356C17.7984 57.2328 17.8365 57.4282 17.9114 57.6107C17.9863 57.7932 18.0964 57.9591 18.2354 58.0989C18.3745 58.2388 18.5397 58.3499 18.7217 58.4258C18.9038 58.5017 19.099 58.541 19.2962 58.5414H40.5218C40.7198 58.5422 40.9159 58.5037 41.099 58.4283C41.282 58.3529 41.4484 58.242 41.5883 58.102C41.7283 57.962 41.8392 57.7957 41.9146 57.6126C41.99 57.4295 42.0284 57.2334 42.0276 57.0354V54.1028C42.0276 49.1833 39.0623 44.951 34.8206 43.0754C36.2008 41.7735 37.0677 39.9339 37.0677 37.9016C37.0677 33.9787 33.8437 30.7709 29.9134 30.7709ZM29.8049 33.7739C29.8409 33.773 29.8771 33.7739 29.9134 33.7739C32.2305 33.7739 34.0648 35.6084 34.0648 37.9018C34.0648 40.1952 32.2305 42.0326 29.9134 42.0326C27.5963 42.0326 25.7503 40.1952 25.7503 37.9018C25.7503 35.6442 27.5388 33.83 29.8049 33.7739ZM29.9134 45.0444C34.9929 45.0444 39.0276 49.0609 39.0276 54.103V55.5414H20.8021V54.103C20.8021 49.0609 24.8339 45.0444 29.9134 45.0444Z" fill="#00CC83"/>
</g>
<defs>
<clipPath id="clip0_513_8579">
<rect width="60" height="75" fill="white"/>
</clipPath>
</defs>
</svg>
