<svg width="46" height="58" viewBox="0 0 46 58" fill="none" xmlns="http://www.w3.org/2000/svg">
<g clip-path="url(#clip0_513_8570)">
<path d="M19.9178 34.1935C20.6323 34.1935 21.2116 33.6095 21.2116 32.8894V31.9794C24.3065 31.1462 24.7493 29.1292 24.7752 28.1627C24.8255 26.1906 23.2873 24.8286 20.1996 24.1186C19.0165 23.8462 17.6135 23.3752 17.661 22.6696C17.7501 21.3684 20.0185 21.0945 21.3611 21.0467C21.4258 21.0438 21.4962 21.0815 21.5293 21.1133C21.5638 21.1467 21.6055 21.2061 21.6055 21.2945C21.6055 22.0146 22.1848 22.5986 22.8992 22.5986C23.6137 22.5986 24.193 22.0146 24.193 21.2945C24.193 20.5222 23.8767 19.773 23.3247 19.2369C22.7684 18.695 22.0353 18.4008 21.2691 18.4399C21.2475 18.4399 21.2303 18.4428 21.2087 18.4443V17.8908C21.2087 17.1706 20.6294 16.5867 19.915 16.5867C19.2005 16.5867 18.6212 17.1706 18.6212 17.8908V18.808C15.7707 19.576 15.1568 21.3495 15.0792 22.4913C14.9383 24.5344 16.4693 25.9371 19.6232 26.6601C21.2418 27.034 22.1992 27.5686 22.1862 28.0932C22.1503 29.4958 19.3414 29.703 18.4818 29.7335C18.42 29.732 18.3294 29.6972 18.292 29.661C18.259 29.6291 18.2187 29.5697 18.2187 29.4842C18.2187 28.7641 17.6394 28.1816 16.925 28.1816C16.2105 28.1816 15.6312 28.7655 15.6312 29.4857C15.6312 30.2667 15.9388 30.9955 16.4966 31.5375C17.0242 32.0504 17.7415 32.3417 18.476 32.3417C18.5077 32.3417 18.5422 32.3417 18.5738 32.3402C18.591 32.3402 18.6054 32.3373 18.6212 32.3373V32.8865C18.6241 33.6081 19.2034 34.1935 19.9178 34.1935Z" fill="#00CC83"/>
<path d="M26.0329 41.0995H7.92043C5.85187 41.0995 4.16999 39.4041 4.16999 37.319V15.4768H9.85099C12.2933 15.4768 14.2814 13.4743 14.2814 11.011V5.26714H31.9267C33.9952 5.26714 35.6771 6.96971 35.6771 9.06352V22.8435C35.6771 23.5637 36.2564 24.1476 36.9709 24.1476C37.6853 24.1476 38.2646 23.5637 38.2646 22.8435V9.06352C38.2646 5.5323 35.4198 2.65894 31.9252 2.65894H11.6867C10.0436 2.65894 8.49399 3.30954 7.32243 4.49047L3.38368 8.46073C2.23799 9.61559 1.58105 11.2182 1.58105 12.8599V37.319C1.58105 40.843 4.42587 43.7091 7.92043 43.7091H26.0329C26.7474 43.7091 27.3267 43.1252 27.3267 42.405C27.3267 41.6849 26.7474 41.0995 26.0329 41.0995ZM5.21362 10.3039L9.15237 6.3336C9.83518 5.64532 10.7351 5.26714 11.6867 5.26714H11.6924V11.0124C11.6924 12.0369 10.8673 12.87 9.85099 12.87H4.16855V12.8599C4.16855 11.905 4.54949 10.9733 5.21362 10.3039Z" fill="#00CC83"/>
<path d="M35.9159 26.5674C31.2268 26.5674 27.4131 30.4116 27.4131 35.1382C27.4131 39.8649 31.2268 43.7091 35.9159 43.7091C40.605 43.7091 44.4187 39.8649 44.4187 35.1382C44.4187 30.4116 40.605 26.5674 35.9159 26.5674ZM35.9159 41.0994C32.6542 41.0994 30.002 38.4246 30.002 35.1382C30.002 31.8519 32.6556 29.177 35.9159 29.177C39.1761 29.177 41.8312 31.8504 41.8312 35.1382C41.8312 38.426 39.1776 41.0994 35.9159 41.0994Z" fill="#00CC83"/>
<path d="M34.4743 35.4672L34.6224 35.318V38.1102C34.6224 38.8304 35.2017 39.4143 35.9161 39.4143C36.6305 39.4143 37.2099 38.8304 37.2099 38.1102V35.318L37.3579 35.4672C37.8639 35.9802 38.6847 35.9787 39.1864 35.4687C39.6924 34.9586 39.6939 34.1342 39.1879 33.6256L36.8304 31.2478C36.5874 31.0029 36.2597 30.8638 35.9147 30.8638C35.5697 30.8638 35.2419 31.0029 34.999 31.2478L32.6415 33.6256C32.1355 34.1356 32.1369 34.9601 32.6429 35.4687C33.1489 35.9773 33.9697 35.9787 34.4743 35.4672Z" fill="#00CC83"/>
</g>
<defs>
<clipPath id="clip0_513_8570">
<rect width="46" height="57.96" fill="white"/>
</clipPath>
</defs>
</svg>
