<svg width="60" height="58" viewBox="0 0 60 58" fill="none" xmlns="http://www.w3.org/2000/svg">
<g clip-path="url(#clip0_513_8564)">
<path d="M26.8916 3.58524C26.3016 3.64086 25.8013 4.19292 25.8039 4.78561V7.31759C25.7076 7.33781 25.6198 7.3503 25.5226 7.37388C25.3125 7.42488 25.106 7.4956 24.9037 7.56142L22.4658 5.12322C22.0207 4.67336 21.2043 4.67336 20.7592 5.12322L17.1586 8.72428C16.7088 9.16938 16.7088 9.98595 17.1586 10.431L19.5028 12.7755C19.4401 12.8954 19.3436 12.982 19.2777 13.1131C19.1657 13.3359 19.0926 13.5629 18.9964 13.7883H16.2022C15.5738 13.7884 15.002 14.3602 15.002 14.9887V19.79C15.002 20.4185 15.5738 20.9904 16.2022 20.9904H19.0152C19.1088 21.2082 19.1695 21.4314 19.2777 21.6468C19.3429 21.7766 19.4407 21.8656 19.5028 21.9845L17.1586 24.3289C16.7088 24.774 16.7088 25.5906 17.1586 26.0357L20.7592 29.6367C21.2043 30.0866 22.0207 30.0866 22.4658 29.6367L24.885 27.2173C25.0913 27.2849 25.3079 27.3527 25.5226 27.4048C25.6202 27.4285 25.7072 27.4409 25.8039 27.4611V29.993C25.8039 30.6215 26.3757 31.1934 27.0041 31.1934H31.8049C32.4333 31.1934 33.0051 30.6215 33.0051 29.993V27.4611C33.1058 27.4402 33.2035 27.4295 33.3052 27.4048C33.5202 27.3526 33.7174 27.2662 33.924 27.1985L36.362 29.6367C36.8057 30.0754 37.6061 30.0754 38.0498 29.6367L41.6504 26.0357C42.1002 25.5906 42.1002 24.774 41.6504 24.3289L39.325 22.0032C39.3895 21.8801 39.4823 21.7817 39.55 21.6468C39.6587 21.4305 39.7186 21.2091 39.8126 20.9904H42.6068C43.2352 20.9904 43.807 20.4185 43.807 19.79C43.807 18.3475 43.807 16.6219 43.807 14.9887C43.816 14.3545 43.241 13.7712 42.6068 13.7712C41.9727 13.7712 41.3976 14.3545 41.4066 14.9887V18.5897H39.0062C38.4787 18.5895 37.9754 18.9791 37.8435 19.49C37.7985 19.6686 37.601 20.1646 37.3934 20.5778C37.1858 20.991 36.8913 21.4205 36.9433 21.3655C36.5206 21.8125 36.5294 22.5974 36.9621 23.0348L39.1187 25.1917L37.2059 27.086L35.0492 24.9291C34.6466 24.5308 33.9485 24.4804 33.4927 24.8165C33.4594 24.8354 33.401 24.8635 33.3239 24.8916C33.1699 24.9477 32.9558 25.0086 32.7426 25.0604C32.5294 25.1121 32.3014 25.1517 32.1425 25.1729C31.9933 25.1955 31.9592 25.1834 31.8143 25.1925C31.1935 25.2056 30.6035 25.7602 30.6047 26.392V28.7927H28.2043V26.392C28.2038 25.7652 27.6227 25.2138 27.0064 25.1956C26.8606 25.1962 26.8213 25.1832 26.6665 25.1729C26.5076 25.1517 26.2983 25.1121 26.0852 25.0604C25.872 25.0086 25.6579 24.9477 25.5038 24.8916C25.371 24.8527 25.3259 24.7968 25.2029 24.7313C24.7485 24.4827 24.1273 24.5586 23.7598 24.9291L21.6031 27.0672L19.7278 25.1917L21.8657 23.0347C22.2984 22.5973 22.3072 21.8125 21.8844 21.3655C21.9365 21.4205 21.6232 20.9909 21.4156 20.5778C21.208 20.1646 21.0105 19.6686 20.9655 19.49C20.8336 18.9791 20.3303 18.5894 19.8028 18.5897H17.4024C17.4039 17.8195 17.4009 17.033 17.4024 16.189H19.8028C20.3352 16.1872 20.8407 15.7876 20.9655 15.27C21.0105 15.0914 21.208 14.6141 21.4156 14.2009C21.6232 13.7877 21.9365 13.3581 21.8844 13.4131C22.3182 12.9645 22.3093 12.164 21.8657 11.7252L19.7278 9.587L21.6031 7.67395L23.7598 9.83083C24.1597 10.2442 24.8722 10.3036 25.335 9.96211C25.3684 9.94321 25.4268 9.89642 25.5038 9.86836C25.6578 9.8122 25.872 9.7513 26.0852 9.69954C26.2983 9.64782 26.5076 9.60817 26.6665 9.587C26.746 9.57638 26.8354 9.5846 26.8728 9.587C27.5434 9.66074 28.2083 9.0614 28.2043 8.38667V5.98594H30.6047V8.38667C30.5994 9.06843 31.2786 9.67217 31.955 9.587C31.9876 9.5846 32.063 9.57644 32.1425 9.587C32.3014 9.60818 32.5294 9.64778 32.7426 9.69954C32.9557 9.75126 33.1699 9.81222 33.3239 9.86836C33.4785 9.93318 33.3929 9.90339 33.6032 10.0103C34.0545 10.265 34.6769 10.1968 35.0492 9.83083L37.2059 7.67395L39.1187 9.587L36.9621 11.7252C36.5185 12.164 36.5096 12.9645 36.9433 13.4131C37.3973 13.8929 37.378 13.8094 37.3559 13.7695C37.6216 14.3771 38.4475 14.66 39.0298 14.3428C39.6121 14.0256 39.8226 13.1782 39.4563 12.6254C39.4563 12.6192 39.4563 12.6129 39.4563 12.6066L41.6504 10.431C42.1002 9.98592 42.1002 9.16934 41.6504 8.72425L38.0498 5.12318C37.6061 4.68448 36.8057 4.68448 36.362 5.12318L33.924 7.56138C33.7178 7.49384 33.5197 7.42593 33.3052 7.37384C33.2039 7.34924 33.1054 7.33844 33.0051 7.31756V4.78557C33.0051 4.15709 32.4333 3.58527 31.8049 3.58521C30.1719 3.5852 28.5157 3.58524 26.8916 3.58524ZM29.4045 11.9877C26.4362 11.9877 24.0035 14.4185 24.0035 17.3893C24.0035 20.3602 26.4362 22.7909 29.4045 22.7909C32.3728 22.7909 34.8055 20.3581 34.8055 17.3893C34.8055 14.4206 32.3728 11.9877 29.4045 11.9877ZM29.4045 14.3884C31.0753 14.3884 32.405 15.7178 32.405 17.3893C32.405 19.0609 31.0753 20.3902 29.4045 20.3902C27.7337 20.3902 26.404 19.0588 26.404 17.3893C26.404 15.7199 27.7337 14.3884 29.4045 14.3884ZM15.4895 30.5745C14.9679 30.6063 14.4929 31.018 14.3871 31.5298C14.2814 32.0417 14.5544 32.608 15.0207 32.8439L20.4217 35.8448C20.9715 36.1492 21.7488 35.9259 22.0532 35.3759C22.3576 34.826 22.1342 34.0486 21.5844 33.7442L16.1834 30.7433C15.9762 30.6189 15.7308 30.5592 15.4895 30.5745ZM10.6699 32.9752C10.1539 33.0208 9.6932 33.4378 9.59646 33.9468C9.49972 34.4558 9.77532 35.0128 10.2386 35.2446L18.04 39.4459C18.5965 39.7657 19.3971 39.5349 19.6982 38.968C19.9992 38.401 19.7418 37.6084 19.1652 37.3265L11.3638 33.1252C11.1545 33.0073 10.9093 32.9542 10.6699 32.9752ZM45.026 35.3947C40.314 35.3296 36.0041 37.1118 33.4365 37.7954H25.2038C24.2621 37.7954 23.3647 38.0803 22.5971 38.5269C21.8294 38.9734 21.003 39.6047 21.003 40.7963V42.5968C21.003 43.7857 21.8306 44.4192 22.5971 44.8662C23.3635 45.3133 24.262 45.5977 25.2038 45.5977H33.6052C34.2393 45.6067 34.8225 45.0316 34.8225 44.3973C34.8225 43.7631 34.2393 43.188 33.6052 43.197H25.2038C24.806 43.197 24.2117 43.0151 23.816 42.7843C23.5193 42.6113 23.4267 42.4408 23.4034 42.4843V40.9276C23.4263 40.966 23.5179 40.7636 23.816 40.59C24.2135 40.3588 24.8059 40.1961 25.2038 40.1961H33.6052C33.7063 40.1963 33.8074 40.1835 33.9053 40.1583C36.8093 39.4052 40.8655 37.7383 44.9885 37.7951C46.3557 37.8137 47.6806 37.8504 48.7392 38.3016C51.2731 39.3824 53.7254 40.2306 54.7215 40.6835C55.2954 40.9353 56.0464 40.6445 56.3009 40.0716C56.5554 39.4989 56.2681 38.7464 55.6966 38.4891C54.4263 37.9115 52.1153 37.1286 49.6768 36.0884C48.0353 35.3891 46.3747 35.4131 45.026 35.3947ZM6.73175 36.5575C6.49664 36.5635 6.26429 36.6013 6.01913 36.6888C5.52881 36.8637 5.19564 37.2049 4.96894 37.4953C4.74225 37.7857 4.58575 38.0589 4.40634 38.3393C4.32219 38.4397 4.26835 38.573 4.20787 38.6755C4.05507 38.9566 3.92669 39.1996 3.80624 39.4834C3.65021 39.8509 3.50459 40.4389 3.71247 40.9838C3.92036 41.5288 4.28071 41.8221 4.63138 42.0904C4.98206 42.3588 5.39273 42.6233 5.94412 42.9906C9.08481 44.9628 11.985 47.0942 14.6456 48.7862C16.3357 49.8549 18.0264 50.8478 19.6153 51.5807C21.1838 52.3043 22.6191 52.8076 24.0035 52.7623C24.0215 52.7617 24.0419 52.7623 24.0598 52.7623C32.5214 52.7623 36.5883 52.3676 46.2075 52.1997H46.2262C50.3379 52.1997 51.9878 52.6424 53.4128 52.7433C53.6607 52.7589 53.8042 52.768 54.0088 52.7812C54.1601 52.7962 54.4238 52.7697 54.6064 52.7075C55.0699 52.5872 55.3996 52.3008 55.6591 52.0309C56.0508 51.6236 56.4093 51.2105 56.4093 50.3992V44.3974C56.4182 43.7633 55.8432 43.18 55.2091 43.18C54.5749 43.18 53.9999 43.7633 54.0088 44.3974V50.2304C53.9999 50.2544 53.9755 50.337 53.9338 50.3804C53.1023 50.3666 51.0161 49.799 46.2075 49.799C46.2012 49.799 46.195 49.799 46.1887 49.799C36.4751 49.9681 32.445 50.3617 24.0036 50.3617C23.9911 50.3615 23.9785 50.3615 23.966 50.3617C23.309 50.3899 22.0572 50.0643 20.628 49.4051C19.1987 48.7458 17.562 47.7984 15.9209 46.7606C12.9291 44.9617 10.1386 42.7589 7.2381 40.9651C6.71979 40.62 6.35294 40.3631 6.13165 40.1962C6.18607 40.0309 6.27318 39.8716 6.46921 39.5584C6.56767 39.3671 6.8128 39.0166 6.84428 39.0145C6.90332 39.0391 7.1835 39.0904 7.8382 39.4459C11.2671 41.1693 14.586 42.9753 17.5149 44.2849C18.0888 44.5367 18.8398 44.2459 19.0943 43.673C19.3489 43.1002 19.0615 42.3478 18.4901 42.0904C15.1733 40.6175 11.8788 38.8068 8.9634 37.3266C8.41324 37.0281 7.91878 36.7784 7.44438 36.6514C7.20473 36.5871 6.96686 36.554 6.73175 36.5575Z" fill="#00CC83"/>
</g>
<defs>
<clipPath id="clip0_513_8564">
<rect width="60" height="57.6" fill="white"/>
</clipPath>
</defs>
</svg>
