<svg width="58" height="50" viewBox="0 0 58 50" fill="none" xmlns="http://www.w3.org/2000/svg">
<path d="M25.6798 0.681461C25.4469 0.705111 25.2249 0.792208 25.038 0.933257C24.8511 1.07431 24.7065 1.26389 24.6198 1.48142L23.5998 4.04138C14.7948 5.55189 8.67508 11.6069 5.97984 19.8809H2.11984C1.78038 19.8809 1.45482 20.0158 1.21478 20.2558C0.974746 20.4959 0.839878 20.8214 0.839844 21.1609V27.5607C0.839885 27.9002 0.974756 28.2257 1.21479 28.4657C1.45483 28.7057 1.78038 28.8406 2.11984 28.8406H5.95984H11.7198H46.2798H52.0398H55.8798C56.2193 28.8406 56.5449 28.7057 56.7849 28.4657C57.0249 28.2257 57.1598 27.9002 57.1598 27.5607V21.1609C57.1598 20.8214 57.0249 20.4959 56.7849 20.2558C56.5449 20.0158 56.2193 19.8809 55.8798 19.8809H52.0198C49.3246 11.6069 43.2049 5.55189 34.3998 4.04138L33.3798 1.48142C33.2846 1.24611 33.1216 1.04445 32.9115 0.902007C32.7014 0.759564 32.4537 0.682786 32.1998 0.681461H25.7998C25.7599 0.679585 25.7198 0.679585 25.6798 0.681461ZM26.6598 3.24138H31.3398L32.1998 5.38134V11.5611C32.1975 11.7308 32.2288 11.8991 32.292 12.0565C32.3553 12.2139 32.4492 12.3572 32.5683 12.4779C32.6874 12.5987 32.8293 12.6947 32.9858 12.7601C33.1423 12.8256 33.3102 12.8593 33.4798 12.8593C33.6495 12.8593 33.8174 12.8256 33.9739 12.7601C34.1304 12.6947 34.2723 12.5987 34.3914 12.4779C34.5105 12.3572 34.6044 12.2139 34.6676 12.0565C34.7309 11.8991 34.7622 11.7308 34.7598 11.5611V6.6813C42.5284 8.28653 47.6595 13.7394 49.8998 21.5009C49.9737 21.7687 50.1326 22.0052 50.3527 22.1748C50.5728 22.3444 50.842 22.4378 51.1198 22.4408H54.5998V26.2807H52.0398H46.2798H11.7198H5.95984H3.39984V22.4408H6.87984C7.15766 22.4378 7.42693 22.3444 7.64702 22.1748C7.8671 22.0052 8.02604 21.7687 8.09984 21.5009C10.3402 13.7394 15.4713 8.28653 23.2398 6.6813V11.5611C23.2375 11.7308 23.2688 11.8991 23.332 12.0565C23.3953 12.2139 23.4892 12.3572 23.6083 12.4779C23.7274 12.5987 23.8693 12.6947 24.0258 12.7601C24.1823 12.8256 24.3502 12.8593 24.5198 12.8593C24.6895 12.8593 24.8574 12.8256 25.0139 12.7601C25.1704 12.6947 25.3123 12.5987 25.4314 12.4779C25.5505 12.3572 25.6444 12.2139 25.7076 12.0565C25.7709 11.8991 25.8022 11.7308 25.7998 11.5611V5.38134L26.6598 3.24138ZM7.11984 31.4006C6.80159 31.4305 6.50607 31.5785 6.29141 31.8154C6.07675 32.0523 5.95847 32.3609 5.95984 32.6805V33.9605H2.11984C1.78038 33.9605 1.45483 34.0954 1.21479 34.3354C0.974756 34.5755 0.839885 34.901 0.839844 35.2404V41.6403C0.839868 41.9797 0.974731 42.3052 1.21477 42.5453C1.45481 42.7853 1.78037 42.9202 2.11984 42.9203H5.95984V44.8402C5.96256 45.1786 6.09919 45.5022 6.33984 45.7401L9.53984 48.94C9.77781 49.1807 10.1014 49.3173 10.4398 49.32H24.5198C24.758 49.318 24.9909 49.2495 25.1923 49.1223C25.3937 48.9951 25.5556 48.8142 25.6598 48.6L28.8598 42.2003L28.9998 41.9203L29.1398 42.2003L32.3398 48.6C32.4441 48.8142 32.606 48.9951 32.8074 49.1223C33.0088 49.2495 33.2417 49.318 33.4798 49.32H47.5598C47.8983 49.3173 48.2219 49.1807 48.4598 48.94L51.6598 45.7401C51.9005 45.5022 52.0371 45.1786 52.0398 44.8402V42.9203H55.8798C56.2193 42.9202 56.5449 42.7853 56.7849 42.5453C57.025 42.3052 57.1598 41.9797 57.1598 41.6403V35.2404C57.1598 34.901 57.0249 34.5755 56.7849 34.3354C56.5449 34.0954 56.2193 33.9605 55.8798 33.9605H52.0398V32.6805C52.0398 32.3411 51.9049 32.0155 51.6649 31.7755C51.4249 31.5355 51.0993 31.4006 50.7598 31.4006H28.9998H7.23984C7.19987 31.3987 7.15982 31.3987 7.11984 31.4006ZM8.51984 33.9605H28.9998H49.4798V35.2404C49.4799 35.5799 49.6147 35.9055 49.8548 36.1455C50.0948 36.3856 50.4204 36.5204 50.7598 36.5204H54.5998V40.3603H50.7598C50.4204 40.3603 50.0948 40.4952 49.8548 40.7352C49.6148 40.9752 49.4799 41.3008 49.4798 41.6403V44.3002L47.0198 46.7601H34.2798L31.4198 41.0603L30.1398 38.5004C30.0326 38.2903 29.8693 38.114 29.6681 37.9909C29.467 37.8677 29.2357 37.8026 28.9998 37.8026C28.764 37.8026 28.5327 37.8677 28.3315 37.9909C28.1304 38.114 27.9671 38.2903 27.8598 38.5004L26.5798 41.0603L23.7198 46.7601H10.9798L8.51984 44.3002V41.6403C8.5198 41.3008 8.38493 40.9752 8.14489 40.7352C7.90486 40.4952 7.57931 40.3603 7.23984 40.3603H3.39984V36.5204H7.23984C7.57932 36.5204 7.90488 36.3856 8.14492 36.1455C8.38496 35.9055 8.51982 35.5799 8.51984 35.2404V33.9605Z" fill="#00CC83"/>
</svg>
