<svg width="46" height="50" viewBox="0 0 46 50" fill="none" xmlns="http://www.w3.org/2000/svg">
<g id="Group">
<g id="Group_2">
<path id="Vector" d="M26.4773 2.65674L25.9341 4.12158C25.9341 4.12158 26.3707 4.2839 26.9045 4.51526C27.4383 4.74663 28.0779 5.06637 28.3541 5.26599C29.3925 6.01643 30.3491 6.89436 30.9054 7.90881C31.2312 8.50299 31.5649 9.76465 31.766 10.8232C31.967 11.8818 32.0681 12.752 32.0681 12.752C32.0837 12.8874 32.1344 13.0164 32.2152 13.1261C32.2961 13.2359 32.4042 13.3225 32.5289 13.3776L33.0233 13.5973L32.9288 14.5464L31.2167 15.3765L14.606 14.8333L12.9001 14.583L12.656 13.5881L13.4738 12.9991C13.5717 12.9284 13.6519 12.8359 13.708 12.7289C13.7641 12.622 13.7947 12.5035 13.7973 12.3827C13.7973 12.3827 13.8098 11.8964 13.8645 11.2993C13.9193 10.7022 14.0414 9.97742 14.1575 9.68494C14.6741 8.38273 15.5977 7.17678 16.6629 6.16626C17.0373 5.81115 17.8662 5.2684 18.5703 4.86011C19.2744 4.4518 19.8612 4.15515 19.8612 4.15515L19.1562 2.7605C19.1562 2.7605 18.5316 3.07579 17.786 3.50818C17.0404 3.94057 16.1796 4.46758 15.5857 5.03101C14.399 6.15668 13.3329 7.52525 12.7048 9.10815C12.4523 9.74456 12.3683 10.5036 12.3081 11.1589C12.2681 11.5941 12.2673 11.7417 12.2593 11.9493L11.3163 12.6299C11.1904 12.7207 11.0944 12.8471 11.0406 12.9928C10.9868 13.1384 10.9776 13.2968 11.0142 13.4478L11.5056 15.465C11.5429 15.6159 11.6243 15.7523 11.7396 15.8567C11.8548 15.9611 11.9986 16.0287 12.1525 16.0509L14.423 16.3835C14.4523 16.3883 14.4818 16.3915 14.5115 16.3929L31.3602 16.9453C31.4869 16.9489 31.6126 16.9217 31.7264 16.8659L34.003 15.7612C34.1232 15.7029 34.2264 15.6148 34.3028 15.5053C34.3792 15.3957 34.4263 15.2684 34.4395 15.1356L34.6348 13.1885C34.6515 13.0246 34.6159 12.8596 34.5331 12.717C34.4503 12.5745 34.3246 12.4618 34.1739 12.3951L33.5483 12.1204C33.5122 11.8289 33.4668 11.4024 33.3011 10.5305C33.0882 9.40918 32.7965 8.1048 32.2757 7.15522C31.5445 5.82175 30.4017 4.81781 29.2698 3.9997C28.7656 3.63536 28.102 3.33025 27.5272 3.08112C26.9524 2.832 26.4773 2.65674 26.4773 2.65674Z" fill="#00CC83"/>
<path id="Vector_2" d="M22.8775 0.834841C22.0345 0.825466 21.1924 0.995424 20.4361 1.32617C19.6488 1.67044 19.1104 2.34416 18.84 3.08704C18.4874 4.05574 18.7303 4.98191 18.8797 5.69019C19.0284 6.39506 19.3695 7.21113 19.6762 7.89966C19.9829 8.58818 20.2591 9.12952 20.2591 9.12952C20.303 9.22524 20.3657 9.31111 20.4436 9.38196C20.5215 9.45281 20.6129 9.50716 20.7123 9.54179C20.8118 9.57643 20.9172 9.59064 21.0222 9.58352C21.1273 9.57639 21.2298 9.5481 21.3237 9.50035C21.4175 9.45261 21.5007 9.38638 21.5683 9.30566C21.6359 9.22494 21.6865 9.13139 21.7171 9.03062C21.7476 8.92986 21.7575 8.82397 21.7461 8.7193C21.7347 8.61462 21.7022 8.51333 21.6507 8.42151C21.6507 8.42151 21.3935 7.91062 21.1044 7.26184C20.8154 6.61305 20.5008 5.80358 20.4086 5.3667C20.2586 4.65539 20.1643 4.01574 20.3078 3.6211C20.4389 3.26106 20.7735 2.88343 21.0616 2.75745C22.1223 2.29362 23.6073 2.29731 24.6047 2.80618C24.9516 2.98321 25.3205 3.49184 25.45 3.97195C25.5947 4.50831 25.3428 5.30714 25.1296 6.25467C24.9921 6.8654 24.4063 8.38174 24.4063 8.38174C24.3684 8.47713 24.3497 8.57905 24.3512 8.68167C24.3527 8.78429 24.3744 8.88561 24.4151 8.97984C24.4558 9.07407 24.5146 9.1594 24.5882 9.23089C24.6619 9.30239 24.7488 9.35867 24.8442 9.39655C24.9396 9.43442 25.0415 9.45314 25.1442 9.45162C25.2468 9.45011 25.3481 9.4284 25.4423 9.38773C25.5366 9.34705 25.6218 9.28822 25.6933 9.21459C25.7648 9.14095 25.8211 9.05392 25.859 8.95852C25.859 8.95852 26.4462 7.52978 26.6555 6.59952C26.834 5.80614 27.2778 4.75252 26.9576 3.56607C26.7274 2.7128 26.199 1.8653 25.3158 1.41458C24.5636 1.03078 23.7205 0.843825 22.8775 0.834841Z" fill="#00CC83"/>
<path id="Vector_3" d="M12.8591 15.0927C12.8591 15.0927 12.6563 15.3847 12.4349 15.7579C12.2135 16.1312 11.9596 16.5567 11.8459 17.0671C11.6031 18.1573 11.697 19.2866 11.9862 20.3112C12.1703 20.9631 12.448 21.7558 13.1398 22.3253C13.5167 22.6357 13.8881 22.6398 14.0797 22.6641C14.2713 22.6883 14.2717 22.7292 14.1803 22.6458C14.7248 23.1434 15.0044 23.9316 15.2606 24.9102C15.5169 25.8888 15.7317 27.022 16.4051 28.026C17.2141 29.2325 18.2135 30.5304 19.6613 31.2884C20.8324 31.9015 22.189 32.0863 23.4516 31.9598C25.0521 31.7993 26.7317 31.2562 28.0231 30.1562C29.2711 29.0931 29.7028 27.5706 30.2539 26.4513C30.6205 25.7068 30.7728 24.947 30.9558 24.2968C31.1389 23.6466 31.3428 23.131 31.676 22.777C31.6592 22.7948 31.7375 22.7384 31.9721 22.6701C32.2067 22.602 32.5861 22.5284 32.9486 22.194C33.6046 21.5891 33.9764 20.7972 34.2029 20.0487C34.4485 19.237 34.485 18.3796 34.3646 17.5676C34.2901 17.0648 34.0918 16.5768 33.913 16.1546C33.7342 15.7324 33.5681 15.4008 33.5681 15.4008L32.1674 16.0966C32.1674 16.0966 32.3141 16.3906 32.4726 16.765C32.6311 17.1393 32.7941 17.6183 32.8205 17.7965C32.9098 18.3991 32.8761 19.0399 32.7075 19.597C32.5338 20.1711 32.2495 20.7117 31.8896 21.0435C31.8959 21.0373 31.7851 21.0992 31.5356 21.1717C31.2861 21.2442 30.8862 21.3356 30.5377 21.7058C29.9187 22.3633 29.6536 23.1536 29.4513 23.8725C29.2489 24.5913 29.1002 25.2598 28.8531 25.7615C28.2237 27.0399 27.7964 28.2959 27.0099 28.9658C26.043 29.7894 24.647 30.2709 23.2959 30.4063C22.3029 30.5059 21.2246 30.341 20.3875 29.9027C19.3407 29.3546 18.4613 28.2883 17.702 27.1562C17.2609 26.4984 17.0411 25.5471 16.7712 24.5164C16.5014 23.4857 16.1655 22.3443 15.2331 21.4921C14.8651 21.1557 14.4769 21.1393 14.2749 21.1137C14.0728 21.088 14.0439 21.0477 14.1314 21.1199C13.8687 20.9036 13.6425 20.4249 13.4906 19.887C13.2605 19.0723 13.1989 18.1814 13.3715 17.4059C13.3965 17.2941 13.5888 16.8724 13.7774 16.5545C13.966 16.2365 14.1375 15.9899 14.1375 15.9899L12.8591 15.0927Z" fill="#00CC83"/>
<path id="Vector_4" d="M18.496 28.7371L16.9335 28.7402C16.9335 28.7402 16.9342 29.2326 16.8816 29.8327C16.8289 30.4329 16.6855 31.1573 16.5672 31.3952C16.3278 31.877 15.8699 32.3332 15.3679 32.6128C13.7902 33.4917 11.5971 33.3836 9.38341 33.919C8.40233 34.1563 7.06757 34.1257 5.84337 34.8742C4.48663 35.7038 3.4014 36.969 2.71837 38.3746C1.91006 40.0379 1.50425 42.4785 1.24742 44.5605C0.990593 46.6425 0.91478 48.3508 0.91478 48.3508C0.910259 48.4562 0.927139 48.5614 0.964371 48.6601C1.0016 48.7588 1.05843 48.8489 1.13143 48.925C1.20443 49.0011 1.29208 49.0617 1.38911 49.1031C1.48615 49.1444 1.59055 49.1657 1.69603 49.1656H44.3047C44.4233 49.1654 44.5403 49.1382 44.6468 49.0861C44.7533 49.034 44.8466 48.9583 44.9195 48.8648C44.9925 48.7713 45.0432 48.6623 45.0678 48.5463C45.0924 48.4303 45.0902 48.3102 45.0615 48.1952C45.0615 48.1952 43.5231 41.9692 43.0016 38.8965C42.7588 37.4662 41.9066 36.0303 40.7097 35.097C39.3814 34.0612 37.7558 34.0774 36.5898 33.7817C34.3652 33.2175 32.1721 33.4503 30.6267 32.6098C30.1315 32.3405 29.6748 31.8809 29.4335 31.3952C29.3152 31.1572 29.1718 30.4329 29.1191 29.8327C29.0665 29.2325 29.0641 28.7402 29.0641 28.7402L27.5016 28.7371C27.5016 28.7371 27.5004 29.2949 27.5596 29.97C27.6188 30.645 27.7004 31.4223 28.0326 32.0909C28.436 32.9026 29.1016 33.5603 29.8789 33.983C32.0057 35.1396 34.378 34.8319 36.2052 35.2953C37.6294 35.6565 38.9694 35.7224 39.7483 36.3298C40.5873 36.984 41.2994 38.1923 41.4634 39.1588C41.9545 42.0524 43.0712 46.5462 43.3311 47.603H2.5474C2.57646 47.0814 2.60427 46.3175 2.79764 44.7496C3.04628 42.734 3.5027 40.339 4.12513 39.0581C4.68199 37.9122 5.59776 36.858 6.66117 36.2078C7.38509 35.7651 8.5112 35.7352 9.74952 35.4357C11.6393 34.9786 14.0172 35.1557 16.1277 33.98C16.8913 33.5546 17.5596 32.9064 17.9649 32.0909C18.2972 31.4223 18.3787 30.6451 18.4379 29.97C18.4971 29.2949 18.496 28.7371 18.496 28.7371Z" fill="#00CC83"/>
<path id="Vector_5" d="M16.9167 32.152L15.9219 33.3574C15.9219 33.3574 16.3864 33.7405 16.9869 34.1844C17.5875 34.6284 18.3011 35.1335 18.9614 35.4235C20.1864 35.9614 21.5569 36.3511 22.9684 36.342C24.4898 36.3311 25.9476 35.8769 27.2561 35.3014C27.8632 35.0344 28.5223 34.5802 29.078 34.1814C29.6337 33.7826 30.0668 33.4398 30.0668 33.4398L29.0902 32.2161C29.0902 32.2161 28.6895 32.5381 28.1686 32.9119C27.6477 33.2857 26.9873 33.7119 26.6274 33.8701C25.4354 34.3944 24.1664 34.7712 22.9562 34.7795C21.8449 34.7874 20.675 34.4686 19.5901 33.9922C19.1943 33.8184 18.4783 33.3469 17.9147 32.9302C17.351 32.5135 16.9167 32.152 16.9167 32.152Z" fill="#00CC83"/>
<path id="Vector_6" d="M38.0089 41.527C38.0089 41.527 31.0832 41.601 27.6116 41.6643C21.1352 41.7823 8.19934 42.1129 8.19934 42.1129C7.99587 42.1185 7.80263 42.2033 7.66071 42.3492C7.51879 42.4951 7.4394 42.6906 7.43945 42.8942V48.3141H9.00195V43.6571C9.95067 43.6329 21.4322 43.3398 27.639 43.2268C30.8271 43.1687 36.2844 43.1088 37.2185 43.0987L37.0965 48.5064L38.659 48.54L38.7993 42.3236C38.8013 42.2189 38.7823 42.1149 38.7434 42.0178C38.7045 41.9206 38.6464 41.8323 38.5727 41.758C38.499 41.6837 38.4111 41.625 38.3142 41.5853C38.2174 41.5456 38.1136 41.5257 38.0089 41.527Z" fill="#00CC83"/>
<path id="Vector_7" d="M31.1584 33.9434L31.0547 42.47L32.6172 42.4882L32.7209 33.9616L31.1584 33.9434Z" fill="#00CC83"/>
<path id="Vector_8" d="M34.749 34.4194L34.5781 42.4974L36.1376 42.5311L36.3115 34.4531L34.749 34.4194Z" fill="#00CC83"/>
<path id="Vector_9" d="M10.8789 34.5842L9.31641 34.5873L9.34077 42.8149L10.9033 42.8118L10.8789 34.5842Z" fill="#00CC83"/>
<path id="Vector_10" d="M13.1738 34.1173L13.125 42.7355L14.6875 42.7449L14.7363 34.1267L13.1738 34.1173Z" fill="#00CC83"/>
<path id="Vector_11" d="M17.401 6.74912C17.3232 6.7525 17.2481 6.77911 17.1855 6.82551C17.1228 6.8719 17.0755 6.93596 17.0496 7.00947C17.0237 7.08298 17.0203 7.16255 17.04 7.23797C17.0596 7.31339 17.1014 7.38122 17.16 7.43271L18.3074 8.48252C18.3446 8.52075 18.3892 8.55095 18.4384 8.5713C18.4877 8.59165 18.5407 8.6017 18.594 8.60082C18.6473 8.59994 18.6999 8.58816 18.7484 8.5662C18.797 8.54424 18.8406 8.5126 18.8765 8.47317C18.9124 8.43374 18.9398 8.38737 18.9571 8.33694C18.9744 8.2865 18.9812 8.23302 18.977 8.17987C18.9729 8.12671 18.9579 8.075 18.933 8.02785C18.9081 7.9807 18.8739 7.93914 18.8323 7.90573L17.6849 6.85593C17.6471 6.8201 17.6025 6.79217 17.5537 6.77382C17.505 6.75546 17.4531 6.74711 17.401 6.74912Z" fill="#00CC83"/>
<path id="Vector_12" d="M16.0665 7.40835C15.9884 7.40951 15.9125 7.43401 15.8485 7.47873C15.7845 7.52346 15.7354 7.58635 15.7075 7.65926C15.6795 7.73218 15.6741 7.81183 15.6919 7.88786C15.7097 7.96389 15.7498 8.03284 15.8071 8.08584L17.8823 10.0878C17.9194 10.1235 17.9631 10.1515 18.011 10.1703C18.0589 10.1891 18.11 10.1982 18.1615 10.1972C18.2129 10.1962 18.2637 10.1851 18.3108 10.1645C18.3579 10.1439 18.4006 10.1142 18.4363 10.0772C18.4719 10.0401 18.4999 9.99637 18.5187 9.94846C18.5375 9.90056 18.5466 9.84941 18.5456 9.79797C18.5446 9.74654 18.5335 9.69577 18.5129 9.64863C18.4923 9.60149 18.4626 9.55889 18.4255 9.52322L16.3503 7.52127C16.313 7.48434 16.2687 7.45532 16.2199 7.43591C16.1712 7.4165 16.119 7.40715 16.0665 7.40835Z" fill="#00CC83"/>
<path id="Vector_13" d="M15.4552 8.89761C15.3771 8.89877 15.3012 8.92331 15.2372 8.96804C15.1732 9.01277 15.1241 9.07561 15.0961 9.14852C15.0682 9.22144 15.0628 9.30109 15.0806 9.37712C15.0983 9.45315 15.1384 9.5221 15.1958 9.5751L16.9536 11.2597C16.9907 11.2953 17.0344 11.3234 17.0823 11.3422C17.1302 11.3609 17.1813 11.3701 17.2328 11.3691C17.2842 11.3681 17.3349 11.357 17.3821 11.3364C17.4292 11.3158 17.4719 11.2861 17.5075 11.249C17.5432 11.212 17.5712 11.1682 17.59 11.1203C17.6087 11.0724 17.6179 11.0213 17.6169 10.9698C17.6159 10.9184 17.6048 10.8676 17.5842 10.8205C17.5636 10.7734 17.5339 10.7308 17.4968 10.6951L15.739 9.01053C15.7017 8.9736 15.6573 8.94458 15.6086 8.92517C15.5598 8.90576 15.5076 8.89641 15.4552 8.89761Z" fill="#00CC83"/>
<path id="Vector_14" d="M14.9371 10.4601C14.856 10.4578 14.7762 10.4808 14.7087 10.5258C14.6413 10.5709 14.5896 10.6359 14.5607 10.7117C14.5318 10.7875 14.5273 10.8704 14.5477 10.9489C14.5681 11.0274 14.6125 11.0977 14.6746 11.1498L16.4813 12.7123C16.5196 12.7481 16.5647 12.7757 16.614 12.7937C16.6633 12.8116 16.7156 12.8194 16.768 12.8167C16.8203 12.8139 16.8716 12.8007 16.9187 12.7777C16.9659 12.7548 17.0079 12.7226 17.0423 12.683C17.0767 12.6435 17.1028 12.5974 17.119 12.5476C17.1353 12.4977 17.1413 12.4452 17.1368 12.3929C17.1323 12.3407 17.1173 12.2899 17.0928 12.2436C17.0683 12.1973 17.0346 12.1564 16.994 12.1233L15.1873 10.5608C15.1185 10.4986 15.0298 10.4629 14.9371 10.4601Z" fill="#00CC83"/>
<path id="Vector_15" d="M3.39008 45.8269C3.30228 45.8314 3.21857 45.8654 3.15249 45.9234C3.08642 45.9814 3.04185 46.06 3.02596 46.1465C3.01008 46.233 3.02382 46.3222 3.06497 46.3999C3.10612 46.4776 3.17227 46.5392 3.25272 46.5746L4.30863 47.0568C4.35575 47.0834 4.40791 47.1001 4.46179 47.1055C4.51567 47.111 4.57009 47.1051 4.6216 47.0884C4.67311 47.0717 4.72058 47.0445 4.76101 47.0085C4.80143 46.9724 4.83394 46.9284 4.85645 46.8791C4.87895 46.8299 4.89096 46.7765 4.89173 46.7224C4.8925 46.6682 4.88202 46.6145 4.86093 46.5646C4.83983 46.5148 4.8086 46.4698 4.76921 46.4326C4.72982 46.3955 4.68313 46.3669 4.63212 46.3488L3.57928 45.8635C3.52025 45.8357 3.45521 45.8231 3.39008 45.8269Z" fill="#00CC83"/>
<path id="Vector_16" d="M3.34335 44.2553C3.25897 44.2621 3.17909 44.2962 3.11576 44.3524C3.05243 44.4086 3.00908 44.4839 2.99221 44.5668C2.97534 44.6498 2.98587 44.736 3.02223 44.8124C3.05859 44.8889 3.11881 44.9515 3.19382 44.9907L4.88449 45.9215C4.92938 45.9464 4.97871 45.9621 5.02969 45.9679C5.08067 45.9737 5.13228 45.9694 5.18159 45.9552C5.23089 45.941 5.27695 45.9173 5.31708 45.8853C5.35721 45.8534 5.39065 45.8138 5.4155 45.7689C5.44035 45.724 5.45612 45.6747 5.46189 45.6237C5.46767 45.5728 5.46336 45.5211 5.44919 45.4718C5.43502 45.4225 5.41127 45.3765 5.37931 45.3363C5.34735 45.2962 5.3078 45.2628 5.26291 45.2379L3.56918 44.3071C3.50088 44.2674 3.42215 44.2493 3.34335 44.2553Z" fill="#00CC83"/>
<path id="Vector_17" d="M3.71375 42.7019C3.6331 42.7111 3.55729 42.7452 3.49689 42.7994C3.43648 42.8536 3.39446 42.9253 3.37668 43.0045C3.35889 43.0837 3.36623 43.1665 3.39766 43.2413C3.42908 43.3162 3.48302 43.3794 3.55201 43.4222L5.48377 44.6673C5.57118 44.7235 5.67735 44.7428 5.77893 44.7207C5.88052 44.6987 5.96921 44.6372 6.02546 44.5498C6.08171 44.4624 6.10095 44.3562 6.07891 44.2546C6.05688 44.153 5.99538 44.0643 5.90797 44.0081L3.97315 42.766C3.8969 42.7148 3.80506 42.6921 3.71375 42.7019Z" fill="#00CC83"/>
<path id="Vector_18" d="M4.1326 41.0417C4.05115 41.0426 3.97201 41.0689 3.90625 41.117C3.84049 41.1651 3.79138 41.2325 3.76582 41.3098C3.74026 41.3872 3.73952 41.4706 3.7637 41.5483C3.78788 41.6261 3.83577 41.6944 3.90067 41.7437L5.55777 43.0559C5.59805 43.0878 5.6442 43.1114 5.6936 43.1254C5.74301 43.1395 5.7947 43.1436 5.84571 43.1376C5.89672 43.1317 5.94606 43.1157 5.99091 43.0907C6.03576 43.0657 6.07523 43.0321 6.10709 42.9918C6.13895 42.9515 6.16257 42.9054 6.17659 42.856C6.19061 42.8066 6.19477 42.7549 6.18882 42.7039C6.18287 42.6529 6.16692 42.6036 6.1419 42.5587C6.11688 42.5139 6.08328 42.4744 6.043 42.4425L4.3859 41.1302C4.31455 41.0718 4.22483 41.0404 4.1326 41.0417Z" fill="#00CC83"/>
<path id="Vector_19" d="M4.73603 39.4884C4.65842 39.4923 4.58376 39.5193 4.52158 39.5659C4.4594 39.6126 4.41252 39.6767 4.38697 39.7501C4.36141 39.8234 4.35832 39.9028 4.3781 39.978C4.39788 40.0531 4.43962 40.1207 4.498 40.172L6.01472 41.5514C6.09121 41.6214 6.19237 41.6581 6.29596 41.6535C6.39955 41.649 6.49708 41.6034 6.56709 41.5269C6.6371 41.4505 6.67385 41.3493 6.66928 41.2457C6.6647 41.1421 6.61916 41.0446 6.54267 40.9746L5.0229 39.5921C4.98449 39.5565 4.93929 39.5289 4.89 39.5111C4.84072 39.4933 4.78836 39.4855 4.73603 39.4884Z" fill="#00CC83"/>
<path id="Vector_20" d="M5.53909 38.109C5.46153 38.1114 5.38642 38.1367 5.32334 38.1819C5.26026 38.2271 5.21206 38.29 5.18489 38.3627C5.15772 38.4354 5.15281 38.5145 5.17078 38.59C5.18875 38.6654 5.22879 38.7339 5.28579 38.7865L6.595 40.0286C6.63226 40.0641 6.67616 40.0918 6.72417 40.1104C6.77218 40.1289 6.82336 40.1378 6.8748 40.1365C6.92624 40.1352 6.97692 40.1238 7.02396 40.103C7.07099 40.0821 7.11347 40.0522 7.14894 40.0149C7.18441 39.9776 7.21219 39.9337 7.23069 39.8857C7.2492 39.8377 7.25805 39.7865 7.25677 39.7351C7.2555 39.6836 7.2441 39.633 7.22323 39.5859C7.20236 39.5389 7.17243 39.4964 7.13516 39.461L5.8229 38.2189C5.78535 38.1825 5.74088 38.1541 5.69213 38.1352C5.64338 38.1163 5.59134 38.1074 5.53909 38.109Z" fill="#00CC83"/>
<path id="Vector_21" d="M6.70014 37.044C6.62594 37.0479 6.5544 37.0729 6.4939 37.1161C6.43341 37.1592 6.38647 37.2187 6.3586 37.2876C6.33073 37.3564 6.32308 37.4318 6.33655 37.5049C6.35001 37.578 6.38404 37.6457 6.43463 37.7001L7.36542 38.7347C7.3987 38.7761 7.44008 38.8103 7.48704 38.8352C7.534 38.8601 7.58555 38.8752 7.63853 38.8795C7.69151 38.8838 7.74481 38.8772 7.79517 38.8602C7.84552 38.8432 7.89187 38.816 7.93138 38.7805C7.97089 38.7449 8.00274 38.7017 8.02496 38.6534C8.04717 38.6051 8.0593 38.5528 8.0606 38.4996C8.0619 38.4465 8.05232 38.3937 8.03249 38.3443C8.01266 38.295 7.98298 38.2503 7.94525 38.2128L7.01447 37.1783C6.97567 37.1336 6.92721 37.0982 6.87275 37.075C6.8183 37.0517 6.75928 37.0411 6.70014 37.044Z" fill="#00CC83"/>
</g>
</g>
</svg>
