<svg width="48" height="46" viewBox="0 0 48 46" fill="none" xmlns="http://www.w3.org/2000/svg">
<path d="M13.436 11.5395C13.937 11.4724 14.3962 11.2243 14.727 10.842C15.0577 10.4596 15.2372 9.96951 15.2315 9.464C15.255 8.1265 15.7815 7.864 16.6815 7.864C16.9027 7.8666 17.1181 7.93505 17.3002 8.06062C17.4823 8.18619 17.6229 8.36318 17.704 8.569C17.8088 8.79957 17.8445 9.05563 17.8067 9.30609C17.7689 9.55656 17.6592 9.79066 17.491 9.98L15.982 11.675C15.1198 12.6407 14.644 13.8904 14.6455 15.185C14.6469 15.3316 14.6648 15.4775 14.699 15.62L14.705 15.65C14.705 15.6585 14.708 15.6665 14.71 15.675C14.712 15.6835 14.717 15.6875 14.719 15.695C14.739 15.7668 14.7696 15.8353 14.81 15.898V15.9025C14.8522 15.9623 14.9027 16.0159 14.96 16.0615C14.9705 16.07 14.9795 16.0785 14.99 16.086C15.0465 16.1281 15.1088 16.1618 15.175 16.186C15.1875 16.191 15.2 16.194 15.2125 16.198C15.2842 16.2216 15.359 16.2341 15.4345 16.235H17.8595C18.0342 16.2347 18.2033 16.1735 18.3377 16.0619C18.472 15.9502 18.5632 15.7952 18.5955 15.6235L18.5985 15.6155C18.6244 15.4914 18.6394 15.3652 18.6435 15.2385C18.6393 14.9223 18.744 14.6142 18.94 14.366L20.4785 12.645C21.1598 11.8853 21.6062 10.9443 21.7635 9.93608C21.9207 8.92781 21.7821 7.89558 21.3645 6.9645C20.9748 6.05221 20.3278 5.2732 19.5025 4.72267C18.6772 4.17214 17.7095 3.87393 16.7175 3.8645H16.6455C13.407 3.8645 11.2305 6.149 11.2305 9.5495C11.2305 9.82949 11.2892 10.1064 11.403 10.3622C11.5167 10.618 11.683 10.8471 11.8908 11.0347C12.0987 11.2222 12.3437 11.364 12.6099 11.4509C12.876 11.5377 13.1575 11.5678 13.436 11.539V11.5395ZM16.6455 5.365H16.7095C17.4113 5.37354 18.0955 5.58608 18.6786 5.97672C19.2617 6.36736 19.7186 6.91921 19.9935 7.565C20.294 8.23341 20.3942 8.97465 20.2818 9.69884C20.1694 10.423 19.8494 11.0991 19.3605 11.645L17.823 13.3655C17.4853 13.7518 17.2653 14.2267 17.189 14.734H16.1725C16.2632 13.9684 16.5872 13.2492 17.1005 12.674L18.611 10.9785C18.9706 10.5746 19.2059 10.0754 19.2884 9.54093C19.3709 9.00645 19.2971 8.45952 19.076 7.966C18.8757 7.49615 18.543 7.09472 18.1186 6.81062C17.6941 6.52653 17.1962 6.37205 16.6855 6.366C14.816 6.366 13.7665 7.4575 13.7315 9.4385C13.7383 9.57603 13.6976 9.71172 13.6162 9.82279C13.5348 9.93386 13.4177 10.0136 13.2845 10.0485C13.2144 10.0557 13.1436 10.0482 13.0766 10.0264C13.0096 10.0046 12.9479 9.96905 12.8955 9.922C12.8433 9.87538 12.8015 9.8182 12.7731 9.75424C12.7446 9.69028 12.7301 9.621 12.7305 9.551C12.7305 6.9685 14.2305 5.365 16.6455 5.365Z" fill="#00CC83"/>
<path d="M3.7195 24.02H18.944L22.344 26.2125C22.2923 26.4517 22.2785 26.6975 22.303 26.941L22.4685 28.5605C22.5383 29.2688 22.86 29.9284 23.3752 30.4195C23.8904 30.9105 24.5647 31.2003 25.2755 31.236C25.8948 32.4511 26.7128 33.5543 27.6955 34.5C27.8765 34.671 28.0665 34.836 28.27 35V36.343L22.6565 37.6805C21.0929 38.049 19.7 38.9359 18.7047 40.1968C17.7094 41.4578 17.1702 43.0186 17.175 44.625C17.175 44.8239 17.254 45.0147 17.3947 45.1553C17.5353 45.296 17.7261 45.375 17.925 45.375H46.5C46.6989 45.375 46.8897 45.296 47.0303 45.1553C47.171 45.0147 47.25 44.8239 47.25 44.625C47.254 43.018 46.7139 41.457 45.7177 40.1961C44.7215 38.9351 43.3278 38.0485 41.7635 37.6805L36.15 36.344V35.0035C37.3989 33.9685 38.4193 32.6854 39.1465 31.2355C39.8572 31.198 40.531 30.9076 41.0463 30.4168C41.5617 29.9259 41.8845 29.267 41.9565 28.559L42.116 26.9405C42.1478 26.6327 42.118 26.3216 42.0286 26.0253C41.9391 25.729 41.7916 25.4535 41.5947 25.2147C41.3979 24.9759 41.1555 24.7787 40.8817 24.6343C40.608 24.49 40.3083 24.4015 40 24.374V23.265C39.9973 21.2158 39.1878 19.25 37.7468 17.793C36.3058 16.336 34.3491 15.5049 32.3 15.4795V3.595C32.2991 2.80759 31.9859 2.0527 31.4291 1.49592C30.8723 0.939134 30.1174 0.625926 29.33 0.625H3.7195C2.93214 0.625927 2.1773 0.93915 1.62059 1.49595C1.06389 2.05274 0.750794 2.80764 0.75 3.595V21.055C0.751457 21.8417 1.06492 22.5957 1.62163 23.1516C2.17833 23.7074 2.9328 24.0197 3.7195 24.02ZM38.5 23.265V25.115C38.5 25.3139 38.579 25.5047 38.7197 25.6453C38.8603 25.786 39.0511 25.865 39.25 25.865H39.795C39.9112 25.8644 40.0263 25.8885 40.1325 25.9357C40.2387 25.983 40.3336 26.0523 40.411 26.139C40.4905 26.2261 40.5505 26.3291 40.5872 26.4411C40.6238 26.5532 40.6362 26.6718 40.6235 26.789L40.464 28.404C40.4269 28.7704 40.2551 29.11 39.9818 29.3568C39.7085 29.6037 39.3533 29.7403 38.985 29.74H38.67C38.525 29.74 38.3832 29.7821 38.2616 29.8611C38.14 29.94 38.044 30.0526 37.985 30.185C37.3018 31.6936 36.2622 33.0135 34.9555 34.031C34.8608 34.1007 34.7838 34.1917 34.7307 34.2966C34.6777 34.4015 34.65 34.5174 34.65 34.635V36.485C34.649 36.7818 34.7483 37.0702 34.9318 37.3035C35.1154 37.5367 35.3723 37.7011 35.661 37.77L41.416 39.1395C42.5264 39.4007 43.5309 39.9936 44.2962 40.8395C45.0614 41.6854 45.551 42.7441 45.7 43.875H18.724C18.8723 42.7445 19.3612 41.6859 20.1257 40.84C20.8903 39.9941 21.8942 39.401 23.004 39.1395L28.757 37.77C29.0464 37.7021 29.3041 37.538 29.4881 37.3046C29.6722 37.0712 29.7715 36.7822 29.77 36.485V34.635C29.77 34.5186 29.7429 34.4037 29.6908 34.2996C29.6387 34.1954 29.5631 34.1049 29.47 34.035C29.2099 33.8405 28.9609 33.6317 28.724 33.4095C27.7674 32.4835 26.9903 31.3886 26.432 30.18C26.3725 30.049 26.2766 29.9378 26.1557 29.8598C26.0347 29.7818 25.8939 29.7402 25.75 29.74H25.435C25.0678 29.7413 24.7132 29.6056 24.4407 29.3595C24.1681 29.1134 23.9971 28.7745 23.961 28.409L23.8355 27.176L27.529 29.5555C27.5943 29.5969 27.6657 29.628 27.7405 29.6475C27.7633 29.6519 27.7863 29.6551 27.8095 29.657C27.8507 29.6667 27.8927 29.6727 27.935 29.675C27.9435 29.675 27.9515 29.671 27.96 29.6705C28.0139 29.6672 28.0672 29.6578 28.119 29.6425C28.1479 29.6376 28.1764 29.6309 28.2045 29.6225C28.285 29.5925 28.3596 29.5487 28.425 29.493C28.5476 29.3873 28.6327 29.2447 28.6675 29.0867C28.7024 28.9286 28.6852 28.7635 28.6185 28.616L26.542 24.02H29.33C30.1168 24.0199 30.8714 23.7076 31.4282 23.1517C31.985 22.5959 32.2985 21.8418 32.3 21.055V16.976C33.9519 17.0013 35.5276 17.6748 36.6874 18.8513C37.8472 20.0278 38.4982 21.6129 38.5 23.265ZM2.25 3.595C2.2504 3.20534 2.40533 2.83175 2.68081 2.55617C2.9563 2.28059 3.32984 2.12553 3.7195 2.125H29.33C29.7197 2.1254 30.0934 2.2804 30.369 2.55599C30.6446 2.83158 30.7996 3.20525 30.8 3.595V21.055C30.7989 21.4441 30.6436 21.8169 30.368 22.0915C30.0924 22.3662 29.7191 22.5203 29.33 22.52H25.38C25.2546 22.52 25.1312 22.5514 25.0211 22.6114C24.911 22.6713 24.8177 22.7579 24.7497 22.8633C24.6818 22.9686 24.6413 23.0893 24.632 23.2144C24.6227 23.3394 24.6448 23.4648 24.6965 23.579L26.2055 26.9185L19.572 22.64C19.4507 22.5617 19.3094 22.52 19.165 22.52H3.7195C3.33046 22.5203 2.95722 22.3661 2.6817 22.0915C2.40619 21.8168 2.25093 21.444 2.25 21.055V3.595Z" fill="#00CC83"/>
<path d="M17.8586 16.8215H15.4336C15.2347 16.8215 15.0439 16.9006 14.9033 17.0412C14.7626 17.1819 14.6836 17.3726 14.6836 17.5715V19.9965C14.6836 20.1954 14.7626 20.3862 14.9033 20.5269C15.0439 20.6675 15.2347 20.7465 15.4336 20.7465H17.8586C18.0575 20.7465 18.2483 20.6675 18.3889 20.5269C18.5296 20.3862 18.6086 20.1954 18.6086 19.9965V17.5715C18.6086 17.3726 18.5296 17.1819 18.3889 17.0412C18.2483 16.9006 18.0575 16.8215 17.8586 16.8215ZM17.1086 19.2465H16.1836V18.3215H17.1086V19.2465Z" fill="#00CC83"/>
</svg>
