<svg width="36" height="40" viewBox="0 0 36 40" fill="none" xmlns="http://www.w3.org/2000/svg">
<g id="Group">
<path id="Vector" d="M17.9996 6.0175C20.7724 6.0175 23.2839 7.14192 25.1018 8.95988L25.1439 9.00524C26.9373 10.8213 28.0447 13.3144 28.0447 16.0621C28.0447 18.8316 26.9198 21.3422 25.1018 23.1616L25.0971 23.1658C23.2782 24.9833 20.7681 26.1073 17.9996 26.1073C15.2301 26.1073 12.7195 24.9824 10.9002 23.1644L10.8959 23.1597C9.07841 21.3408 7.95447 18.8307 7.95447 16.0621C7.95447 13.2922 9.07983 10.7807 10.8987 8.9613C12.7153 7.14192 15.2268 6.0175 17.9996 6.0175ZM18.7026 10.3664L20.3382 13.407L23.7318 14.0221C24.1645 14.0996 24.4527 14.5144 24.3752 14.9472C24.3469 15.1064 24.2722 15.2462 24.1683 15.3554L21.782 17.8522L22.2464 21.2732C22.305 21.7097 21.9984 22.1118 21.5618 22.1704C21.4012 22.1921 21.2448 22.1638 21.1087 22.0981L17.9996 20.6009L14.8904 22.0986C14.4936 22.2899 14.0159 22.1231 13.8246 21.7263C13.7514 21.5742 13.7306 21.4102 13.7551 21.2553L14.2172 17.8522L11.8299 15.3563C11.5266 15.0374 11.5394 14.5314 11.8583 14.2281C11.9854 14.1072 12.1417 14.0368 12.3038 14.0155L15.661 13.407L17.2966 10.3664C17.5049 9.97847 17.9897 9.83296 18.3775 10.0413C18.5207 10.1183 18.6308 10.2331 18.7026 10.3664ZM19.1136 14.5002L17.9996 12.429L16.8856 14.5002C16.7726 14.7062 16.5719 14.8621 16.3233 14.9065L14.0093 15.3261L15.6378 17.0288C15.7985 17.1979 15.884 17.436 15.8504 17.685L15.5339 20.0165L17.6528 18.996C17.8645 18.8944 18.1186 18.8864 18.3464 18.996L20.4653 20.0165L20.1487 17.685C20.118 17.4535 20.1884 17.2107 20.3613 17.0288L21.9899 15.3261L19.7164 14.9136C19.4689 14.8825 19.2402 14.736 19.1136 14.5002ZM29.6751 25.7151L35.0501 31.0901C35.3624 31.4024 35.3624 31.9089 35.0501 32.2212C34.8843 32.387 34.6637 32.465 34.4468 32.4546L28.7118 32.6289L28.5356 38.4234C28.5238 38.8633 28.1567 39.2105 27.7168 39.1987C27.5047 39.193 27.3143 39.1047 27.1749 38.9653L19.3673 31.1615C18.9279 31.2678 18.4701 31.3245 18.0001 31.3245C17.53 31.3245 17.0726 31.2682 16.6333 31.1615L8.8266 38.9677C8.68534 39.1052 8.49494 39.1935 8.28282 39.1992C7.84297 39.211 7.47588 38.8637 7.46407 38.4239L7.28737 32.6294L1.55237 32.455C1.33552 32.4654 1.11489 32.3875 0.949058 32.2216C0.636772 31.9094 0.636772 31.4029 0.949058 31.0906L6.32406 25.7156C5.97445 25.1288 5.73634 24.4924 5.60972 23.8395C5.43728 22.9518 5.47271 22.0291 5.71508 21.1523C4.92279 20.7025 4.2453 20.0737 3.73743 19.3225C3.10718 18.3889 2.73773 17.2659 2.73773 16.0626C2.73773 14.8584 3.10718 13.7358 3.73743 12.8023C4.2453 12.0506 4.92326 11.4218 5.71508 10.9725C5.47271 10.0952 5.43728 9.17248 5.60972 8.28476C5.82374 7.1783 6.35713 6.12191 7.208 5.27104L7.25383 5.22852C8.09856 4.40127 9.13652 3.88252 10.2217 3.67228C11.109 3.50079 12.0321 3.53575 12.9095 3.77764C13.3592 2.98582 13.9881 2.30786 14.7397 1.79999C15.6733 1.16974 16.7963 0.800293 17.9991 0.800293C19.2024 0.800293 20.3259 1.16974 21.2595 1.79999C22.0111 2.30786 22.6399 2.98582 23.0897 3.77764C23.967 3.53575 24.8902 3.50079 25.7774 3.67228C26.8815 3.8863 27.9365 4.41969 28.7893 5.27198C29.642 6.12191 30.1754 7.1783 30.3894 8.28476C30.5619 9.17248 30.5265 10.0952 30.2841 10.9725C31.0759 11.4218 31.7539 12.0506 32.2617 12.8023C32.892 13.7358 33.2614 14.8584 33.2614 16.0617C33.2614 17.265 32.892 18.3885 32.2617 19.322C31.7539 20.0737 31.0759 20.7025 30.2841 21.1523C30.5265 22.0291 30.5619 22.9518 30.3894 23.8395C30.2628 24.4924 30.0247 25.1284 29.6751 25.7151ZM20.9736 30.5057L26.9978 36.5299L27.1409 31.8333C27.1523 31.4128 27.491 31.0693 27.9162 31.058L32.6128 30.9149L28.6679 26.9699C27.8382 27.7537 26.8296 28.2479 25.777 28.452C24.8892 28.6244 23.9666 28.589 23.0897 28.3466C22.6399 29.1385 22.0111 29.8174 21.2595 30.3243C21.1659 30.3876 21.0709 30.4481 20.9736 30.5057ZM7.33131 26.9704L3.3864 30.9153L8.08344 31.0585C8.50864 31.0698 8.84739 31.4133 8.85873 31.8338L9.00188 36.5303L15.0265 30.5062C14.9292 30.4481 14.8333 30.3876 14.7397 30.3243C13.9881 29.8174 13.3592 29.1385 12.9095 28.3466C12.0321 28.5885 11.1095 28.624 10.2222 28.452C9.16959 28.2479 8.1614 27.7537 7.33131 26.9704ZM18.0001 2.40094C17.1246 2.40094 16.3096 2.66834 15.6336 3.12472C14.9344 3.59717 14.3807 4.27229 14.0594 5.06174L14.0533 5.07119C13.8827 5.47655 13.4145 5.66694 13.0092 5.49639C12.2244 5.16521 11.3537 5.08017 10.5222 5.2408C9.73606 5.39293 8.98487 5.76758 8.37494 6.3638L8.33951 6.4016C7.72013 7.02097 7.33273 7.78586 7.17824 8.58524C7.02044 9.39973 7.09934 10.2511 7.41352 11.0235L7.43997 11.0816C7.60533 11.4903 7.40785 11.9571 6.99918 12.1224C6.20926 12.4432 5.53461 12.9969 5.06216 13.6961C4.60578 14.3722 4.33838 15.1867 4.33838 16.0617C4.33838 16.9376 4.60578 17.7526 5.06216 18.4286C5.53461 19.1274 6.20926 19.6811 6.99918 20.0023L7.00863 20.0085C7.41399 20.179 7.60438 20.6472 7.43383 21.0526C7.10218 21.8378 7.01714 22.7076 7.17824 23.5391C7.33037 24.3257 7.70502 25.0769 8.30124 25.6868L8.33904 25.7222C8.95558 26.3421 9.72094 26.7285 10.5227 26.8835C11.3372 27.0413 12.1885 26.9624 12.9605 26.6482L13.0186 26.6218C13.4273 26.4564 13.894 26.6539 14.0594 27.0625C14.3807 27.852 14.9344 28.5276 15.6336 28.9996C16.3096 29.4559 17.1246 29.7238 17.9991 29.7238C18.8746 29.7238 19.6895 29.4559 20.3656 28.9996C21.0648 28.5276 21.6185 27.852 21.9398 27.0625L21.9459 27.0531C22.1165 26.6477 22.5847 26.4573 22.99 26.6279C23.7752 26.9596 24.645 27.0446 25.4765 26.8835C26.2631 26.7314 27.0143 26.3567 27.6242 25.7605L27.6597 25.7227C28.2795 25.1062 28.666 24.3408 28.8209 23.5391C28.9787 22.725 28.9003 21.8737 28.5857 21.1017L28.5592 21.0431C28.3938 20.6345 28.5913 20.1677 29 20.0023C29.7894 19.6811 30.4646 19.1274 30.937 18.4281C31.3929 17.7526 31.6608 16.9371 31.6608 16.0626C31.6608 15.1867 31.3934 14.3722 30.937 13.6961C30.4646 12.9969 29.7899 12.4432 29 12.1224L28.9905 12.1163C28.5852 11.9457 28.3948 11.4775 28.5653 11.0722C28.8965 10.287 28.982 9.41674 28.8209 8.58524C28.6664 7.78586 28.279 7.02097 27.6601 6.40207C27.0436 5.78222 26.2782 5.39576 25.477 5.2408C24.6625 5.08348 23.8107 5.1619 23.0387 5.47608L22.9806 5.50253C22.5719 5.66789 22.1051 5.47041 21.9398 5.06174C21.6185 4.27229 21.0648 3.59717 20.3656 3.12472C19.69 2.66881 18.8745 2.40094 18.0001 2.40094ZM23.9708 10.0909C22.4434 8.5635 20.3316 7.61814 17.9996 7.61814C15.6676 7.61814 13.5558 8.5635 12.0284 10.0909C10.4995 11.6164 9.55511 13.7283 9.55511 16.0621C9.55511 18.396 10.4995 20.5078 12.0255 22.0334C13.5539 23.5622 15.6657 24.5066 17.9996 24.5066C20.3335 24.5066 22.4453 23.5622 23.9708 22.0362C25.4996 20.5078 26.4441 18.396 26.4441 16.0621C26.4441 13.7462 25.5138 11.649 24.0086 10.1263L23.9708 10.0909Z" fill="#0057FF"/>
</g>
</svg>
