<svg width="38" height="38" viewBox="0 0 38 38" fill="none" xmlns="http://www.w3.org/2000/svg">
<g id="Group">
<path id="Vector" d="M10.25 11.5C9.2611 11.5 8.2944 11.7932 7.47215 12.3427C6.64991 12.8921 6.00904 13.673 5.6306 14.5866C5.25217 15.5002 5.15315 16.5055 5.34608 17.4755C5.539 18.4454 6.01521 19.3363 6.71447 20.0355C7.41373 20.7348 8.30465 21.211 9.27455 21.4039C10.2445 21.5969 11.2498 21.4978 12.1634 21.1194C13.0771 20.741 13.8579 20.1001 14.4074 19.2779C14.9568 18.4556 15.25 17.4889 15.25 16.5C15.2485 15.1744 14.7213 13.9035 13.7839 12.9661C12.8465 12.0288 11.5756 11.5015 10.25 11.5ZM10.25 20.25C9.50832 20.25 8.7833 20.0301 8.16661 19.618C7.54993 19.206 7.06928 18.6203 6.78545 17.9351C6.50163 17.2498 6.42736 16.4958 6.57206 15.7684C6.71675 15.041 7.0739 14.3728 7.59835 13.8483C8.1228 13.3239 8.79098 12.9667 9.51841 12.8221C10.2458 12.6774 10.9998 12.7516 11.6851 13.0355C12.3703 13.3193 12.956 13.7999 13.368 14.4166C13.7801 15.0333 14 15.7583 14 16.5C13.999 17.4943 13.6036 18.4475 12.9006 19.1506C12.1975 19.8536 11.2443 20.249 10.25 20.25Z" fill="#0057FF"/>
<path id="Vector_2" d="M8.95859 17.4494L8.19234 16.6831L7.30859 17.5669L8.55859 18.8169C8.67578 18.9341 8.83472 19 9.00047 19H9.02859C9.11532 18.9961 9.2003 18.9742 9.2781 18.9357C9.3559 18.8972 9.42482 18.8429 9.48047 18.7763L12.6055 15.0263L11.6455 14.225L8.95859 17.4494Z" fill="#0057FF"/>
<path id="Vector_3" d="M32.75 17.1406C32.7323 16.625 32.8862 16.1181 33.1875 15.6994C33.4287 15.4662 33.6719 15.2369 33.9137 15.0087C35.7981 13.2306 37.75 11.3913 37.75 8.375C37.75 6.22012 36.894 4.15349 35.3702 2.62976C33.8465 1.10602 31.7799 0.25 29.625 0.25C27.4701 0.25 25.4035 1.10602 23.8798 2.62976C22.356 4.15349 21.5 6.22012 21.5 8.375C21.5 11.3913 23.4519 13.2306 25.3394 15.0087C25.5813 15.2369 25.8244 15.4662 26.065 15.6994C26.3658 16.117 26.5197 16.6225 26.5025 17.1369C26.515 17.6275 26.5106 18.54 26.5069 19.1106C26.2145 19.2102 25.9516 19.3812 25.7419 19.608C25.5323 19.8348 25.3825 20.1102 25.3061 20.4095C25.2297 20.7088 25.2292 21.0224 25.3045 21.3219C25.3798 21.6214 25.5286 21.8975 25.7375 22.125C25.5295 22.3521 25.3812 22.6273 25.306 22.9259C25.2308 23.2246 25.231 23.5372 25.3067 23.8357C25.3823 24.1342 25.5309 24.4093 25.7392 24.6361C25.9476 24.8629 26.209 25.0343 26.5 25.135V25.875C26.5009 26.5951 26.7501 27.2929 27.2055 27.8508C27.6608 28.4086 28.2946 28.7924 29 28.9375V36.5H22.75V22.125C22.75 21.9592 22.6842 21.8003 22.5669 21.6831C22.4497 21.5658 22.2908 21.5 22.125 21.5H18.0694L16.9106 19.8956C17.1102 19.5327 17.2727 19.1505 17.3956 18.755L19.7281 18.3662C19.8739 18.3419 20.0064 18.2666 20.102 18.1537C20.1975 18.0409 20.25 17.8979 20.25 17.75V15.25C20.25 15.1021 20.1975 14.9591 20.102 14.8463C20.0064 14.7334 19.8739 14.6581 19.7281 14.6337L17.3962 14.245C17.2652 13.8299 17.0979 13.4271 16.8962 13.0413L18.2712 11.1181C18.3572 10.9978 18.3978 10.8509 18.3856 10.7035C18.3735 10.5561 18.3095 10.4178 18.205 10.3131L16.4375 8.545C16.3328 8.4405 16.1945 8.3765 16.0471 8.36437C15.8997 8.35224 15.7528 8.39277 15.6325 8.47875L13.7094 9.85375C13.3233 9.65273 12.9205 9.48544 12.5056 9.35375L12.1169 7.0225C12.0926 6.87646 12.0173 6.74377 11.9043 6.64809C11.7913 6.5524 11.648 6.49992 11.5 6.5H9C8.85206 6.50007 8.70894 6.55261 8.5961 6.64829C8.48326 6.74396 8.40801 6.87656 8.38375 7.0225L7.995 9.35375C7.5801 9.48544 7.17735 9.65273 6.79125 9.85375L4.86813 8.47875C4.7478 8.39277 4.60088 8.35224 4.45349 8.36437C4.30609 8.3765 4.16778 8.4405 4.06313 8.545L2.295 10.3125C2.1905 10.4172 2.1265 10.5555 2.11437 10.7029C2.10224 10.8503 2.14277 10.9972 2.22875 11.1175L3.60375 13.0406C3.40211 13.4264 3.23479 13.8292 3.10375 14.2444L0.771875 14.6331C0.625945 14.6575 0.493409 14.7329 0.397847 14.8459C0.302285 14.9588 0.249896 15.102 0.25 15.25V17.75C0.250044 17.8979 0.3025 18.0409 0.398049 18.1537C0.493598 18.2666 0.626051 18.3419 0.771875 18.3662L1.60563 18.5056C0.865877 19.6307 0.470749 20.9473 0.46875 22.2938C0.469508 23.1539 0.633449 24.006 0.951875 24.805L3.33625 32.7425L1.55125 36.875C1.50971 36.9702 1.49254 37.0742 1.5013 37.1777C1.51006 37.2812 1.54447 37.3809 1.60141 37.4677C1.65836 37.5546 1.73606 37.6259 1.82747 37.6751C1.91889 37.7244 2.02114 37.7502 2.125 37.75H11.5C11.5967 37.7499 11.692 37.7274 11.7785 37.6843C11.865 37.6412 11.9403 37.5785 11.9985 37.5014C12.0567 37.4242 12.0962 37.3346 12.114 37.2396C12.1317 37.1445 12.1271 37.0467 12.1006 36.9538L11.0788 33.375H14C14.4895 33.3508 14.9524 33.1455 15.2989 32.7989C15.6455 32.4524 15.8508 31.9895 15.875 31.5V28.8631L16.8256 28.2838C16.9045 28.2357 16.9717 28.1707 17.0224 28.0936C17.0731 28.0164 17.1062 27.929 17.1191 27.8375C17.132 27.7461 17.1245 27.6529 17.0971 27.5647C17.0697 27.4765 17.0231 27.3955 16.9606 27.3275L14.9487 25.1344C15.0721 24.8482 15.1765 24.5543 15.2612 24.2544L15.6362 24.5212C15.7599 24.6096 15.9114 24.6498 16.0625 24.6346C16.2137 24.6193 16.3541 24.5494 16.4575 24.4381L18.0225 22.75H21.5V37.125C21.5 37.2908 21.5658 37.4497 21.6831 37.5669C21.8003 37.6842 21.9592 37.75 22.125 37.75H29.625C29.7908 37.75 29.9497 37.6842 30.0669 37.5669C30.1842 37.4497 30.25 37.2908 30.25 37.125V28.9375C30.9554 28.7924 31.5892 28.4086 32.0445 27.8508C32.4999 27.2929 32.7491 26.5951 32.75 25.875V25.135C33.041 25.0343 33.3024 24.8629 33.5108 24.6361C33.7191 24.4093 33.8677 24.1342 33.9433 23.8357C34.019 23.5372 34.0192 23.2246 33.944 22.9259C33.8688 22.6273 33.7205 22.3521 33.5125 22.125C33.7207 21.8976 33.869 21.622 33.9441 21.323C34.0192 21.024 34.0187 20.711 33.9426 20.4122C33.8665 20.1134 33.7172 19.8383 33.5083 19.6116C33.2993 19.385 33.0372 19.2138 32.7456 19.1138C32.7419 18.5431 32.7375 17.6306 32.75 17.1406ZM13.7456 25.6725L15.5256 27.61L14.9244 27.9769C14.8326 28.0329 14.7569 28.1116 14.7044 28.2054C14.652 28.2992 14.6246 28.405 14.625 28.5125V31.5C14.5995 31.6566 14.5255 31.8012 14.4133 31.9133C14.3012 32.0255 14.1566 32.0995 14 32.125H10.25C10.1533 32.1251 10.058 32.1476 9.97151 32.1907C9.88501 32.2338 9.8097 32.2965 9.75149 32.3736C9.69328 32.4508 9.65377 32.5404 9.63605 32.6354C9.61833 32.7305 9.62289 32.8283 9.64937 32.9212L10.6712 36.5H3.07563L4.57562 33.0287C4.63367 32.8936 4.64252 32.7423 4.60063 32.6012L2.13125 24.395C1.75253 23.4619 1.63155 22.4442 1.78098 21.4484C1.9304 20.4526 2.34474 19.5152 2.98063 18.7344L3.10563 18.755C3.23667 19.1701 3.40398 19.5729 3.60563 19.9587L2.23063 21.8819C2.14423 22.002 2.10329 22.149 2.11508 22.2965C2.12686 22.444 2.19062 22.5826 2.295 22.6875L4.0625 24.455C4.16715 24.5595 4.30547 24.6235 4.45286 24.6356C4.60025 24.6478 4.74717 24.6072 4.8675 24.5212L6.79063 23.1462C7.17673 23.3473 7.57947 23.5146 7.99437 23.6462L8.38312 25.9775C8.4074 26.1235 8.48274 26.2562 8.59571 26.3519C8.70868 26.4476 8.85195 26.5001 9 26.5H11.5C11.6479 26.4999 11.7911 26.4474 11.9039 26.3517C12.0167 26.256 12.092 26.1234 12.1163 25.9775L12.505 23.6462C12.9199 23.5146 13.3226 23.3473 13.7087 23.1462L14.1581 23.4669C14.0577 23.988 13.8859 24.4927 13.6475 24.9669C13.59 25.0805 13.5686 25.2089 13.5862 25.335C13.6037 25.4611 13.6593 25.5789 13.7456 25.6725ZM15.9119 23.185L14.1137 21.9012C14.0148 21.8311 13.8976 21.7913 13.7764 21.7867C13.6552 21.782 13.5353 21.8127 13.4312 21.875C12.9219 22.1766 12.3722 22.4041 11.7987 22.5506C11.6817 22.5804 11.5757 22.6435 11.4938 22.7322C11.4118 22.821 11.3573 22.9316 11.3369 23.0506L10.9706 25.25H9.52938L9.16313 23.0506C9.14269 22.9316 9.0882 22.821 9.00623 22.7322C8.92426 22.6435 8.81832 22.5804 8.70125 22.5506C8.12776 22.4041 7.57808 22.1766 7.06875 21.875C6.96447 21.813 6.84441 21.7828 6.72322 21.7879C6.60204 21.793 6.48495 21.8332 6.38625 21.9037L4.57375 23.1994L3.55313 22.1775L4.84875 20.365C4.91913 20.2659 4.95909 20.1485 4.96376 20.027C4.96842 19.9056 4.93757 19.7854 4.875 19.6812C4.57297 19.1723 4.34525 18.6228 4.19875 18.0494C4.16907 17.9322 4.10603 17.8261 4.01729 17.744C3.92854 17.6619 3.81789 17.6074 3.69875 17.5869L1.5 17.2206V15.7794L3.69938 15.4131C3.81852 15.3926 3.92917 15.3381 4.01791 15.256C4.10666 15.1739 4.16969 15.0678 4.19938 14.9506C4.34568 14.3773 4.57318 13.8277 4.875 13.3188C4.93686 13.2144 4.96702 13.0943 4.96181 12.9731C4.95659 12.8519 4.91622 12.7349 4.84562 12.6363L3.55 10.8237L4.56938 9.80438L6.38188 11.1C6.48058 11.1705 6.59766 11.2108 6.71885 11.2159C6.84004 11.221 6.96009 11.1907 7.06437 11.1287C7.5737 10.8272 8.12339 10.5997 8.69688 10.4531C8.81395 10.4233 8.91988 10.3603 9.00185 10.2715C9.08382 10.1828 9.13832 10.0722 9.15875 9.95312L9.52938 7.75H10.9706L11.3369 9.94937C11.3573 10.0684 11.4118 10.179 11.4938 10.2678C11.5757 10.3565 11.6817 10.4196 11.7987 10.4494C12.3722 10.5959 12.9219 10.8234 13.4312 11.125C13.5355 11.187 13.6556 11.2172 13.7768 11.2121C13.898 11.207 14.015 11.1668 14.1137 11.0963L15.9263 9.80062L16.9456 10.82L15.65 12.6325C15.5793 12.732 15.5393 12.8499 15.5348 12.9719C15.5304 13.0938 15.5617 13.2144 15.625 13.3188C15.927 13.8277 16.1548 14.3772 16.3013 14.9506C16.3309 15.0678 16.394 15.1739 16.4827 15.256C16.5715 15.3381 16.6821 15.3926 16.8013 15.4131L19 15.7794V17.2206L16.8006 17.5869C16.6815 17.6074 16.5708 17.6619 16.4821 17.744C16.3933 17.8261 16.3303 17.9322 16.3006 18.0494C16.1726 18.589 15.9518 19.1022 15.6481 19.5662C15.5746 19.6726 15.5358 19.7991 15.5371 19.9284C15.5385 20.0577 15.5799 20.1834 15.6556 20.2881L16.9456 22.075L15.9119 23.185ZM26.1963 14.0988C24.3475 12.3563 22.75 10.8519 22.75 8.375C22.75 6.55164 23.4743 4.80295 24.7636 3.51364C26.053 2.22433 27.8016 1.5 29.625 1.5C31.4484 1.5 33.197 2.22433 34.4864 3.51364C35.7757 4.80295 36.5 6.55164 36.5 8.375C36.5 10.8519 34.9025 12.3563 33.0537 14.0988C32.8075 14.3306 32.56 14.5638 32.315 14.8006C31.7665 15.4439 31.4769 16.2682 31.5025 17.1131C31.4913 17.59 31.4937 18.4256 31.4975 19.0031H30.25V10.7863C30.8392 10.6341 31.3526 10.2724 31.6941 9.76875C32.0356 9.26513 32.1817 8.65426 32.1051 8.05062C32.0284 7.44699 31.7342 6.89204 31.2776 6.4898C30.8211 6.08756 30.2335 5.86564 29.625 5.86564C29.0165 5.86564 28.4289 6.08756 27.9724 6.4898C27.5158 6.89204 27.2216 7.44699 27.1449 8.05062C27.0683 8.65426 27.2144 9.26513 27.5559 9.76875C27.8974 10.2724 28.4108 10.6341 29 10.7863V19H27.755C27.7587 18.4212 27.7612 17.5863 27.75 17.1094C27.775 16.2656 27.4854 15.4427 26.9375 14.8006C26.6875 14.5625 26.4425 14.3306 26.1963 14.0988ZM29.625 9.625C29.3778 9.625 29.1361 9.55169 28.9305 9.41434C28.725 9.27699 28.5648 9.08176 28.4701 8.85335C28.3755 8.62495 28.3508 8.37361 28.399 8.13114C28.4473 7.88866 28.5663 7.66593 28.7411 7.49112C28.9159 7.3163 29.1387 7.19725 29.3811 7.14902C29.6236 7.10079 29.8749 7.12554 30.1034 7.22015C30.3318 7.31476 30.527 7.47498 30.6643 7.68054C30.8017 7.8861 30.875 8.12777 30.875 8.375C30.875 8.70652 30.7433 9.02446 30.5089 9.25888C30.2745 9.4933 29.9565 9.625 29.625 9.625ZM27.125 20.25H32.125C32.2908 20.25 32.4497 20.3158 32.5669 20.4331C32.6842 20.5503 32.75 20.7092 32.75 20.875C32.75 21.0408 32.6842 21.1997 32.5669 21.3169C32.4497 21.4342 32.2908 21.5 32.125 21.5H27.125C26.9592 21.5 26.8003 21.4342 26.6831 21.3169C26.5658 21.1997 26.5 21.0408 26.5 20.875C26.5 20.7092 26.5658 20.5503 26.6831 20.4331C26.8003 20.3158 26.9592 20.25 27.125 20.25ZM31.5 25.875C31.5 26.3723 31.3025 26.8492 30.9508 27.2008C30.5992 27.5525 30.1223 27.75 29.625 27.75C29.1277 27.75 28.6508 27.5525 28.2992 27.2008C27.9475 26.8492 27.75 26.3723 27.75 25.875V25.25H31.5V25.875ZM32.125 24H27.125C26.9592 24 26.8003 23.9342 26.6831 23.8169C26.5658 23.6997 26.5 23.5408 26.5 23.375C26.5 23.2092 26.5658 23.0503 26.6831 22.9331C26.8003 22.8158 26.9592 22.75 27.125 22.75H32.125C32.2908 22.75 32.4497 22.8158 32.5669 22.9331C32.6842 23.0503 32.75 23.2092 32.75 23.375C32.75 23.5408 32.6842 23.6997 32.5669 23.8169C32.4497 23.9342 32.2908 24 32.125 24Z" fill="#0057FF"/>
<path id="Vector_4" d="M26.6824 10.4334L25.4326 11.6832L26.3165 12.5671L27.5663 11.3173L26.6824 10.4334Z" fill="#0057FF"/>
<path id="Vector_5" d="M26.0506 8.68475L24.3428 9.14264L24.6665 10.35L26.3743 9.89211L26.0506 8.68475Z" fill="#0057FF"/>
<path id="Vector_6" d="M24.6675 6.39662L24.3438 7.60397L26.0516 8.06186L26.3753 6.85451L24.6675 6.39662Z" fill="#0057FF"/>
<path id="Vector_7" d="M26.3165 4.18338L25.4326 5.06726L26.6824 6.31707L27.5663 5.43319L26.3165 4.18338Z" fill="#0057FF"/>
<path id="Vector_8" d="M28.8587 3.08773L27.6514 3.41144L28.1093 5.11924L29.3166 4.79553L28.8587 3.08773Z" fill="#0057FF"/>
<path id="Vector_9" d="M30.3941 3.09059L29.9365 4.79846L31.1439 5.12199L31.6016 3.41411L30.3941 3.09059Z" fill="#0057FF"/>
<path id="Vector_10" d="M32.9324 4.18335L31.6826 5.43317L32.5665 6.31705L33.8163 5.06724L32.9324 4.18335Z" fill="#0057FF"/>
<path id="Vector_11" d="M34.5906 6.39614L32.8828 6.85403L33.2065 8.06139L34.9143 7.6035L34.5906 6.39614Z" fill="#0057FF"/>
<path id="Vector_12" d="M33.2065 8.68388L32.8828 9.89124L34.5906 10.3491L34.9143 9.14177L33.2065 8.68388Z" fill="#0057FF"/>
<path id="Vector_13" d="M32.5665 10.4334L31.6826 11.3173L32.9324 12.5671L33.8163 11.6832L32.5665 10.4334Z" fill="#0057FF"/>
</g>
</svg>
