<svg width="36" height="32" viewBox="0 0 36 32" fill="none" xmlns="http://www.w3.org/2000/svg">
<g clip-path="url(#clip0_513_1002)">
<path d="M33.7119 28.0814H31.8513V11.1977H34.2117C34.545 11.1977 34.8782 10.9535 35.0171 10.5349C35.1837 10.0465 35.0448 9.52326 34.7116 9.24419L23.7424 0.174419C23.6036 0.0697674 23.437 0 23.2703 0H12.7177C12.5511 0 12.3845 0.0697674 12.2456 0.174419L1.27646 9.24419C0.943223 9.52326 0.804373 10.0814 0.970993 10.5349C1.10984 10.9535 1.44308 11.1977 1.77632 11.1977H4.13678V28.0814H2.27619C1.52639 28.0814 0.915453 28.8488 0.915453 29.7907C0.915453 30.7326 1.52639 31.5 2.27619 31.5H33.7397C34.4894 31.5 35.1004 30.7326 35.1004 29.7907C35.1004 28.8488 34.4617 28.0814 33.7119 28.0814ZM30.1573 28.0814H5.83075V11.1977H30.1851V28.0814H30.1573Z" fill="white"/>
<path d="M14.401 19.6594H16.4822L14.9916 23.3156C14.9072 23.4844 14.9916 23.7094 15.1322 23.8219C15.2166 23.8781 15.2728 23.9063 15.3572 23.9063C15.4697 23.9063 15.5541 23.8781 15.6385 23.7938L21.8822 17.9719C21.9947 17.8594 22.051 17.6625 21.9947 17.5219C21.9385 17.3531 21.7697 17.2688 21.601 17.2688H18.7885L20.9822 13.6688C21.0666 13.5281 21.0666 13.3875 20.9822 13.2469C20.8978 13.1063 20.7572 13.0219 20.6166 13.0219H16.7635C16.5947 13.0219 16.4541 13.1344 16.3697 13.275L14.0072 19.0969C13.951 19.2375 13.9791 19.3781 14.0353 19.4906C14.1197 19.6031 14.2603 19.6594 14.401 19.6594Z" fill="white"/>
</g>
<defs>
<clipPath id="clip0_513_1002">
<rect width="36" height="31.5" fill="white"/>
</clipPath>
</defs>
</svg>
