<svg width="50" height="48" viewBox="0 0 50 48" fill="none" xmlns="http://www.w3.org/2000/svg">
<g clip-path="url(#clip0_513_13597)">
<path d="M12.9684 7.61719C9.53094 7.61719 6.71844 10.3908 6.71844 13.8283V25.5859V35.508C6.71844 36.172 7.22626 36.6798 7.89032 36.6798H15.078H20.9373C31.2108 36.6798 39.6095 28.3594 39.6095 18.1641V16.5627H42.8123C43.4764 16.5627 43.9842 16.0548 43.9842 15.3908C43.9842 14.7267 43.4764 14.2189 42.8123 14.2189H39.6095V13.8283C39.5314 10.4298 36.7191 7.6561 33.3206 7.6561L12.9684 7.61719ZM13.0081 9.96094L33.3595 9.99985C35.508 9.99985 37.2267 11.7191 37.2658 13.7894V18.1252H37.2269C37.2269 27.0705 29.9219 34.2972 20.8984 34.2972H16.2109V27.2659C16.2109 25.7034 14.9216 24.4141 13.3591 24.4141H9.06219V13.8283C9.06219 11.6798 10.8206 9.96094 13.0081 9.96094ZM19.2184 14.2578C18.5544 14.2578 18.0466 14.7656 18.0466 15.4297C18.0466 15.8594 17.695 16.2109 17.2653 16.2109H16.8747H14.9216C14.2575 16.2109 13.7497 16.7188 13.7497 17.3828V17.7734C13.7497 18.4375 14.2575 18.9453 14.9216 18.9453H26.6403C27.3044 18.9453 27.8122 18.4375 27.8122 17.7734V15.4297C27.8122 14.7656 27.3044 14.2578 26.6403 14.2578H19.2184ZM19.2581 24.4141C18.5941 24.4141 18.0862 24.9219 18.0862 25.5859C18.0862 26.25 18.5941 26.7578 19.2581 26.7578H22.6562C23.3203 26.7578 23.8281 26.25 23.8281 25.5859C23.8281 24.9219 23.2812 24.4141 22.6562 24.4141H19.2581ZM9.06219 26.7578H13.3987C13.6722 26.7578 13.9061 26.9925 13.9061 27.2659V34.3361H12.5V29.8439C12.5 29.1798 11.9922 28.672 11.3281 28.672C10.6641 28.672 10.1562 29.1798 10.1562 29.8439V34.3361H9.06219V26.7578ZM19.2581 28.4767C18.5941 28.4767 18.0862 28.9845 18.0862 29.6486C18.0862 30.3127 18.5941 30.8205 19.2581 30.8205H22.6562C23.3203 30.8205 23.8281 30.3127 23.8281 29.6486C23.8281 28.9845 23.2812 28.4767 22.6562 28.4767H19.2581ZM6.05469 38.2423C5.39062 38.2423 4.88281 38.7892 4.88281 39.4142C4.88281 40.0783 5.39062 40.5861 6.05469 40.5861H10.1173V43.9453C10.1173 44.6094 10.6252 45.1172 11.2892 45.1172C11.9533 45.1172 12.4611 44.6094 12.4611 43.9453V40.5861H28.9062C29.5703 40.5861 30.0781 40.0783 30.0781 39.4142C30.0781 38.7502 29.5703 38.2423 28.9062 38.2423H6.05469Z" fill="white"/>
</g>
<defs>
<clipPath id="clip0_513_13597">
<rect width="50" height="47.2656" fill="white"/>
</clipPath>
</defs>
</svg>
