<svg width="34" height="33" viewBox="0 0 34 33" fill="none" xmlns="http://www.w3.org/2000/svg">
<path d="M22.7279 32.9697C21.114 32.9697 18.0625 32.1084 18.0625 28.8485C18.0625 27.4195 18.3876 26.5695 18.6734 25.8194C18.9157 25.1837 19.125 24.6356 19.125 23.697C19.125 22.8665 18.4918 22.3432 17.8851 22.0299C17.1902 26.8487 15.7601 30.9091 9.80156 30.9091C4.58044 30.9091 0 26.7642 0 22.0392C0 20.4742 0.88825 17.5152 4.25 17.5152C5.72369 17.5152 6.60025 17.8304 7.37375 18.1076C8.02931 18.3425 8.5935 18.5455 9.5625 18.5455C10.4189 18.5455 10.9597 17.9314 11.2816 17.3431C6.31231 16.6693 2.125 15.2825 2.125 9.50455C2.125 4.44164 6.39944 0 11.2721 0C12.886 0 15.9375 0.861333 15.9375 4.12121C15.9375 5.55024 15.6124 6.40024 15.3266 7.1503C15.0843 7.786 14.875 8.33309 14.875 9.27273C14.875 10.1032 15.5083 10.6276 16.1149 10.9398C16.8098 6.12103 18.2399 2.06061 24.1984 2.06061C29.4196 2.06061 34 6.20552 34 10.9305C34 12.4955 33.1118 15.4545 29.75 15.4545C28.2763 15.4545 27.3997 15.1393 26.6262 14.8621C25.9707 14.6272 25.4054 14.4242 24.4375 14.4242C23.5811 14.4242 23.0414 15.0383 22.7184 15.6266C27.6877 16.2994 31.875 17.6872 31.875 23.4652C31.875 28.5281 27.6006 32.9697 22.7279 32.9697ZM17.4218 19.6613C18.9369 20.0208 21.25 21.2181 21.25 23.697C21.25 25.0055 20.9398 25.8184 20.6656 26.5344C20.4096 27.2072 20.1875 27.7893 20.1875 28.8485C20.1875 30.7855 22.3083 30.905 22.7332 30.9091C26.4031 30.9091 29.75 27.3618 29.75 23.4652C29.75 19.6479 27.7355 18.2559 21.1278 17.5079C20.5689 17.4441 20.1578 16.9701 20.1907 16.4251C20.1981 16.3015 20.2279 16.184 20.2757 16.0758C20.6465 14.6066 21.8811 12.3636 24.4375 12.3636C25.7869 12.3636 26.6252 12.6645 27.3636 12.9293C28.0574 13.1786 28.6577 13.3939 29.75 13.3939C31.7475 13.3939 31.8708 11.3375 31.875 10.9253C31.875 7.36667 28.2168 4.12121 24.1984 4.12121C20.2619 4.12121 18.8264 6.07467 18.0551 12.4821C17.9892 13.0241 17.4898 13.4166 16.9384 13.3908C16.8109 13.3836 16.6897 13.3548 16.5782 13.3074C15.0631 12.9488 12.75 11.7516 12.75 9.27273C12.75 7.96424 13.0602 7.15236 13.3333 6.43527C13.5904 5.76248 13.8125 5.18139 13.8125 4.12121C13.8125 2.18527 11.6918 2.06473 11.2668 2.06061C7.59688 2.06061 4.25 5.60897 4.25 9.50455C4.25 13.3218 6.2645 14.7127 12.8722 15.4618C13.4311 15.5256 13.8422 15.9996 13.8093 16.5446C13.8019 16.6682 13.7721 16.7857 13.7233 16.8939C13.3535 18.3631 12.1189 20.6061 9.5625 20.6061C8.21313 20.6061 7.37587 20.3052 6.63637 20.0394C5.94256 19.7911 5.34331 19.5758 4.25 19.5758C2.25356 19.5758 2.12925 21.6322 2.125 22.0444C2.125 25.603 5.78425 28.8485 9.80156 28.8485C13.7381 28.8485 15.1725 26.895 15.9449 20.4876C16.0098 19.9467 16.5038 19.5459 17.0616 19.5788C17.1891 19.5861 17.3102 19.6149 17.4218 19.6613ZM17 21.6364C14.0707 21.6364 11.6875 19.3254 11.6875 16.4848C11.6875 13.6443 14.0707 11.3333 17 11.3333C19.9293 11.3333 22.3125 13.6443 22.3125 16.4848C22.3125 19.3254 19.9293 21.6364 17 21.6364ZM17 13.3939C15.2426 13.3939 13.8125 14.7807 13.8125 16.4848C13.8125 18.189 15.2426 19.5758 17 19.5758C18.7574 19.5758 20.1875 18.189 20.1875 16.4848C20.1875 14.7807 18.7574 13.3939 17 13.3939Z" fill="white"/>
</svg>
