<svg width="40" height="41" viewBox="0 0 40 41" fill="none" xmlns="http://www.w3.org/2000/svg">
<g clip-path="url(#clip0_513_13622)">
<path d="M9.63616 20C9.63616 19.3213 9.08464 18.7758 8.41192 18.7758H2.43616C1.76343 18.7697 1.21191 19.3213 1.21191 20C1.21191 20.6788 1.76343 21.2243 2.43616 21.2243H8.40586C9.08464 21.2243 9.63616 20.6728 9.63616 20Z" fill="white"/>
<path d="M11.3636 28.3515L7.13936 32.5758C6.66058 33.0546 6.66058 33.8303 7.13936 34.3091C7.38179 34.5455 7.69088 34.6667 8.00603 34.6667C8.32118 34.6667 8.63633 34.5455 8.8727 34.3091L13.0969 30.0849C13.5757 29.6061 13.5757 28.8303 13.0969 28.3515C12.6182 27.8727 11.8424 27.8727 11.3636 28.3515Z" fill="white"/>
<path d="M11.3636 11.6425C11.606 11.8849 11.9151 12 12.2303 12C12.5454 12 12.8606 11.8788 13.0969 11.6425C13.5757 11.1637 13.5757 10.3879 13.0969 9.90914L8.8727 5.6849C8.39391 5.20611 7.61815 5.20611 7.13936 5.6849C6.66058 6.16368 6.66058 6.93944 7.13936 7.41823L11.3636 11.6425Z" fill="white"/>
<path d="M15.3272 8.4182C15.5211 8.89093 15.9817 9.17578 16.4605 9.17578C16.6181 9.17578 16.7756 9.14547 16.9272 9.08487C17.5514 8.82426 17.8484 8.10911 17.5878 7.47881L16.3817 4.56366C16.1211 3.93941 15.4059 3.64244 14.7756 3.89699C14.1514 4.1576 13.8544 4.87275 14.115 5.49699L15.3272 8.4182Z" fill="white"/>
<path d="M6.01849 14.9334L8.93364 16.1394C9.08516 16.2061 9.24879 16.2303 9.40031 16.2303C9.8791 16.2303 10.3397 15.9455 10.5336 15.4728C10.7942 14.8485 10.4973 14.1273 9.86698 13.8728L6.95182 12.6667C6.32152 12.4061 5.60637 12.7031 5.35182 13.3334C5.09728 13.9576 5.39425 14.6728 6.01849 14.9334Z" fill="white"/>
<path d="M9.87238 26.1212C10.4966 25.8606 10.7936 25.1455 10.533 24.5212C10.2724 23.897 9.55722 23.594 8.93298 23.8606L6.01783 25.0667C5.39359 25.3212 5.09662 26.0364 5.35722 26.6667C5.55116 27.1394 6.01177 27.4243 6.49056 27.4243C6.64813 27.4243 6.80571 27.394 6.95722 27.3334L9.87238 26.1212Z" fill="white"/>
<path d="M16.9337 30.9152C16.3034 30.6546 15.5882 30.9516 15.3337 31.5758L14.1276 34.491C13.867 35.1152 14.164 35.8364 14.7943 36.091C14.9458 36.1576 15.1095 36.1819 15.261 36.1819C15.7398 36.1819 16.2004 35.897 16.3943 35.4243L17.6004 32.5091C17.8549 31.891 17.5579 31.1758 16.9337 30.9152Z" fill="white"/>
<path d="M35.9632 20L38.4177 17.7697C38.8844 17.3454 38.9208 16.6242 38.4965 16.1576C38.0723 15.6909 37.3511 15.6545 36.8844 16.0788L33.8299 18.8545H26.9268C26.8359 18.4182 26.6965 18 26.5086 17.606L26.5511 17.6424L31.339 12.8545L35.4662 12.6545C36.0965 12.6242 36.5814 12.0909 36.5511 11.4606C36.5208 10.8303 35.9814 10.3394 35.3571 10.3757L32.048 10.5333L32.2056 7.22422C32.2359 6.59392 31.7511 6.06059 31.1208 6.03028C30.5086 5.99392 29.9571 6.48483 29.9268 7.11513L29.7268 11.2424L25.1632 15.806C24.739 15.4303 24.2541 15.1151 23.7329 14.8788V8.75756L26.5086 5.70301C26.9329 5.23635 26.8965 4.51513 26.4299 4.09089C25.9632 3.66665 25.242 3.70301 24.8177 4.16968L23.7268 5.36968V4.94544C23.7268 4.31513 23.2177 3.80604 22.5874 3.80604C21.9571 3.80604 21.4541 4.31513 21.4541 4.94544V35.0545C21.4541 35.6848 21.9632 36.1939 22.5935 36.1939C23.2238 36.1939 23.7329 35.6848 23.7329 35.0545V34.6242L24.8238 35.8242C25.048 36.0727 25.3571 36.2 25.6662 36.2C25.9389 36.2 26.2117 36.103 26.4299 35.903C26.8965 35.4788 26.9329 34.7576 26.5086 34.2909L23.7329 31.2363V25.1151C24.2602 24.8788 24.745 24.5636 25.1693 24.1818C25.1693 24.1818 25.1693 24.1818 25.1632 24.1879L29.7268 28.7515L29.9268 32.8788C29.9571 33.4909 30.4602 33.9636 31.0662 33.9636C31.0844 33.9636 31.1026 33.9636 31.1208 33.9636C31.7511 33.9333 32.2359 33.4 32.2056 32.7697L32.048 29.4606L35.3571 29.6182C35.9814 29.6666 36.5208 29.1636 36.5511 28.5333C36.5814 27.903 36.0965 27.3697 35.4662 27.3394L31.339 27.1394L26.5511 22.3515L26.5086 22.3939C26.6965 22 26.8299 21.5818 26.9268 21.1454H33.8238L36.8783 23.9212C37.0965 24.1212 37.3693 24.2182 37.642 24.2182C37.9511 24.2182 38.2602 24.0909 38.4844 23.8424C38.9086 23.3757 38.8723 22.6545 38.4056 22.2303L35.9632 20Z" fill="white"/>
<path d="M11.9277 20C11.9277 24.8425 15.5459 28.8425 20.2429 29.4425V10.5576C15.5459 11.1516 11.9277 15.1394 11.9277 20Z" fill="white"/>
</g>
<defs>
<clipPath id="clip0_513_13622">
<rect width="40" height="40.6061" fill="white"/>
</clipPath>
</defs>
</svg>
