<svg width="36" height="38" viewBox="0 0 36 38" fill="none" xmlns="http://www.w3.org/2000/svg">
<path d="M30.2285 25.8463L23.2199 28.8328C23.3429 26.9409 21.8372 25.3477 19.957 25.3465L16.2854 25.3442C15.7382 25.3435 15.5095 24.96 15.0435 24.629C13.1553 23.0898 10.7739 22.2416 8.33766 22.2404L6.50589 22.2396V22.0469C6.50589 21.3058 5.89999 20.7058 5.15881 20.7058H1.34705C0.605871 20.7058 0.00585938 21.3058 0.00585938 22.0469V34.741C0.00585938 35.4821 0.605871 36.0881 1.34705 36.0881H5.15881C5.82272 36.0881 6.37448 35.6007 6.48305 34.9668L11.8013 36.8286C14.0655 37.6219 16.4417 37.9514 18.6553 37.0299L32.4493 30.985C33.8669 30.3639 34.5109 28.7138 33.8885 27.2956C33.2748 25.8977 31.6318 25.2471 30.2285 25.8463ZM3.6177 33.5588C3.08232 33.5588 2.64114 33.1176 2.64114 32.5822C2.64114 32.0411 3.08232 31.5999 3.6177 31.5999C4.15883 31.5999 4.60001 32.0411 4.60001 32.5822C4.60001 33.1176 4.15883 33.5588 3.6177 33.5588ZM31.9771 29.9073L18.1929 35.9479C16.5503 36.6327 14.5862 36.5574 12.1902 35.7182L6.55515 33.7455L6.55945 23.4161L8.33708 23.4169C10.5033 23.4178 12.621 24.1723 14.3001 25.5407C14.6789 25.7914 15.2082 26.5194 16.2846 26.5207L19.9565 26.523C21.1114 26.5235 22.0509 27.4639 22.0503 28.6191C22.0503 29.7726 21.1171 30.7136 19.955 30.7136C19.9547 30.7136 19.9542 30.7136 19.9539 30.7136L14.303 30.711C13.9782 30.711 13.7148 30.9744 13.7145 31.2989C13.7142 31.6238 13.9776 31.8872 14.3024 31.8875L19.9533 31.89C19.9539 31.89 19.9544 31.89 19.955 31.89C21.133 31.89 22.1772 31.2685 22.758 30.3083L30.6897 26.9285C31.5026 26.5816 32.4556 26.9584 32.8115 27.7689C33.172 28.5897 32.7991 29.5477 31.9771 29.9073Z" fill="white"/>
<path d="M31.9893 0.412598H17.6944C15.4856 0.412598 13.6885 2.20947 13.6885 4.4188V17.0096C13.6885 19.2183 15.4856 21.0158 17.6944 21.0158H21.1359V24.042C21.1359 24.6707 21.6475 25.1822 22.2762 25.1822H27.4077C28.0365 25.1822 28.548 24.6707 28.548 24.042L28.5341 21.0158H31.9893C34.1983 21.0158 35.9955 19.2183 35.9955 17.0096V4.4188C35.9955 2.20947 34.1983 0.412598 31.9893 0.412598ZM34.819 17.0096C34.819 18.5698 33.5495 19.8393 31.9893 19.8393H28.5288L28.5118 16.1536H29.9307C30.8923 16.1536 31.4203 15.0379 30.8108 14.2933L25.7206 8.07862C25.5034 7.81265 25.1826 7.66042 24.8402 7.66013C24.4982 7.66013 24.1768 7.81265 23.9593 8.07833L18.8729 14.2933C18.2645 15.0361 18.7898 16.1536 19.7532 16.1536L21.1359 16.1174V19.8393H17.6944C16.1342 19.8393 14.8649 18.5698 14.8649 17.0096V4.4188C14.8649 2.85831 16.1342 1.58907 17.6944 1.58907H21.0092V5.00819C21.0092 5.47521 21.525 5.75009 21.9106 5.50623L22.6806 5.02197L23.4475 5.50566C23.6394 5.62687 23.8832 5.62687 24.0745 5.50623L24.8446 5.02197L25.6117 5.50566C25.8036 5.62687 26.0477 5.62687 26.2396 5.50566L27.0062 5.02226L27.7725 5.50566C28.1638 5.75247 28.6747 5.47103 28.6747 5.00819V1.58907H31.9893C33.5495 1.58907 34.819 2.85831 34.819 4.4188V17.0096Z" fill="white"/>
</svg>
