<svg width="39" height="39" viewBox="0 0 39 39" fill="none" xmlns="http://www.w3.org/2000/svg">
<path d="M25.3925 19.4696L29.6128 15.2554C30.0811 14.7872 30.7135 14.5561 31.4189 14.5439C33.3284 14.5561 35.1405 13.8324 36.4905 12.4764C38.4061 10.5608 39.0507 7.77568 38.175 5.20338C38.102 5.0027 37.9378 4.85676 37.7371 4.80811C37.5304 4.75946 37.3175 4.82027 37.1655 4.9723L33.8088 8.32297L31.4007 7.59933L30.6709 5.18514L34.0277 1.82838C34.1736 1.68243 34.2344 1.46351 34.1858 1.25676C34.1371 1.05608 33.9912 0.891893 33.7905 0.825002C31.2182 -0.0506741 28.4331 0.600002 26.5236 2.50946C25.2344 3.79865 24.5108 5.48919 24.4682 7.28919C24.4621 7.32568 24.6689 8.32297 23.7446 9.38108L17.6757 15.45L8.66349 6.60203L7.38647 4.08446L2.84998 1.06216L0.496601 3.41554L3.5189 7.95203L6.03647 9.23514L15.0486 18.0831L9.37498 23.7568C8.91282 24.2189 8.25606 24.4561 7.57498 24.4561C5.6412 24.45 3.85944 25.1736 2.50336 26.5297C0.593898 28.4392 -0.0567776 31.2243 0.818898 33.7966C0.88579 33.9973 1.05606 34.1493 1.25674 34.198C1.46349 34.2405 1.67633 34.1797 1.82836 34.0338L5.17903 30.677L7.5993 31.4068L8.32295 33.8209L4.97228 37.1777C4.82633 37.3236 4.76552 37.5365 4.80809 37.7432C4.85674 37.95 5.00876 38.1142 5.20944 38.1811C5.96349 38.4365 6.73579 38.5642 7.50201 38.5642C9.33849 38.5642 11.1202 37.8466 12.4763 36.4966C13.7412 35.2196 14.4588 33.5595 14.5317 31.7777C14.4101 30.7682 14.7871 30.0811 15.2554 29.6128L19.0682 25.8L29.698 36.4358C30.5736 37.3054 31.7169 37.7432 32.8662 37.7432C34.0094 37.7432 35.1588 37.3054 36.0284 36.4358C37.7736 34.6905 37.7736 31.8507 36.0284 30.1054L25.3925 19.4696ZM27.3871 3.37297C28.7189 2.02906 30.5797 1.44527 32.404 1.73108L29.552 4.58311C29.3939 4.74122 29.3392 4.9723 29.4 5.18514L30.3304 8.26216C30.3912 8.45676 30.5432 8.60878 30.7378 8.6696L33.8088 9.59392C34.0216 9.65473 34.2588 9.6 34.4169 9.44189L37.2689 6.58987C37.5608 8.42027 36.9709 10.275 35.627 11.6128C35.627 11.6189 35.627 11.6189 35.627 11.6189C34.5081 12.7378 33.0304 13.3642 31.4311 13.3277C31.3702 13.3277 31.3094 13.3459 31.2425 13.3459H31.2365C26.0128 12.5736 25.7635 8.90068 25.6723 7.48378C25.6723 5.93311 26.2743 4.47973 27.3871 3.37297ZM11.6128 35.6331C10.275 36.9709 8.41417 37.5608 6.58984 37.275L9.44187 34.423C9.59998 34.2649 9.65471 34.0338 9.5939 33.8149L8.66957 30.7439C8.60876 30.5493 8.45674 30.3973 8.26214 30.3426L5.18511 29.4061C4.9662 29.3392 4.73511 29.4 4.57701 29.5581L1.72498 32.4162C1.43917 30.5858 2.02295 28.725 3.36687 27.3872C4.47363 26.2804 5.93309 25.6723 7.49593 25.6723H7.55674C7.58714 25.6723 7.61147 25.6662 7.63579 25.6662C12.9628 26.4507 13.2304 30.4277 13.3155 31.7412C13.2547 33.2068 12.6588 34.5811 11.6128 35.6331ZM14.3919 28.7554C14.2642 28.8831 14.1486 29.0169 14.0452 29.1628C13.2365 26.8277 11.5642 25.5932 9.80674 24.9608C9.95876 24.8514 10.1047 24.748 10.2385 24.6142L24.6081 10.2385C24.7115 10.1351 24.8088 10.0196 24.8939 9.90405C25.5689 11.9473 26.9858 13.3459 29.1324 14.0878C29.0047 14.1851 28.8709 14.2764 28.7493 14.398L14.3919 28.7554ZM30.5615 35.5723L20.9412 25.952C21.7135 26.1709 22.4493 26.5845 23.0574 27.1804C23.6655 27.7764 29.0412 32.9757 30.8898 35.025C31.2182 35.3899 31.4128 35.7973 31.4919 36.2108C31.1574 36.0588 30.8351 35.852 30.5615 35.5723ZM34.2952 34.9216C33.6324 35.5845 32.4101 35.852 31.2973 34.8547C29.5824 33.3101 25.5507 29.2115 23.4466 27.0345C22.6561 26.2196 22.1574 25.1858 22.054 24.1216C21.9446 22.9176 22.279 22.5831 23.477 22.6865C24.5534 22.7899 25.5932 23.2824 26.4081 24.073C26.4081 24.073 32.6655 30.1784 34.2284 31.9297C35.2196 33.0426 34.952 34.2588 34.2952 34.9216ZM34.8486 31.8568C33.1034 30.2939 26.9919 24.0304 26.9919 24.0304C26.2986 23.3128 25.8486 22.4128 25.6784 21.4703L35.1709 30.9628C35.5905 31.3885 35.8642 31.9054 36.004 32.4466C35.6027 32.3676 35.2074 32.173 34.8486 31.8568Z" fill="white"/>
<path d="M25.7091 15.4378L15.4443 25.7088C15.1524 25.9946 14.7693 26.1588 14.3618 26.1588C13.9544 26.1588 13.5774 25.9946 13.2916 25.7027C13.0058 25.4351 12.8477 25.052 12.8477 24.6385C12.8477 24.225 13.0058 23.8419 13.2977 23.5561L23.5564 13.2912C24.2801 12.6953 24.949 12.8716 25.3868 13.1209C25.77 13.3399 26.074 13.7169 26.1348 14.1608C26.1956 14.6108 26.0558 15.0912 25.7091 15.4378Z" fill="white"/>
<path d="M7.56275 26.5358C7.39856 26.5176 7.24045 26.627 7.21613 26.7912C7.1918 26.9554 7.30734 27.1135 7.47153 27.1378C10.5121 27.5757 11.7344 29.777 11.8621 31.6926C11.8742 31.8507 12.008 31.9784 12.1661 31.9784C12.1722 31.9784 12.1783 31.9784 12.1844 31.9784C12.3546 31.9662 12.4763 31.8203 12.4702 31.6561C12.3425 29.6007 10.9742 27.0223 7.56275 26.5358Z" fill="white"/>
<path d="M31.4372 12.4095C31.4494 12.4095 31.4676 12.4095 31.4798 12.4095C31.6257 12.4095 31.7595 12.3 31.7778 12.148C31.8021 11.9838 31.6865 11.8257 31.5224 11.8013C27.9832 11.2784 27.3811 9.34459 27.2534 7.33175C27.2413 7.16148 27.1014 7.03377 26.9311 7.04594C26.7609 7.0581 26.6332 7.19796 26.6453 7.36823C26.773 9.41148 27.4298 11.8196 31.4372 12.4095Z" fill="white"/>
</svg>
