<svg width="36" height="38" viewBox="0 0 36 38" fill="none" xmlns="http://www.w3.org/2000/svg">
<path fill-rule="evenodd" clip-rule="evenodd" d="M15.2468 0.451721H20.7363V7.95727C20.7363 9.4666 19.5013 10.7015 17.992 10.7015C16.4822 10.7015 15.2468 9.46754 15.2468 7.95727V0.451721ZM17.9915 15.8468C19.7285 15.8468 21.1372 17.2555 21.1372 18.9925C21.1372 20.7294 19.7285 22.1381 17.9915 22.1381C16.2546 22.1381 14.8459 20.7294 14.8459 18.9925C14.8459 17.2555 16.2546 15.8468 17.9915 15.8468ZM17.9915 11.7788C21.9745 11.7788 25.2052 15.0095 25.2052 18.9925C25.2052 22.9755 21.9745 26.2062 17.9915 26.2062C14.0085 26.2062 10.7778 22.9755 10.7778 18.9925C10.7778 15.0095 14.0085 11.7788 17.9915 11.7788ZM17.9915 13.8246C15.1372 13.8246 12.8237 16.1381 12.8237 18.9925C12.8237 21.8468 15.1372 24.1603 17.9915 24.1603C20.8459 24.1603 23.1594 21.8468 23.1594 18.9925C23.1594 16.1381 20.8459 13.8246 17.9915 13.8246ZM32.6758 7.34523L35.4206 12.0989L28.9209 15.852C27.6142 16.6062 25.9268 16.1547 25.1722 14.8475C24.4185 13.5422 24.8704 11.852 26.1762 11.0978L32.6758 7.34523ZM35.4206 25.886L32.6758 30.6397L26.1762 26.8871C24.8709 26.133 24.4185 24.4427 25.1722 23.1374C25.9268 21.8302 27.6137 21.3788 28.9209 22.133L35.4206 25.886ZM20.7363 37.5332H15.2468V30.0276C15.2468 28.5183 16.4817 27.2834 17.9911 27.2834C19.5009 27.2834 20.7363 28.5174 20.7363 30.0276V37.5332ZM3.30725 30.6397L0.5625 25.886L7.06215 22.133C8.36462 21.3811 10.0435 21.8274 10.8024 23.1223C11.482 24.4815 11.1958 26.0853 9.80689 26.8871L3.30725 30.6397ZM0.5625 12.0989L3.30725 7.34523L9.80689 11.0978C11.1141 11.8529 11.5665 13.5393 10.8118 14.8465C9.72755 15.9313 8.76793 16.8371 7.06215 15.852L0.5625 12.0989Z" fill="white"/>
</svg>
