<svg width="40" height="46" viewBox="0 0 40 46" fill="none" xmlns="http://www.w3.org/2000/svg">
<path d="M19.9978 45.5C19.2478 45.5 18.5478 45.1 18.1978 44.5C18.2478 44.5 18.2478 44.5 18.2978 44.55C18.3978 44.6 18.4978 44.6 18.5978 44.65C18.6478 44.65 18.6478 44.65 18.6978 44.7C18.7978 44.75 18.9478 44.75 19.0478 44.8H19.0978C19.3978 44.85 19.6978 44.9 19.9978 44.9C20.2978 44.9 20.5978 44.85 20.8978 44.8H20.9478C21.0478 44.8 21.1978 44.75 21.2978 44.7C21.3478 44.7 21.3478 44.7 21.3978 44.65C21.4978 44.6 21.5978 44.6 21.6978 44.55C21.7478 44.55 21.7478 44.55 21.7978 44.5C21.4478 45.1 20.7478 45.5 19.9978 45.5ZM22.3478 43.1C21.2978 43.8 19.9478 43.95 18.7978 43.6C18.5978 43.55 18.3978 43.45 18.1978 43.4C17.9978 43.3 17.8478 43.2 17.6478 43.1C17.1478 42.75 16.6978 42.3 16.3978 41.75H23.5978C23.2978 42.3 22.8478 42.75 22.3478 43.1ZM24.1978 39.6C24.1978 40 24.1478 40.4 24.0478 40.75H15.9478C15.8478 40.4 15.7978 40 15.7978 39.6V39.2H24.1978V39.6ZM15.7978 38.2V36.65H24.1978V38.2H15.7978ZM17.8478 26.6H16.1978C15.2978 26.6 14.5478 25.85 14.5478 24.95C14.5478 24.05 15.2978 23.3 16.1978 23.3C17.0978 23.3 17.8478 24.05 17.8478 24.95V26.6ZM18.8478 27.6H21.1978V35.7H18.8478V27.6ZM22.1478 26.6V24.95C22.1478 24.05 22.8978 23.3 23.7978 23.3C24.6978 23.3 25.4478 24.05 25.4478 24.95C25.4478 25.85 24.6978 26.6 23.7978 26.6H22.1478ZM25.4978 35.2C25.4478 35.5 25.1978 35.7 24.8978 35.7H24.6978H22.1978V27.6H23.6978C25.1478 27.6 26.3478 26.4 26.3478 24.95C26.3478 23.5 25.1478 22.3 23.6978 22.3C22.2478 22.3 21.0478 23.5 21.0478 24.95V26.6H18.7978V24.95C18.7978 23.5 17.5978 22.3 16.1478 22.3C14.6978 22.3 13.4978 23.5 13.4978 24.95C13.4978 26.4 14.6978 27.6 16.1478 27.6H17.7978V35.7H15.1978H14.9978C14.6978 35.7 14.4478 35.5 14.3978 35.2C13.7978 32.2 12.5478 29.2 10.6978 26.2C9.39781 24.2 8.84781 21.85 9.04781 19.45C9.49781 14.1 13.8978 9.85 19.2478 9.5C19.4978 9.5 19.6978 9.5 19.9478 9.5C22.7478 9.5 25.3478 10.55 27.3978 12.45C29.5978 14.55 30.8478 17.35 30.8478 20.4C30.8478 22.6 30.1978 24.7 28.9478 26.55C27.3478 29 26.1478 31.9 25.4978 35.2Z" fill="white"/>
<path d="M19.4992 6.55C19.5492 6.75 19.7492 6.9 19.9992 6.9C20.2492 6.9 20.3992 6.75 20.4992 6.55L22.1992 1.15C22.2492 1 22.1992 0.85 22.1492 0.7C21.9992 0.6 21.8492 0.5 21.6992 0.5H18.2992C18.1492 0.5 17.9992 0.6 17.8992 0.7C17.7992 0.85 17.7992 1 17.8492 1.15L19.4992 6.55Z" fill="white"/>
<path d="M39.5984 18.2C39.4484 18.1 39.2984 18.1 39.1484 18.15L33.7484 19.85C33.5484 19.9 33.3984 20.1 33.3984 20.35C33.3984 20.55 33.5484 20.75 33.7484 20.85L39.1484 22.55C39.1984 22.55 39.2484 22.55 39.2984 22.55C39.3984 22.55 39.4984 22.5 39.5984 22.45C39.7484 22.35 39.7984 22.2 39.7984 22.05V18.65C39.7984 18.45 39.6984 18.3 39.5984 18.2Z" fill="white"/>
<path d="M6.59922 20.3C6.59922 20.1 6.44922 19.9 6.24922 19.8L0.849219 18.1C0.699219 18.05 0.549219 18.1 0.399219 18.15C0.249219 18.25 0.199219 18.4 0.199219 18.55V22C0.199219 22.15 0.299219 22.3 0.399219 22.4C0.499219 22.45 0.599219 22.5 0.699219 22.5C0.749219 22.5 0.799219 22.5 0.849219 22.5L6.24922 20.8C6.44922 20.7 6.59922 20.5 6.59922 20.3Z" fill="white"/>
<path d="M29.8497 10.95C29.9497 10.95 29.9997 10.95 30.0997 10.9L35.0997 8.30001C35.2497 8.25001 35.3497 8.10001 35.3497 7.95001C35.3497 7.80001 35.2997 7.65001 35.1997 7.50001L32.7997 5.10001C32.6997 5.00001 32.5497 4.95001 32.3497 4.95001C32.1997 4.95001 32.0497 5.05001 31.9997 5.20001L29.3997 10.2C29.2997 10.4 29.3497 10.65 29.4997 10.8C29.5997 10.9 29.6997 10.95 29.8497 10.95Z" fill="white"/>
<path d="M9.94922 29.7L4.94922 32.3C4.79922 32.35 4.69922 32.5 4.69922 32.65C4.69922 32.8 4.74922 32.95 4.84922 33.1L7.24922 35.5C7.34922 35.6 7.44922 35.65 7.59922 35.65C7.64922 35.65 7.64922 35.65 7.69922 35.65C7.84922 35.65 7.99922 35.55 8.04922 35.4L10.6492 30.4C10.7492 30.2 10.6992 29.95 10.5492 29.8C10.3492 29.6 10.1492 29.6 9.94922 29.7Z" fill="white"/>
<path d="M35.0997 32.3L30.0997 29.7C29.8997 29.6 29.6497 29.65 29.4997 29.8C29.3497 29.95 29.2997 30.2 29.3997 30.4L31.9997 35.4C32.0497 35.55 32.1997 35.65 32.3497 35.65C32.3997 35.65 32.3997 35.65 32.4497 35.65C32.5997 35.65 32.6997 35.6 32.7997 35.5L35.1997 33.1C35.2997 33 35.3497 32.85 35.3497 32.65C35.2997 32.5 35.1997 32.35 35.0997 32.3Z" fill="white"/>
<path d="M4.89844 8.30001L9.89844 10.9C9.94844 10.95 10.0484 10.95 10.1484 10.95C10.2984 10.95 10.3984 10.9 10.4984 10.8C10.6484 10.65 10.6984 10.4 10.5984 10.2L7.99844 5.20001C7.94844 5.05001 7.79844 4.95001 7.64844 4.95001C7.49844 4.95001 7.34844 5.00001 7.19844 5.10001L4.79844 7.50001C4.69844 7.60001 4.64844 7.75001 4.64844 7.95001C4.69844 8.10001 4.79844 8.25001 4.89844 8.30001Z" fill="white"/>
</svg>
