<svg width="54" height="55" viewBox="0 0 54 55" fill="none" xmlns="http://www.w3.org/2000/svg">
<g id="Layer 2">
<g id="Layer 1">
<path id="Vector" d="M53.6469 11.7775C52.8367 9.10399 51.357 6.68172 49.3481 4.74044C44.6666 -1.52448e-05 38.7189 -1.38388 35.804 1.53106L21.2293 16.253C20.4638 17.1302 19.9501 18.1984 19.7427 19.3441C19.5354 20.4897 19.6421 21.6702 20.0515 22.7601C20.8629 25.4331 22.3424 27.8551 24.3503 29.7972C26.8019 32.5 30.1934 34.1641 33.8312 34.4493C34.5765 34.4794 35.3203 34.3594 36.0183 34.0964C36.7164 33.8334 37.3544 33.4327 37.8945 32.9182L52.4692 18.1963C53.2187 17.3279 53.723 16.2752 53.93 15.1469C54.137 14.0186 54.0393 12.8555 53.6469 11.7775ZM26.4997 27.5594C24.8328 25.989 23.5875 24.0248 22.8781 21.8473C22.6338 21.2517 22.5461 20.6034 22.6234 19.9643C22.7007 19.3251 22.9405 18.7165 23.3198 18.1963C23.8623 17.7191 24.5713 17.4757 25.2925 17.5191C25.856 17.4935 26.4204 17.543 26.9708 17.6663C29.1519 18.3829 31.1167 19.6388 32.6829 21.3173C36.3634 24.9978 37.2762 29.2083 35.804 30.6805C34.3318 32.1527 30.1213 31.2399 26.4997 27.5594ZM50.4375 16.1058L39.2489 27.2355C38.6037 24.1739 37.0428 21.3808 34.7734 19.2268C32.8313 17.2189 30.4094 15.7394 27.7364 14.928C27.4163 14.8425 27.0919 14.7737 26.7647 14.7219L37.8945 3.59213C39.3667 2.14939 43.5771 2.94437 47.1104 6.74262C48.7471 8.3214 49.9619 10.2853 50.6437 12.4547C50.9134 13.0357 51.0306 13.6758 50.9842 14.3146C50.9378 14.9534 50.7294 15.5699 50.3787 16.1058H50.4375Z" fill="#00CC83"/>
<path id="Vector_2" d="M36.834 37.747H33.8896V43.6358H36.834V37.747Z" fill="#00CC83"/>
<path id="Vector_3" d="M7.39072 17.1363H1.50195V20.0807H7.39072V17.1363Z" fill="#00CC83"/>
<path id="Vector_4" d="M16.2237 17.1363H10.335V20.0807H16.2237V17.1363Z" fill="#00CC83"/>
<path id="Vector_5" d="M11.4818 40.4441L7.31641 44.6066L9.39767 46.6893L13.5631 42.5268L11.4818 40.4441Z" fill="#00CC83"/>
<path id="Vector_6" d="M5.22699 46.6827L1.06445 50.8482L3.14717 52.9294L7.30971 48.764L5.22699 46.6827Z" fill="#00CC83"/>
<path id="Vector_7" d="M17.7011 34.2233L13.5371 38.3872L15.6191 40.4692L19.7831 36.3052L17.7011 34.2233Z" fill="#00CC83"/>
<path id="Vector_8" d="M5.72611 28.4742L-0.00683594 29.8199L0.666017 32.6864L6.39896 31.3407L5.72611 28.4742Z" fill="#00CC83"/>
<path id="Vector_9" d="M14.3506 26.4957L8.61621 27.8354L9.28606 30.7025L15.0204 29.3628L14.3506 26.4957Z" fill="#00CC83"/>
<path id="Vector_10" d="M23.8703 47.7942L22.8252 53.6493L25.7238 54.1667L26.7688 48.3115L23.8703 47.7942Z" fill="#00CC83"/>
<path id="Vector_11" d="M25.382 39.2218L24.3301 45.0159L27.2271 45.5418L28.279 39.7478L25.382 39.2218Z" fill="#00CC83"/>
<path id="Vector_12" d="M36.834 46.5801H33.8896V52.4689H36.834V46.5801Z" fill="#00CC83"/>
</g>
</g>
</svg>
