<svg width="71" height="67" viewBox="0 0 71 67" fill="none" xmlns="http://www.w3.org/2000/svg">
<g clip-path="url(#clip0_513_9111)">
<path d="M25.3465 41.8942C22.7366 41.8942 20.6133 39.7709 20.6133 37.161C20.6133 34.5512 22.7366 32.4279 25.3465 32.4279C27.9563 32.4279 30.0796 34.5512 30.0796 37.161C30.0796 39.7709 27.9563 41.8942 25.3465 41.8942ZM25.3465 35.0452C24.1797 35.0452 23.2305 35.9944 23.2305 37.1612C23.2305 38.3279 24.1797 39.2772 25.3465 39.2772C26.5132 39.2772 27.4625 38.3279 27.4625 37.1612C27.4625 35.9944 26.5132 35.0452 25.3465 35.0452Z" fill="#00CC83"/>
<path d="M25.0684 51.1659C24.2648 51.1659 23.4545 51.0948 22.6599 50.9545C19.3344 50.3675 16.2937 48.555 14.0982 45.8509C11.8899 43.1312 10.6738 39.6644 10.6738 36.0892V22.3211C10.6738 21.5983 11.2597 21.0125 11.9824 21.0125H35.9184C36.6412 21.0125 37.227 21.5983 37.227 22.3211C37.227 23.0438 36.6412 23.6297 35.9184 23.6297H13.291V36.0892C13.291 42.2044 17.4225 47.3723 23.1149 48.3771C24.7413 48.664 26.4212 48.5873 27.9979 48.1604C33.2073 46.7498 36.8457 41.7857 36.8457 36.0892V26.6282C36.8457 25.9054 37.4316 25.3196 38.1543 25.3196C38.8769 25.3196 39.4629 25.9054 39.4629 26.6282V36.0892C39.4629 42.9651 35.0296 48.9677 28.6819 50.6867C27.5071 51.0047 26.2914 51.1659 25.0684 51.1659Z" fill="#00CC83"/>
<path d="M21.1426 19.0636H15.9082C15.1855 19.0636 14.5996 18.4777 14.5996 17.755V6.67371C14.5996 4.50903 16.3607 2.74792 18.5254 2.74792C20.6901 2.74792 22.4512 4.50903 22.4512 6.67371V17.755C22.4512 18.4777 21.8653 19.0636 21.1426 19.0636ZM17.2168 16.4464H19.834V6.67371C19.834 5.95215 19.2469 5.36511 18.5254 5.36511C17.8038 5.36511 17.2168 5.95215 17.2168 6.67371V16.4464Z" fill="#00CC83"/>
<path d="M34.2285 19.0636H28.9941C28.2714 19.0636 27.6855 18.4777 27.6855 17.755V6.67371C27.6855 4.50903 29.4467 2.74792 31.6113 2.74792C33.776 2.74792 35.5371 4.50903 35.5371 6.67371V17.755C35.5371 18.4777 34.9513 19.0636 34.2285 19.0636ZM30.3027 16.4464H32.9199V6.67371C32.9199 5.95215 32.3329 5.36511 31.6113 5.36511C30.8898 5.36511 30.3027 5.95215 30.3027 6.67371V16.4464Z" fill="#00CC83"/>
<path d="M38.8225 23.6297H9.36523C8.6425 23.6297 8.05664 23.0438 8.05664 22.3211V17.7549C8.05664 17.0321 8.6425 16.4463 9.36523 16.4463H40.7715C41.4941 16.4463 42.0801 17.0321 42.0801 17.7549C42.0801 18.4776 41.4941 19.0635 40.7715 19.0635H10.6738V21.0125H38.8225C39.5451 21.0125 40.1311 21.5984 40.1311 22.3211C40.1311 23.0438 39.5452 23.6297 38.8225 23.6297Z" fill="#00CC83"/>
<path d="M28.7714 28.1959H11.9824C11.2597 28.1959 10.6738 27.61 10.6738 26.8873C10.6738 26.1646 11.2597 25.5787 11.9824 25.5787H28.7714C29.4942 25.5787 30.08 26.1646 30.08 26.8873C30.08 27.61 29.4942 28.1959 28.7714 28.1959Z" fill="#00CC83"/>
<path d="M38.1547 28.1959H33.3379C32.6152 28.1959 32.0293 27.61 32.0293 26.8873C32.0293 26.1646 32.6152 25.5787 33.3379 25.5787H38.1547C38.8773 25.5787 39.4633 26.1646 39.4633 26.8873C39.4633 27.61 38.8773 28.1959 38.1547 28.1959Z" fill="#00CC83"/>
<path d="M56.4746 64.2518H54.9791C54.2565 64.2518 53.6706 63.6658 53.6706 62.9432C53.6706 62.2206 54.2565 61.6346 54.9791 61.6346H56.4746C57.9177 61.6346 59.0918 60.4606 59.0918 59.0175C59.0918 57.5743 57.9177 56.4003 56.4746 56.4003H49.9316C47.0454 56.4003 44.6973 54.0521 44.6973 51.1659C44.6973 48.2797 47.0454 45.9315 49.9316 45.9315H66.9434C67.666 45.9315 68.252 46.5175 68.252 47.2401C68.252 47.9627 67.666 48.5487 66.9434 48.5487H49.9316C48.4885 48.5487 47.3145 49.7228 47.3145 51.1659C47.3145 52.609 48.4885 53.7831 49.9316 53.7831H56.4746C59.3608 53.7831 61.709 56.1312 61.709 59.0175C61.709 61.9037 59.3608 64.2518 56.4746 64.2518ZM48.4362 64.2518H11.9824C9.09619 64.2518 6.74805 61.9037 6.74805 59.0175C6.74805 56.1312 9.09619 53.7831 11.9824 53.7831H21.1426C22.5857 53.7831 23.7598 52.609 23.7598 51.1659V49.8573C23.7598 49.1347 24.3456 48.5487 25.0684 48.5487C25.7911 48.5487 26.377 49.1347 26.377 49.8573V51.1659C26.377 54.0521 24.0288 56.4003 21.1426 56.4003H11.9824C10.5393 56.4003 9.36523 57.5743 9.36523 59.0175C9.36523 60.4606 10.5393 61.6346 11.9824 61.6346H48.4362C49.1588 61.6346 49.7448 62.2206 49.7448 62.9432C49.7448 63.6658 49.1589 64.2518 48.4362 64.2518Z" fill="#00CC83"/>
</g>
<defs>
<clipPath id="clip0_513_9111">
<rect width="71" height="67" fill="white"/>
</clipPath>
</defs>
</svg>
