<svg width="70" height="69" viewBox="0 0 70 69" fill="none" xmlns="http://www.w3.org/2000/svg">
<g clip-path="url(#clip0_513_9138)">
<path d="M60.2024 26.979C59.8883 26.9786 59.5814 26.8851 59.3204 26.7104C59.0594 26.5358 58.856 26.2877 58.7359 25.9975C58.6157 25.7073 58.5843 25.388 58.6454 25.0799C58.7066 24.7719 58.8576 24.4888 59.0795 24.2665C59.9211 23.4196 60.3934 22.2741 60.3934 21.0801C60.3934 19.8861 59.9211 18.7406 59.0795 17.8936L54.1066 12.9207C53.2489 12.0998 52.1074 11.6415 50.9201 11.6415C49.7328 11.6415 48.5914 12.0998 47.7337 12.9207C47.5128 13.1462 47.2292 13.3002 46.9198 13.3626C46.6103 13.425 46.2893 13.393 45.9982 13.2707C45.7079 13.1537 45.4594 12.952 45.2852 12.692C45.1109 12.4319 45.0189 12.1254 45.0212 11.8124C45.0212 10.6159 44.5469 9.4682 43.7022 8.6208C42.8575 7.7734 41.7114 7.29539 40.5149 7.29153H33.4857C32.2918 7.29538 31.1478 7.77138 30.3036 8.61563C29.4593 9.45989 28.9833 10.6038 28.9795 11.7978C28.9817 12.1108 28.8897 12.4173 28.7155 12.6774C28.5412 12.9374 28.2928 13.1391 28.0024 13.2561C27.7114 13.3784 27.3903 13.4104 27.0809 13.348C26.7714 13.2856 26.4879 13.1317 26.267 12.9061C25.4093 12.0852 24.2678 11.6269 23.0805 11.6269C21.8933 11.6269 20.7518 12.0852 19.8941 12.9061L14.9212 17.8936C14.0796 18.7406 13.6073 19.8861 13.6073 21.0801C13.6073 22.2741 14.0796 23.4196 14.9212 24.2665C15.143 24.4888 15.2941 24.7719 15.3552 25.0799C15.4164 25.388 15.3849 25.7073 15.2648 25.9975C15.1446 26.2877 14.9412 26.5358 14.6802 26.7104C14.4192 26.8851 14.1123 26.9786 13.7982 26.979C12.6043 26.9829 11.4603 27.4589 10.6161 28.3031C9.77184 29.1474 9.29584 30.2913 9.29199 31.4853V38.5145C9.29584 39.7084 9.77184 40.8523 10.6161 41.6966C11.4603 42.5409 12.6043 43.0169 13.7982 43.0207C14.1123 43.0211 14.4192 43.1146 14.6802 43.2893C14.9412 43.464 15.1446 43.7121 15.2648 44.0023C15.3849 44.2925 15.4164 44.6117 15.3552 44.9198C15.2941 45.2279 15.143 45.5109 14.9212 45.7332C14.0796 46.5802 13.6073 47.7257 13.6073 48.9197C13.6073 50.1136 14.0796 51.2591 14.9212 52.1061L19.8941 57.079C20.7518 57.9 21.8933 58.3582 23.0805 58.3582C24.2678 58.3582 25.4093 57.9 26.267 57.079C26.4879 56.8535 26.7714 56.6995 27.0809 56.6371C27.3903 56.5747 27.7114 56.6067 28.0024 56.729C28.2928 56.8461 28.5412 57.0477 28.7155 57.3078C28.8897 57.5678 28.9817 57.8743 28.9795 58.1874C28.9795 59.3838 29.4538 60.5315 30.2985 61.3789C31.1431 62.2263 32.2893 62.7043 33.4857 62.7082H40.5149C41.7089 62.7044 42.8528 62.2284 43.6971 61.3841C44.5413 60.5398 45.0173 59.3959 45.0212 58.2019C45.0189 57.8889 45.1109 57.5824 45.2852 57.3224C45.4594 57.0623 45.7079 56.8606 45.9982 56.7436C46.2893 56.6213 46.6103 56.5893 46.9198 56.6517C47.2292 56.7141 47.5128 56.8681 47.7337 57.0936C48.5914 57.9146 49.7328 58.3728 50.9201 58.3728C52.1074 58.3728 53.2489 57.9146 54.1066 57.0936L59.0795 52.1207C59.9211 51.2737 60.3934 50.1282 60.3934 48.9342C60.3934 47.7403 59.9211 46.5948 59.0795 45.7478C58.8576 45.5255 58.7066 45.2424 58.6454 44.9344C58.5843 44.6263 58.6157 44.307 58.7359 44.0169C58.856 43.7267 59.0594 43.4786 59.3204 43.3039C59.5814 43.1292 59.8883 43.0357 60.2024 43.0353C61.3989 43.0314 62.545 42.5534 63.3897 41.706C64.2344 40.8586 64.7087 39.7109 64.7087 38.5145V31.4853C64.7048 30.2913 64.2288 29.1474 63.3846 28.3031C62.5403 27.4589 61.3964 26.9829 60.2024 26.979ZM61.792 38.5145C61.792 38.936 61.6245 39.3404 61.3264 39.6385C61.0283 39.9366 60.624 40.104 60.2024 40.104C59.312 40.104 58.4416 40.3678 57.7009 40.862C56.9603 41.3562 56.3827 42.0588 56.041 42.881C55.6993 43.7033 55.6089 44.6083 55.7811 45.4819C55.9533 46.3554 56.3805 47.1584 57.0087 47.7894C57.1581 47.9373 57.2768 48.1133 57.3578 48.3073C57.4388 48.5013 57.4805 48.7094 57.4805 48.9197C57.4805 49.1299 57.4388 49.338 57.3578 49.532C57.2768 49.726 57.1581 49.902 57.0087 50.0499L52.0503 55.0228C51.747 55.31 51.3451 55.47 50.9274 55.47C50.5097 55.47 50.1078 55.31 49.8045 55.0228C49.1751 54.3905 48.3722 53.9592 47.4975 53.7837C46.6228 53.6081 45.7156 53.6962 44.891 54.0366C44.0664 54.3771 43.3614 54.9547 42.8653 55.6962C42.3693 56.4377 42.1045 57.3098 42.1045 58.2019C42.1045 58.4107 42.0634 58.6174 41.9835 58.8103C41.9036 59.0031 41.7865 59.1783 41.6389 59.326C41.4913 59.4736 41.3161 59.5906 41.1232 59.6705C40.9304 59.7504 40.7237 59.7915 40.5149 59.7915H33.4857C33.0642 59.7915 32.6598 59.6241 32.3617 59.326C32.0636 59.0279 31.8962 58.6235 31.8962 58.2019C31.9033 57.3066 31.6427 56.4296 31.1478 55.6835C30.6529 54.9373 29.9464 54.3561 29.1188 54.0144C28.2912 53.6727 27.3804 53.5862 26.5033 53.7659C25.6262 53.9455 24.8227 54.3832 24.1962 55.0228C23.8928 55.31 23.491 55.47 23.0732 55.47C22.6555 55.47 22.2537 55.31 21.9503 55.0228L16.992 50.0499C16.8425 49.902 16.7239 49.726 16.6429 49.532C16.5619 49.338 16.5202 49.1299 16.5202 48.9197C16.5202 48.7094 16.5619 48.5013 16.6429 48.3073C16.7239 48.1133 16.8425 47.9373 16.992 47.7894C17.6202 47.1584 18.0473 46.3554 18.2195 45.4819C18.3918 44.6083 18.3013 43.7033 17.9596 42.881C17.6179 42.0588 17.0403 41.3562 16.2997 40.862C15.5591 40.3678 14.6886 40.104 13.7982 40.104C13.3767 40.104 12.9723 39.9366 12.6742 39.6385C12.3761 39.3404 12.2087 38.936 12.2087 38.5145V31.4853C12.2087 31.0637 12.3761 30.6594 12.6742 30.3613C12.9723 30.0632 13.3767 29.8957 13.7982 29.8957C14.6886 29.8957 15.5591 29.632 16.2997 29.1377C17.0403 28.6435 17.6179 27.9409 17.9596 27.1187C18.3013 26.2965 18.3918 25.3915 18.2195 24.5179C18.0473 23.6443 17.6202 22.8413 16.992 22.2103C16.8425 22.0625 16.7239 21.8864 16.6429 21.6924C16.5619 21.4984 16.5202 21.2903 16.5202 21.0801C16.5202 20.8698 16.5619 20.6617 16.6429 20.4677C16.7239 20.2737 16.8425 20.0977 16.992 19.9499L21.9503 14.977C22.2537 14.6898 22.6555 14.5297 23.0732 14.5297C23.491 14.5297 23.8928 14.6898 24.1962 14.977C24.8255 15.6093 25.6285 16.0405 26.5032 16.2161C27.3779 16.3916 28.285 16.3036 29.1096 15.9631C29.9343 15.6226 30.6393 15.0451 31.1353 14.3035C31.6314 13.562 31.8962 12.6899 31.8962 11.7978C31.8962 11.3762 32.0636 10.9719 32.3617 10.6738C32.6598 10.3757 33.0642 10.2082 33.4857 10.2082H40.5149C40.9365 10.2082 41.3408 10.3757 41.6389 10.6738C41.937 10.9719 42.1045 11.3762 42.1045 11.7978C42.1045 12.6899 42.3693 13.562 42.8653 14.3035C43.3614 15.0451 44.0664 15.6226 44.891 15.9631C45.7156 16.3036 46.6228 16.3916 47.4975 16.2161C48.3722 16.0405 49.1751 15.6093 49.8045 14.977C50.1078 14.6898 50.5097 14.5297 50.9274 14.5297C51.3451 14.5297 51.747 14.6898 52.0503 14.977L57.0087 19.9499C57.1581 20.0977 57.2768 20.2737 57.3578 20.4677C57.4388 20.6617 57.4805 20.8698 57.4805 21.0801C57.4805 21.2903 57.4388 21.4984 57.3578 21.6924C57.2768 21.8864 57.1581 22.0625 57.0087 22.2103C56.3805 22.8413 55.9533 23.6443 55.7811 24.5179C55.6089 25.3915 55.6993 26.2965 56.041 27.1187C56.3827 27.9409 56.9603 28.6435 57.7009 29.1377C58.4416 29.632 59.312 29.8957 60.2024 29.8957C60.624 29.8957 61.0283 30.0632 61.3264 30.3613C61.6245 30.6594 61.792 31.0637 61.792 31.4853V38.5145Z" fill="white"/>
<path d="M37.0003 24.7915C34.9813 24.7915 33.0076 25.3902 31.3289 26.5119C29.6501 27.6337 28.3417 29.228 27.5691 31.0933C26.7964 32.9586 26.5943 35.0112 26.9881 36.9914C27.382 38.9716 28.3543 40.7906 29.7819 42.2182C31.2096 43.6459 33.0286 44.6182 35.0088 45.0121C36.989 45.4059 39.0416 45.2038 40.9069 44.4311C42.7722 43.6585 44.3665 42.3501 45.4882 40.6713C46.61 38.9926 47.2087 37.0189 47.2087 34.9999C47.2087 32.2924 46.1331 29.6959 44.2187 27.7815C42.3043 25.8671 39.7077 24.7915 37.0003 24.7915ZM37.0003 42.2915C35.5582 42.2915 34.1484 41.8639 32.9493 41.0627C31.7502 40.2614 30.8156 39.1226 30.2637 37.7903C29.7118 36.4579 29.5674 34.9918 29.8488 33.5773C30.1301 32.1629 30.8246 30.8636 31.8443 29.8439C32.8641 28.8241 34.1634 28.1297 35.5778 27.8483C36.9922 27.567 38.4584 27.7114 39.7907 28.2632C41.1231 28.8151 42.2619 29.7497 43.0631 30.9488C43.8643 32.1479 44.292 33.5577 44.292 34.9999C44.292 36.9337 43.5238 38.7884 42.1563 40.1559C40.7889 41.5233 38.9342 42.2915 37.0003 42.2915Z" fill="white"/>
</g>
<defs>
<clipPath id="clip0_513_9138">
<rect width="70" height="68.5417" fill="white"/>
</clipPath>
</defs>
</svg>
