<svg width="62" height="62" viewBox="0 0 62 62" fill="none" xmlns="http://www.w3.org/2000/svg">
<path d="M60.1667 23.7082H54.625C52.2333 15.8624 46.1083 9.73738 38.2917 7.34571V1.83321C38.2917 1.01654 37.65 0.374878 36.8333 0.374878H25.1667C24.35 0.374878 23.7083 1.01654 23.7083 1.83321V7.34571C15.8917 9.73738 9.76667 15.8624 7.375 23.7082H1.83333C1.01667 23.7082 0.375 24.3499 0.375 25.1665V36.8332C0.375 37.6499 1.01667 38.2915 1.83333 38.2915H7.34583C9.7375 46.1374 15.8625 52.2624 23.7083 54.654V60.1665C23.7083 60.9832 24.35 61.6249 25.1667 61.6249H36.8333C37.65 61.6249 38.2917 60.9832 38.2917 60.1665V54.654C46.1375 52.2624 52.2625 46.1374 54.6542 38.2915H60.1667C60.9833 38.2915 61.625 37.6499 61.625 36.8332V25.1665C61.625 24.3499 60.9833 23.7082 60.1667 23.7082ZM51.5625 23.7082H41.9083C40.9458 22.279 39.7208 21.054 38.2917 20.0915V10.4082C44.5042 12.5957 49.375 17.4665 51.5625 23.7082ZM31 41.2082C25.3708 41.2082 20.7917 36.629 20.7917 30.9999C20.7917 25.3707 25.3708 20.7915 31 20.7915C36.6292 20.7915 41.2083 25.3707 41.2083 30.9999C41.2083 36.629 36.6292 41.2082 31 41.2082ZM35.375 3.29154V18.6915C34.0042 18.1957 32.5458 17.8749 31 17.8749C29.4542 17.8749 27.9958 18.1957 26.625 18.6915V3.29154H35.375ZM23.7083 10.4082V20.0915C22.2792 21.054 21.0542 22.279 20.0917 23.7082H10.4375C12.625 17.4665 17.4958 12.5957 23.7083 10.4082ZM3.29167 26.6249H18.6917C18.1958 27.9957 17.875 29.454 17.875 30.9999C17.875 32.5457 18.1958 34.004 18.6917 35.3749H3.29167V26.6249ZM10.4083 38.2915H20.0917C21.0542 39.7207 22.2792 40.9457 23.7083 41.9082V51.5915C17.4958 49.404 12.5958 44.504 10.4083 38.2915ZM26.625 58.7082V43.3082C27.9958 43.804 29.4542 44.1249 31 44.1249C32.5458 44.1249 34.0042 43.804 35.375 43.3082V58.7082H26.625ZM38.2917 51.5915V41.9082C39.7208 40.9457 40.9458 39.7207 41.9083 38.2915H51.5917C49.4042 44.504 44.5042 49.404 38.2917 51.5915ZM58.7083 35.3749H43.3083C43.8042 34.004 44.125 32.5457 44.125 30.9999C44.125 29.454 43.8042 27.9957 43.3083 26.6249H53.575H53.6042H58.7083V35.3749Z" fill="white"/>
</svg>
