<svg width="51" height="51" viewBox="0 0 51 51" fill="none" xmlns="http://www.w3.org/2000/svg">
<path d="M37.8753 30.5768L31.4234 24.1249L43.1638 12.3845C47.7118 10.0576 44.8561 12.3845 50.6734 4.8749C50.9907 4.45183 50.9907 3.81721 50.5676 3.4999L47.6061 0.538367C47.183 0.11529 46.6541 0.115289 46.2311 0.432597C39.0388 5.82683 40.6253 4.02875 38.7215 7.94221L26.8753 19.5768L20.4234 13.1249C22.5388 5.19221 14.9234 -2.0001 7.09645 0.644136C6.88491 0.749905 6.5676 1.06721 6.46184 1.49029C6.46184 1.8076 6.5676 2.23067 6.77914 2.44221L11.9618 7.6249C13.1253 8.78837 13.1253 10.798 11.9618 11.9614C10.7984 13.1249 8.78876 13.1249 7.6253 11.9614L2.4426 6.77875C2.1253 6.56721 1.80799 6.46144 1.38491 6.56721C1.0676 6.56721 0.750297 6.88452 0.644527 7.20183C-1.9997 15.0288 5.08684 22.6441 13.1253 20.5288L19.5772 26.9807L17.0388 29.5191C16.8272 29.4134 14.0772 25.8172 12.3849 28.7788C11.2215 30.8941 13.2311 32.6922 11.5388 33.1153C10.4811 33.4326 9.10607 33.7499 7.73107 34.4903C5.82722 35.548 4.55799 36.4999 3.8176 37.4518C0.750297 41.3653 -0.624704 46.6538 0.432989 47.6057C3.60607 50.4614 3.18299 50.7788 4.24068 50.7788C5.29837 50.7788 9.10607 50.5672 13.5484 47.0768C14.9234 46.0191 16.933 43.1634 17.8849 39.3557C18.308 37.6634 20.1061 39.7787 22.2215 38.5095C22.8561 38.0864 23.2791 37.5576 23.2791 36.923C23.3849 35.4422 22.0099 34.4903 21.3753 33.8557L23.9138 31.3172L30.3657 37.7691C28.7791 44.5384 33.7503 50.8845 40.5195 50.8845C41.683 50.8845 42.7407 50.673 43.9041 50.3557C44.2215 50.2499 44.5388 49.9326 44.6445 49.6153C44.7503 49.298 44.6445 48.8749 44.3272 48.6634L39.0388 43.4807C36.0772 40.5191 40.6253 36.3941 43.3753 39.1441L48.558 44.3268C48.7695 44.5384 49.1926 44.6441 49.5099 44.6441C49.8272 44.5384 50.1445 44.3268 50.2503 43.9038C53.0003 35.9711 45.808 28.3557 37.8753 30.5768ZM21.1638 36.8172C20.2118 37.3461 16.7215 35.3364 15.7695 38.9326C14.9234 42.2114 13.1253 44.7499 12.1734 45.4903C8.57722 48.2403 5.50991 48.6634 4.45222 48.7691L2.23107 46.4422C2.23107 45.3845 2.65414 42.3172 5.50991 38.7211C6.03876 38.0864 7.20222 37.2403 8.78876 36.2884C11.6445 34.7018 15.0291 35.3364 14.183 31.2114C13.8657 29.7307 14.183 29.7307 14.183 29.6249C14.3945 29.8364 21.058 36.4999 21.1638 36.8172C21.2695 36.8172 21.2695 36.8172 21.1638 36.8172ZM40.5195 8.89414L41.8945 6.14414L46.7599 2.44221L48.4522 4.13452L44.7503 8.9999C40.7311 11.0095 44.1157 8.25952 29.8368 22.4326L28.3561 20.9518C40.9426 8.47106 40.308 9.21144 40.5195 8.89414ZM4.66376 16.298C2.86568 14.4999 2.01953 12.0672 2.33684 9.63452C5.50991 12.3845 6.5676 14.923 9.84645 14.923C11.2215 14.923 12.4907 14.3941 13.5484 13.4422C15.558 11.4326 15.558 8.15375 13.5484 6.03837L9.63491 2.33644C19.3657 1.27875 22.433 15.3461 13.1253 18.4134C13.0195 18.3076 8.15414 19.8941 4.66376 16.298ZM19.683 15.3461L26.1349 21.798L29.0965 24.7595L35.6541 31.3172C33.7503 32.2691 32.1638 33.9614 31.3176 35.6537L15.3465 19.6826C17.0388 18.8364 18.7311 17.2499 19.683 15.3461ZM22.5388 29.9422L20.0003 32.4807C19.8945 32.3749 18.4138 30.8941 18.5195 30.9999L21.058 28.4614C21.1638 28.5672 22.6445 30.048 22.5388 29.9422ZM48.7695 41.3653L44.9618 37.5576C43.2695 35.8653 41.1541 35.9711 41.2599 36.0768C36.7118 36.0768 34.2791 41.6826 37.558 44.9614L41.3657 48.7691C30.1541 50.0384 28.7791 32.2691 40.5195 32.2691C45.3849 32.2691 49.2984 36.4999 48.7695 41.3653Z" fill="white"/>
</svg>
