<svg width="63" height="63" viewBox="0 0 63 63" fill="none" xmlns="http://www.w3.org/2000/svg">
<g id="Group">
<g id="Group_2">
<g id="Group_3">
<path id="Vector" d="M19.3465 39.8943C16.7366 39.8943 14.6133 37.771 14.6133 35.1612C14.6133 32.5513 16.7366 30.428 19.3465 30.428C21.9563 30.428 24.0796 32.5513 24.0796 35.1612C24.0796 37.771 21.9563 39.8943 19.3465 39.8943ZM19.3465 33.0453C18.1797 33.0453 17.2305 33.9946 17.2305 35.1613C17.2305 36.328 18.1797 37.2773 19.3465 37.2773C20.5132 37.2773 21.4625 36.328 21.4625 35.1613C21.4625 33.9946 20.5132 33.0453 19.3465 33.0453Z" fill="white"/>
</g>
<g id="Group_4">
<path id="Vector_2" d="M19.0684 49.166C18.2648 49.166 17.4545 49.0949 16.6599 48.9547C13.3344 48.3676 10.2937 46.5551 8.09816 43.851C5.8899 41.1314 4.67383 37.6645 4.67383 34.0893V20.3212C4.67383 19.5985 5.25969 19.0126 5.98242 19.0126H29.9184C30.6412 19.0126 31.227 19.5985 31.227 20.3212C31.227 21.0439 30.6412 21.6298 29.9184 21.6298H7.29102V34.0893C7.29102 40.2045 11.4225 45.3724 17.1149 46.3773C18.7413 46.6641 20.4212 46.5874 21.9979 46.1606C27.2073 44.7499 30.8457 39.7859 30.8457 34.0893V24.6283C30.8457 23.9056 31.4316 23.3197 32.1543 23.3197C32.8769 23.3197 33.4629 23.9056 33.4629 24.6283V34.0893C33.4629 40.9652 29.0296 46.9678 22.6819 48.6868C21.5071 49.0048 20.2914 49.166 19.0684 49.166Z" fill="white"/>
</g>
<g id="Group_5">
<path id="Vector_3" d="M15.1426 17.0637H9.9082C9.18547 17.0637 8.59961 16.4779 8.59961 15.7551V4.67383C8.59961 2.50915 10.3607 0.748047 12.5254 0.748047C14.6901 0.748047 16.4512 2.50915 16.4512 4.67383V15.7551C16.4512 16.4779 15.8653 17.0637 15.1426 17.0637ZM11.2168 14.4465H13.834V4.67383C13.834 3.95227 13.2469 3.36523 12.5254 3.36523C11.8038 3.36523 11.2168 3.95227 11.2168 4.67383V14.4465Z" fill="white"/>
</g>
<g id="Group_6">
<path id="Vector_4" d="M28.2285 17.0637H22.9941C22.2714 17.0637 21.6855 16.4779 21.6855 15.7551V4.67383C21.6855 2.50915 23.4467 0.748047 25.6113 0.748047C27.776 0.748047 29.5371 2.50915 29.5371 4.67383V15.7551C29.5371 16.4779 28.9513 17.0637 28.2285 17.0637ZM24.3027 14.4465H26.9199V4.67383C26.9199 3.95227 26.3329 3.36523 25.6113 3.36523C24.8898 3.36523 24.3027 3.95227 24.3027 4.67383V14.4465Z" fill="white"/>
</g>
<g id="Group_7">
<path id="Vector_5" d="M32.8225 21.6298H3.36523C2.6425 21.6298 2.05664 21.0439 2.05664 20.3212V15.755C2.05664 15.0323 2.6425 14.4464 3.36523 14.4464H34.7715C35.4941 14.4464 36.0801 15.0323 36.0801 15.755C36.0801 16.4777 35.4941 17.0636 34.7715 17.0636H4.67383V19.0126H32.8225C33.5451 19.0126 34.1311 19.5985 34.1311 20.3212C34.1311 21.0439 33.5452 21.6298 32.8225 21.6298Z" fill="white"/>
</g>
<g id="Group_8">
<path id="Vector_6" d="M22.7714 26.196H5.98242C5.25969 26.196 4.67383 25.6102 4.67383 24.8874C4.67383 24.1647 5.25969 23.5788 5.98242 23.5788H22.7714C23.4942 23.5788 24.08 24.1647 24.08 24.8874C24.08 25.6102 23.4942 26.196 22.7714 26.196Z" fill="white"/>
</g>
<g id="Group_9">
<path id="Vector_7" d="M32.1547 26.196H27.3379C26.6152 26.196 26.0293 25.6102 26.0293 24.8874C26.0293 24.1647 26.6152 23.5788 27.3379 23.5788H32.1547C32.8773 23.5788 33.4633 24.1647 33.4633 24.8874C33.4633 25.6102 32.8773 26.196 32.1547 26.196Z" fill="white"/>
</g>
<g id="Group_10">
<path id="Vector_8" d="M50.4746 62.252H48.9791C48.2565 62.252 47.6706 61.666 47.6706 60.9434C47.6706 60.2208 48.2565 59.6348 48.9791 59.6348H50.4746C51.9177 59.6348 53.0918 58.4607 53.0918 57.0176C53.0918 55.5745 51.9177 54.4004 50.4746 54.4004H43.9316C41.0454 54.4004 38.6973 52.0522 38.6973 49.166C38.6973 46.2798 41.0454 43.9316 43.9316 43.9316H60.9434C61.666 43.9316 62.252 44.5176 62.252 45.2402C62.252 45.9628 61.666 46.5488 60.9434 46.5488H43.9316C42.4885 46.5488 41.3145 47.7229 41.3145 49.166C41.3145 50.6091 42.4885 51.7832 43.9316 51.7832H50.4746C53.3608 51.7832 55.709 54.1313 55.709 57.0176C55.709 59.9038 53.3608 62.252 50.4746 62.252ZM42.4362 62.252H5.98242C3.09619 62.252 0.748047 59.9038 0.748047 57.0176C0.748047 54.1313 3.09619 51.7832 5.98242 51.7832H15.1426C16.5857 51.7832 17.7598 50.6091 17.7598 49.166V47.8574C17.7598 47.1348 18.3456 46.5488 19.0684 46.5488C19.7911 46.5488 20.377 47.1348 20.377 47.8574V49.166C20.377 52.0522 18.0288 54.4004 15.1426 54.4004H5.98242C4.5393 54.4004 3.36523 55.5745 3.36523 57.0176C3.36523 58.4607 4.5393 59.6348 5.98242 59.6348H42.4362C43.1588 59.6348 43.7448 60.2208 43.7448 60.9434C43.7448 61.666 43.1589 62.252 42.4362 62.252Z" fill="white"/>
</g>
</g>
</g>
</svg>
