<svg width="17" height="14" viewBox="0 0 17 14" fill="none" xmlns="http://www.w3.org/2000/svg">
<path d="M9.51015 2.17857C8.71848 1.86905 7.86729 1.71428 6.95657 1.71428C6.04586 1.71428 5.19467 1.86905 4.403 2.17857C3.61134 2.48809 2.98038 2.90774 2.51015 3.4375C2.04586 3.96726 1.81372 4.53571 1.81372 5.14286C1.81372 5.63095 1.97146 6.10119 2.28693 6.55357C2.60241 7.00595 3.04586 7.39881 3.61729 7.73214L4.48336 8.23214L4.17086 8.98214C4.37324 8.8631 4.55777 8.74702 4.72443 8.63393L5.11729 8.35714L5.5905 8.44643C6.05479 8.52976 6.51015 8.57143 6.95657 8.57143C7.86729 8.57143 8.71848 8.41667 9.51015 8.10714C10.3018 7.79762 10.9298 7.37798 11.3941 6.84821C11.8643 6.31845 12.0994 5.75 12.0994 5.14286C12.0994 4.53571 11.8643 3.96726 11.3941 3.4375C10.9298 2.90774 10.3018 2.48809 9.51015 2.17857ZM3.79586 1.1875C4.7661 0.776785 5.81967 0.571428 6.95657 0.571428C8.09348 0.571428 9.14407 0.776785 10.1084 1.1875C11.0786 1.59226 11.8435 2.14583 12.403 2.84821C12.9625 3.55059 13.2423 4.31548 13.2423 5.14286C13.2423 5.97024 12.9625 6.73512 12.403 7.4375C11.8435 8.13988 11.0786 8.69643 10.1084 9.10714C9.14407 9.5119 8.09348 9.71429 6.95657 9.71429C6.44467 9.71429 5.92086 9.66667 5.38515 9.57143C4.64705 10.0952 3.81967 10.4762 2.903 10.7143C2.68872 10.7679 2.43277 10.8155 2.13515 10.8571H2.10836C2.04288 10.8571 1.98038 10.8333 1.92086 10.7857C1.86729 10.7381 1.83455 10.6756 1.82265 10.5982C1.81669 10.5804 1.81372 10.5625 1.81372 10.5446C1.81372 10.5208 1.81372 10.5 1.81372 10.4821C1.81967 10.4643 1.82562 10.4464 1.83157 10.4286C1.84348 10.4107 1.85241 10.3958 1.85836 10.3839C1.86431 10.372 1.87324 10.3571 1.88515 10.3393C1.903 10.3155 1.91491 10.3006 1.92086 10.2946C1.93277 10.2827 1.94765 10.2679 1.9655 10.25C1.98336 10.2262 1.99527 10.2113 2.00122 10.2054C2.03098 10.1696 2.09943 10.0952 2.20657 9.98214C2.31372 9.86905 2.3911 9.78274 2.43872 9.72321C2.48634 9.65774 2.55181 9.57143 2.63515 9.46429C2.72443 9.35119 2.79884 9.23512 2.85836 9.11607C2.92384 8.99702 2.98634 8.86607 3.04586 8.72321C2.30777 8.29464 1.72741 7.76786 1.30479 7.14286C0.88217 6.51786 0.67086 5.85119 0.67086 5.14286C0.67086 4.31548 0.950622 3.55059 1.51015 2.84821C2.06967 2.14583 2.83157 1.59226 3.79586 1.1875ZM14.2959 11.0089C14.3554 11.1518 14.4149 11.2827 14.4744 11.4018C14.5399 11.5208 14.6143 11.6369 14.6976 11.75C14.7869 11.8571 14.8554 11.9405 14.903 12C14.9506 12.0655 15.028 12.1548 15.1351 12.2679C15.2423 12.381 15.3107 12.4554 15.3405 12.4911C15.3465 12.497 15.3584 12.5089 15.3762 12.5268C15.3941 12.5506 15.406 12.5655 15.4119 12.5714C15.4238 12.5833 15.4357 12.5982 15.4476 12.6161C15.4655 12.6399 15.4774 12.6577 15.4834 12.6696C15.4893 12.6815 15.4953 12.6964 15.5012 12.7143C15.5131 12.7321 15.5191 12.75 15.5191 12.7679C15.525 12.7857 15.528 12.8036 15.528 12.8214C15.528 12.8452 15.525 12.8661 15.5191 12.8839C15.5012 12.9673 15.4625 13.0327 15.403 13.0804C15.3435 13.128 15.278 13.1488 15.2066 13.1429C14.909 13.1012 14.653 13.0536 14.4387 13C13.5221 12.7619 12.6947 12.381 11.9566 11.8571C11.4209 11.9524 10.8971 12 10.3851 12C8.77205 12 7.36729 11.6071 6.17086 10.8214C6.5161 10.8452 6.778 10.8571 6.95657 10.8571C7.91491 10.8571 8.83455 10.7232 9.7155 10.4554C10.5965 10.1875 11.3822 9.80357 12.0726 9.30357C12.8167 8.75595 13.3881 8.125 13.7869 7.41071C14.1857 6.69643 14.3851 5.94048 14.3851 5.14286C14.3851 4.68452 14.3167 4.23214 14.1798 3.78571C14.9476 4.20833 15.5548 4.73809 16.0012 5.375C16.4476 6.0119 16.6709 6.69643 16.6709 7.42857C16.6709 8.14286 16.4596 8.8125 16.0369 9.4375C15.6143 10.0565 15.034 10.5804 14.2959 11.0089Z" fill="#336EF9"/>
</svg>
