<svg width="20" height="20" viewBox="0 0 20 20" fill="none" xmlns="http://www.w3.org/2000/svg">
<path d="M10.0012 0.791504C4.92372 0.791504 0.792969 4.92225 0.792969 9.99977C0.792969 15.0773 4.92372 19.208 10.0012 19.208C15.0787 19.208 19.2095 15.0773 19.2095 9.99977C19.2095 4.92225 15.0787 0.791504 10.0012 0.791504ZM10.0012 17.9893C5.59586 17.9893 2.01172 14.4051 2.01172 9.99977C2.01172 5.59439 5.59586 2.01025 10.0012 2.01025C14.4066 2.01025 17.9907 5.59439 17.9907 9.99977C17.9907 14.4051 14.4066 17.9893 10.0012 17.9893Z" fill="#0057FF"/>
<path d="M12.0874 9.51877C12.7571 8.93499 13.183 8.07821 13.183 7.1221C13.183 5.3675 11.7555 3.93994 10.0007 3.93994C8.24586 3.93994 6.8183 5.3675 6.8183 7.1221C6.8183 8.07821 7.24425 8.93499 7.91395 9.51877C6.63934 9.93518 5.74844 10.5825 5.25647 11.4541C4.43036 12.9171 5.083 14.4167 5.11103 14.4799C5.24834 14.7874 5.60869 14.9255 5.91581 14.788C6.22314 14.6509 6.36106 14.2906 6.22375 13.9833C6.21948 13.9733 5.79861 12.9725 6.31759 12.0536C6.82297 11.1584 8.09575 10.5559 10.0007 10.3091C11.897 10.5549 13.1676 11.1533 13.6772 12.042C14.2021 12.9577 13.7863 13.9625 13.7761 13.9863C13.6413 14.293 13.7794 14.6511 14.0857 14.7878C14.1663 14.824 14.2508 14.8411 14.3337 14.8411C14.5667 14.8411 14.7893 14.7066 14.8905 14.4799C14.9187 14.4167 15.5712 12.9173 14.745 11.4541C14.2527 10.5823 13.3618 9.93518 12.0874 9.51877ZM10.0007 9.0855C8.9178 9.0855 8.03705 8.20475 8.03705 7.1221C8.03705 6.03944 8.9178 5.15869 10.0007 5.15869C11.0835 5.15869 11.9643 6.03944 11.9643 7.1221C11.9643 8.20475 11.0835 9.0855 10.0007 9.0855Z" fill="#0057FF"/>
</svg>
