<svg width="12" height="12" viewBox="0 0 12 12" fill="none" xmlns="http://www.w3.org/2000/svg">
<path d="M10.5725 0.691406H6.57692C6.32404 0.691406 6.08117 0.791979 5.90224 0.970722L0.701362 6.16524C0.328712 6.53751 0.328712 7.14094 0.701362 7.51368L4.69697 11.5051C5.06962 11.8774 5.67369 11.8774 6.04634 11.5051L11.2472 6.31062C11.4261 6.1314 11.5268 5.88879 11.5268 5.63569V1.6447C11.5268 1.11801 11.0998 0.691406 10.5725 0.691406ZM8.90253 4.02795C8.50745 4.02795 8.18681 3.70764 8.18681 3.31298C8.18681 2.91831 8.50745 2.598 8.90253 2.598C9.2976 2.598 9.61824 2.91831 9.61824 3.31298C9.61824 3.70764 9.2976 4.02795 8.90253 4.02795Z" fill="white"/>
</svg>
