<svg width="34" height="29" viewBox="0 0 34 29" fill="none" xmlns="http://www.w3.org/2000/svg">
<g clip-path="url(#clip0_513_737)">
<path fill-rule="evenodd" clip-rule="evenodd" d="M22.9662 17.1119L29.6166 20.7881C31.6923 21.9351 29.3938 24.5376 27.5294 25.9998C19.2916 32.4582 -1.91787 11.3435 4.62169 3.09211C6.0934 1.2349 8.68644 -1.07078 9.83333 1.00488L13.5096 7.65523C13.8482 8.26788 13.6276 8.92174 13.2055 9.47939L11.8811 11.2296C11.4853 11.7529 11.4605 12.4336 11.8158 12.9848C13.3951 15.4306 15.1908 17.2261 17.6367 18.8058C18.1879 19.1613 18.8687 19.1364 19.392 18.7405L21.1421 17.416C21.6999 16.9939 22.3537 16.7734 22.9663 17.112L22.9662 17.1119Z" fill="#0057FF"/>
<path d="M29.1853 12.7195C29.1889 13.116 29.5129 13.4356 29.9101 13.4318C30.3074 13.429 30.6262 13.1042 30.6232 12.707C30.5587 5.78112 24.8421 0.0651303 17.9163 0.00050721C17.5198 -0.0023398 17.195 0.316334 17.1914 0.713596C17.1886 1.11009 17.5073 1.43485 17.9045 1.43844C24.0427 1.49482 29.128 6.58059 29.1854 12.7193L29.1853 12.7195Z" fill="#0057FF"/>
<path d="M25.7089 12.687C25.7125 13.0835 26.0373 13.4031 26.4338 13.3993C26.831 13.3965 27.1499 13.0717 27.1468 12.6745C27.1007 7.66009 22.9642 3.52422 17.9495 3.47806C17.553 3.47445 17.2282 3.79388 17.2246 4.19037C17.2218 4.58762 17.5405 4.91235 17.9377 4.91522C22.1644 4.95489 25.6696 8.45953 25.7085 12.687H25.7089Z" fill="#0057FF"/>
<path d="M22.2328 12.6549C22.2357 13.0514 22.5604 13.3711 22.9577 13.3673C23.3542 13.3644 23.6738 13.0397 23.67 12.6424C23.6413 9.53939 21.0859 6.98425 17.9827 6.9551C17.5862 6.95225 17.2614 7.27092 17.2578 7.66819C17.255 8.06544 17.5737 8.38944 17.9709 8.39303C20.2861 8.41429 22.2107 10.3389 22.2327 12.6548L22.2328 12.6549Z" fill="#0057FF"/>
<path d="M3.63401 28.2945C3.62129 28.3011 3.60782 28.3059 3.59377 28.3089C3.58011 28.3123 3.56587 28.3142 3.55126 28.3142C3.50665 28.3142 3.47116 28.3019 3.44497 28.277C3.41916 28.2518 3.40625 28.2178 3.40625 28.1753C3.40625 28.1328 3.41916 28.0992 3.44497 28.0743C3.47116 28.0496 3.50665 28.0371 3.55126 28.0371C3.56587 28.0371 3.58011 28.039 3.59377 28.0424C3.60782 28.0455 3.62129 28.0504 3.63401 28.0568V28.1123C3.62072 28.1032 3.60782 28.0967 3.59529 28.0925C3.58314 28.0885 3.57024 28.0865 3.55657 28.0865C3.53228 28.0865 3.51292 28.0946 3.49887 28.1108C3.48464 28.1265 3.47761 28.148 3.47761 28.1753C3.47761 28.2032 3.48464 28.225 3.49887 28.2406C3.51292 28.2563 3.53228 28.2641 3.55657 28.2641C3.57024 28.2641 3.58314 28.2622 3.59529 28.258C3.60782 28.2541 3.62072 28.2478 3.63401 28.2391V28.2945Z" fill="#0057FF"/>
<path d="M4.43431 28.0515V28.1085H4.50036V28.154H4.43431V28.239C4.43431 28.2487 4.43602 28.2554 4.43962 28.2588C4.44304 28.2618 4.45044 28.2633 4.46164 28.2633H4.49429V28.3089H4.43962C4.41419 28.3089 4.39635 28.3036 4.38572 28.2929C4.37509 28.2823 4.36978 28.2645 4.36978 28.239V28.154H4.33789V28.1085H4.36978V28.0515L4.43431 28.0515Z" fill="#0057FF"/>
<path d="M4.92376 28.1381V28.0303H4.98829V28.3089H4.92376V28.2801C4.91503 28.2918 4.90554 28.3004 4.89491 28.3059C4.88428 28.3114 4.87175 28.3142 4.85771 28.3142C4.83285 28.3142 4.81254 28.3043 4.79697 28.2846C4.78122 28.2649 4.77344 28.2396 4.77344 28.2087C4.77344 28.1779 4.78122 28.1525 4.79697 28.1328C4.81254 28.113 4.83285 28.1032 4.85771 28.1032C4.87175 28.1032 4.88428 28.106 4.89491 28.1115C4.90554 28.1172 4.91503 28.1259 4.92376 28.1381ZM4.882 28.2679C4.89567 28.2679 4.90592 28.263 4.91313 28.2527C4.92015 28.2427 4.92376 28.228 4.92376 28.2087C4.92376 28.1895 4.92015 28.1751 4.91313 28.1654C4.90592 28.1554 4.89567 28.1502 4.882 28.1502C4.86834 28.1502 4.85771 28.1554 4.85012 28.1654C4.8429 28.1751 4.83949 28.1895 4.83949 28.2087C4.83949 28.228 4.8429 28.2427 4.85012 28.2527C4.85771 28.263 4.86834 28.2679 4.882 28.2679Z" fill="#0057FF"/>
<path d="M5.28402 28.2679C5.29769 28.2679 5.30794 28.263 5.31515 28.2527C5.32274 28.2427 5.32654 28.228 5.32654 28.2087C5.32654 28.1895 5.32274 28.1751 5.31515 28.1654C5.30794 28.1554 5.29769 28.1502 5.28402 28.1502C5.27036 28.1502 5.25973 28.1554 5.25214 28.1654C5.24492 28.1757 5.24151 28.1901 5.24151 28.2087C5.24151 28.228 5.24492 28.2427 5.25214 28.2527C5.25973 28.263 5.27036 28.2679 5.28402 28.2679ZM5.24151 28.1381C5.25005 28.1259 5.25973 28.1172 5.27036 28.1115C5.28137 28.106 5.29389 28.1032 5.30756 28.1032C5.33223 28.1032 5.35254 28.113 5.36829 28.1328C5.38443 28.1525 5.39259 28.1779 5.39259 28.2087C5.39259 28.2396 5.38443 28.2649 5.36829 28.2846C5.35254 28.3043 5.33223 28.3142 5.30756 28.3142C5.29389 28.3142 5.28137 28.3114 5.27036 28.3059C5.25973 28.3004 5.25005 28.2918 5.24151 28.2801V28.3089H5.17773V28.0303H5.24151V28.1381Z" fill="#0057FF"/>
<path d="M5.80859 28.0417H5.87768V28.1435H5.97942V28.0417H6.04851V28.309H5.97942V28.1959H5.87768V28.309H5.80859V28.0417Z" fill="#0057FF"/>
<path d="M7.3347 28.0515V28.1085H7.40075V28.154H7.3347V28.239C7.3347 28.2487 7.33641 28.2554 7.34001 28.2588C7.34343 28.2618 7.35083 28.2633 7.36203 28.2633H7.39468V28.3089H7.34001C7.31458 28.3089 7.29674 28.3036 7.28611 28.2929C7.27548 28.2823 7.27017 28.2645 7.27017 28.239V28.154H7.23828V28.1085H7.27017V28.0515L7.3347 28.0515Z" fill="#0057FF"/>
<path d="M8.10548 28.1867V28.3089H8.04095V28.2155C8.04095 28.1984 8.04038 28.1865 8.03943 28.1798C8.03887 28.1734 8.03754 28.1685 8.03564 28.1654C8.03298 28.1609 8.02957 28.1576 8.02501 28.1555C8.02083 28.1531 8.01628 28.1517 8.01134 28.1517C7.99768 28.1517 7.98705 28.1571 7.97946 28.1677C7.97187 28.1779 7.96807 28.192 7.96807 28.2102V28.3089H7.9043V28.0303H7.96807V28.1381C7.97756 28.1259 7.98781 28.1172 7.99844 28.1115C8.00945 28.106 8.02159 28.1032 8.03488 28.1032C8.05803 28.1032 8.0755 28.1106 8.08726 28.1252C8.09941 28.1394 8.10548 28.1599 8.10548 28.1867Z" fill="#0057FF"/>
</g>
<defs>
<clipPath id="clip0_513_737">
<rect width="34" height="28.06" fill="white"/>
</clipPath>
</defs>
</svg>
