<svg width="124" height="45" viewBox="0 0 124 45" fill="none" xmlns="http://www.w3.org/2000/svg">
<path d="M48.3943 29.3556V13.9556H54.0923C55.3243 13.9556 56.3437 14.1609 57.1503 14.5716C57.957 14.9822 58.5583 15.5469 58.9543 16.2656C59.3503 16.9842 59.5483 17.7909 59.5483 18.6856C59.5483 19.5362 59.3577 20.3209 58.9763 21.0396C58.595 21.7436 58.001 22.3156 57.1943 22.7556C56.3877 23.1809 55.3537 23.3936 54.0923 23.3936H51.2103V29.3556H48.3943ZM51.2103 21.1056H53.9163C54.899 21.1056 55.603 20.8929 56.0283 20.4676C56.4683 20.0276 56.6883 19.4336 56.6883 18.6856C56.6883 17.9229 56.4683 17.3289 56.0283 16.9036C55.603 16.4636 54.899 16.2436 53.9163 16.2436H51.2103V21.1056ZM66.369 29.6196C65.313 29.6196 64.3597 29.3776 63.509 28.8936C62.673 28.4096 62.0057 27.7422 61.507 26.8916C61.023 26.0262 60.781 25.0289 60.781 23.8996C60.781 22.7702 61.0304 21.7802 61.529 20.9296C62.0277 20.0642 62.695 19.3896 63.531 18.9056C64.3817 18.4216 65.335 18.1796 66.391 18.1796C67.4324 18.1796 68.371 18.4216 69.207 18.9056C70.0577 19.3896 70.725 20.0642 71.209 20.9296C71.7077 21.7802 71.957 22.7702 71.957 23.8996C71.957 25.0289 71.7077 26.0262 71.209 26.8916C70.725 27.7422 70.0577 28.4096 69.207 28.8936C68.3564 29.3776 67.4104 29.6196 66.369 29.6196ZM66.369 27.1776C67.1024 27.1776 67.7404 26.9062 68.283 26.3636C68.8257 25.8062 69.097 24.9849 69.097 23.8996C69.097 22.8142 68.8257 22.0002 68.283 21.4576C67.7404 20.9002 67.1097 20.6216 66.391 20.6216C65.643 20.6216 64.9977 20.9002 64.455 21.4576C63.927 22.0002 63.663 22.8142 63.663 23.8996C63.663 24.9849 63.927 25.8062 64.455 26.3636C64.9977 26.9062 65.6357 27.1776 66.369 27.1776ZM76.2221 29.3556L73.0321 18.4436H75.8261L77.7181 26.2976L79.9181 18.4436H83.0421L85.2421 26.2976L87.1561 18.4436H89.9501L86.7381 29.3556H83.8121L81.4801 21.1936L79.1481 29.3556H76.2221ZM96.6421 29.6196C95.5421 29.6196 94.5667 29.3849 93.7161 28.9156C92.8654 28.4462 92.1981 27.7862 91.7141 26.9356C91.2301 26.0849 90.9881 25.1022 90.9881 23.9876C90.9881 22.8582 91.2227 21.8536 91.6921 20.9736C92.1761 20.0936 92.8361 19.4116 93.6721 18.9276C94.5227 18.4289 95.5201 18.1796 96.6641 18.1796C97.7347 18.1796 98.6807 18.4142 99.5021 18.8836C100.323 19.3529 100.961 19.9982 101.416 20.8196C101.885 21.6262 102.12 22.5282 102.12 23.5256C102.12 23.6869 102.113 23.8556 102.098 24.0316C102.098 24.2076 102.091 24.3909 102.076 24.5816H93.7821C93.8407 25.4322 94.1341 26.0996 94.6621 26.5836C95.2047 27.0676 95.8574 27.3096 96.6201 27.3096C97.1921 27.3096 97.6687 27.1849 98.0501 26.9356C98.4461 26.6716 98.7394 26.3342 98.9301 25.9236H101.79C101.585 26.6129 101.24 27.2436 100.756 27.8156C100.287 28.3729 99.7001 28.8129 98.9961 29.1356C98.3067 29.4582 97.5221 29.6196 96.6421 29.6196ZM96.6641 20.4676C95.9747 20.4676 95.3661 20.6656 94.8381 21.0616C94.3101 21.4429 93.9727 22.0296 93.8261 22.8216H99.2601C99.2161 22.1029 98.9521 21.5309 98.4681 21.1056C97.9841 20.6802 97.3827 20.4676 96.6641 20.4676ZM104.489 29.3556V18.4436H106.997L107.261 20.4896C107.657 19.7856 108.192 19.2282 108.867 18.8176C109.556 18.3922 110.363 18.1796 111.287 18.1796V21.1496H110.495C109.879 21.1496 109.329 21.2449 108.845 21.4356C108.361 21.6262 107.979 21.9562 107.701 22.4256C107.437 22.8949 107.305 23.5476 107.305 24.3836V29.3556H104.489ZM112.177 29.3556L116.137 23.8996L112.177 18.4436H115.191L117.963 22.3156L120.713 18.4436H123.749L119.767 23.8996L123.749 29.3556H120.713L117.963 25.4836L115.191 29.3556H112.177Z" fill="#00205B"/>
<path d="M32.6637 18.7666L32.1652 19.4666C32.1262 19.2537 32.0758 19.0408 32.0195 18.8283L32.6637 18.7666Z" fill="#0057FF"/>
<path d="M3.5102 28.1348C3.64458 28.4934 3.80708 28.8461 3.98051 29.1821L2.75391 29.4004L3.5102 28.1348Z" fill="#0057FF"/>
<path d="M29.9026 20.6755L28.5085 22.6411L17.6725 37.8561L16.0428 40.1463L12.7276 44.8002L15.5276 40.0791L16.8717 37.8225L25.3444 23.5595L10.2074 26.2587L6.28711 26.9587L8.39841 23.4028L18.232 6.8488L19.6039 4.5414L22.2977 0L27.2985 3.259L25.2993 6.0703L23.8825 8.0473L13.8255 22.1873L27.4165 20.9103L29.9026 20.6755Z" fill="#0057FF"/>
<path d="M16.0885 6.95017L17.567 4.46387C7.851 4.63727 0 12.5951 0 22.3499C0 30.7554 5.8297 37.8229 13.653 39.7269L13.9889 39.1667L14.9354 37.5765C10.1139 36.6468 6.08192 33.4718 3.97642 29.182C3.80298 28.8406 3.64048 28.4875 3.50611 28.1347C2.77799 26.3538 2.38621 24.3941 2.38621 22.3554C2.39207 14.4089 8.38321 7.84517 16.0885 6.95017ZM26.8965 6.90517L26.7508 7.10677L25.5074 8.84817C29.164 10.9201 31.8969 14.4259 32.9332 18.5923C32.9949 18.8161 33.0453 19.0458 33.0898 19.27C33.2914 20.2669 33.3977 21.2915 33.3977 22.3501C33.3977 30.2067 27.5344 36.7141 19.9517 37.7221L19.1173 38.8924L18.1599 40.242C27.8982 40.0963 35.7829 32.1275 35.7829 22.356C35.7891 15.765 32.2109 10.0012 26.8965 6.90517Z" fill="#02215B"/>
</svg>
