<svg width="35" height="35" viewBox="0 0 35 35" fill="none" xmlns="http://www.w3.org/2000/svg">
<g clip-path="url(#clip0_513_15550)">
<path d="M27.6609 21.6822C26.9444 20.9361 26.0801 20.5372 25.1641 20.5372C24.2555 20.5372 23.3839 20.9287 22.6378 21.6748L20.3035 24.0017C20.1114 23.8983 19.9194 23.8022 19.7347 23.7062C19.4688 23.5732 19.2176 23.4477 19.0034 23.3147C16.8169 21.9259 14.8298 20.1161 12.9239 17.7745C12.0005 16.6073 11.38 15.6248 10.9294 14.6276C11.5352 14.0736 12.0966 13.4974 12.6432 12.9434C12.85 12.7365 13.0569 12.5223 13.2637 12.3155C14.815 10.7642 14.815 8.75494 13.2637 7.20367L11.2471 5.18702C11.0181 4.95803 10.7817 4.72164 10.5601 4.48526C10.1169 4.02727 9.65148 3.5545 9.17132 3.11128C8.45479 2.40213 7.5979 2.02539 6.69669 2.02539C5.79547 2.02539 4.92381 2.40213 4.18511 3.11128C4.17772 3.11867 4.17772 3.11867 4.17034 3.12605L1.65876 5.65979C0.713228 6.60532 0.173979 7.7577 0.055787 9.09474C-0.121501 11.2517 0.51378 13.261 1.00132 14.5759C2.19801 17.804 3.98566 20.7957 6.65236 24.0017C9.88786 27.8651 13.7808 30.9159 18.2278 33.0655C19.9268 33.8707 22.1946 34.8236 24.7283 34.9861C24.8834 34.9935 25.046 35.0009 25.1937 35.0009C26.9001 35.0009 28.3332 34.3878 29.456 33.1689C29.4634 33.1542 29.4781 33.1468 29.4855 33.132C29.8697 32.6666 30.3129 32.2456 30.7783 31.795C31.0959 31.4921 31.4209 31.1745 31.7386 30.842C32.4699 30.0812 32.854 29.1947 32.854 28.2861C32.854 27.3702 32.4625 26.4911 31.7164 25.7524L27.6609 21.6822ZM30.3055 29.4607C30.2981 29.4607 30.2981 29.4681 30.3055 29.4607C30.0174 29.7709 29.7219 30.0516 29.4043 30.3619C28.9241 30.8199 28.4366 31.3 27.9786 31.8393C27.2325 32.6371 26.3535 33.0138 25.2011 33.0138C25.0903 33.0138 24.9721 33.0138 24.8613 33.0064C22.6673 32.8661 20.6285 32.0092 19.0994 31.2779C14.9184 29.2538 11.2471 26.3803 8.19624 22.7385C5.67728 19.7025 3.99305 16.8954 2.87761 13.8815C2.19063 12.0421 1.93947 10.6091 2.05027 9.25725C2.12414 8.39298 2.45656 7.67644 3.06968 7.06332L5.58864 4.54435C5.9506 4.20455 6.33472 4.01988 6.71146 4.01988C7.17684 4.01988 7.55358 4.30058 7.78996 4.53697C7.79735 4.54435 7.80473 4.55174 7.81212 4.55913C8.26273 4.98019 8.69117 5.41602 9.14178 5.8814C9.37077 6.11778 9.60716 6.35417 9.84354 6.59794L11.8602 8.61459C12.6432 9.39761 12.6432 10.1215 11.8602 10.9046C11.646 11.1188 11.4391 11.333 11.2249 11.5398C10.6044 12.1751 10.0134 12.7661 9.37077 13.3423C9.356 13.357 9.34123 13.3644 9.33384 13.3792C8.69856 14.0145 8.81675 14.635 8.94972 15.056C8.9571 15.0782 8.96449 15.1004 8.97188 15.1225C9.49635 16.3931 10.2351 17.5898 11.3579 19.0155L11.3653 19.0229C13.4041 21.5344 15.5537 23.492 17.9249 24.9915C18.2278 25.1836 18.538 25.3387 18.8335 25.4865C19.0994 25.6194 19.3506 25.745 19.5648 25.878C19.5944 25.8928 19.6239 25.9149 19.6535 25.9297C19.9046 26.0553 20.141 26.1144 20.3848 26.1144C20.9979 26.1144 21.382 25.7302 21.5076 25.6047L24.0339 23.0783C24.2851 22.8272 24.684 22.5243 25.1494 22.5243C25.6074 22.5243 25.9841 22.8124 26.2131 23.0635C26.2205 23.0709 26.2205 23.0709 26.2279 23.0783L30.2981 27.1485C31.059 27.902 31.059 28.6777 30.3055 29.4607Z" fill="white"/>
<path d="M18.9146 8.32595C20.85 8.65097 22.6081 9.56696 24.0116 10.9705C25.4152 12.374 26.3238 14.1321 26.6562 16.0675C26.7374 16.555 27.1585 16.8949 27.6386 16.8949C27.6977 16.8949 27.7494 16.8875 27.8085 16.8801C28.3552 16.7914 28.7171 16.2743 28.6285 15.7277C28.2296 13.386 27.1215 11.2512 25.4299 9.55957C23.7383 7.86795 21.6035 6.7599 19.2618 6.36101C18.7152 6.27236 18.2055 6.63433 18.1094 7.17358C18.0134 7.71283 18.368 8.2373 18.9146 8.32595Z" fill="white"/>
<path d="M34.9593 15.4392C34.3019 11.5832 32.4847 8.07441 29.6924 5.28212C26.9001 2.48984 23.3913 0.672645 19.5353 0.0152035C18.996 -0.0808273 18.4863 0.288522 18.3903 0.827772C18.3017 1.37441 18.6636 1.88411 19.2103 1.98014C22.6526 2.56371 25.7921 4.19624 28.2889 6.68565C30.7857 9.18245 32.4108 12.3219 32.9944 15.7643C33.0756 16.2518 33.4967 16.5916 33.9768 16.5916C34.0359 16.5916 34.0876 16.5842 34.1467 16.5768C34.686 16.4956 35.0553 15.9785 34.9593 15.4392Z" fill="white"/>
</g>
<defs>
<clipPath id="clip0_513_15550">
<rect width="35" height="35" fill="white"/>
</clipPath>
</defs>
</svg>
