<svg width="81" height="80" viewBox="0 0 81 80" fill="none" xmlns="http://www.w3.org/2000/svg">
<path d="M40.6738 0C48.5851 0 56.3187 2.34596 62.8966 6.74121C69.4746 11.1365 74.6015 17.3836 77.629 24.6927C80.6565 32.0017 81.4486 40.0444 79.9052 47.8036C78.3618 55.5628 74.5522 62.6902 68.9581 68.2843C63.364 73.8784 56.2367 77.688 48.4774 79.2314C40.7182 80.7748 32.6755 79.9827 25.3665 76.9552C18.0574 73.9277 11.8103 68.8008 7.41504 62.2228C3.01979 55.6448 0.673828 47.9112 0.673828 40C0.673828 29.3913 4.8881 19.2172 12.3896 11.7157C19.891 4.21427 30.0652 0 40.6738 0V0Z" fill="white"/>
<path d="M47.6719 38.4777L36.0121 31.4936C35.5653 31.2013 35.0332 31.0299 34.4796 31C33.608 31 33.0684 31.6122 33.0684 32.6365V47.7307C33.0684 48.7542 33.607 49.3655 34.4766 49.3655C35.0282 49.3356 35.5582 49.1638 36.0022 48.871L47.6679 41.887C48.0068 41.712 48.291 41.4642 48.4947 41.1663C48.6983 40.8683 48.8149 40.5298 48.8337 40.1814C48.8157 39.8336 48.6999 39.4953 48.4969 39.1977C48.2939 38.9 48.0102 38.6524 47.6719 38.4777Z" fill="#0057FF"/>
</svg>
