<svg width="26" height="26" viewBox="0 0 26 26" fill="none" xmlns="http://www.w3.org/2000/svg">
<g id="Group">
<path id="Vector" d="M17.7999 16.7005C16.6519 16.3333 15.3969 16.9109 14.9353 18.0109C14.9081 18.0743 14.8826 18.1388 14.8582 18.203C11.7394 16.8701 9.12968 14.2605 7.79678 11.1416C7.86124 11.1172 7.9255 11.0917 7.98996 11.0645C9.08992 10.6021 9.66574 9.3444 9.2993 8.19902C6.6707 -8.0965e-07 6.60167 0 5.75661 0C2.5827 0 0 2.5826 0 5.75661C0 16.9186 9.08196 26 20.2434 26C23.4173 26 26 23.4174 26 20.2434C26 19.3983 26 19.3293 17.7999 16.7005L17.7999 16.7005Z" fill="#0057FF"/>
<path id="Vector_2" d="M14.6102 4.64402C18.3301 4.64402 21.3559 7.66995 21.3559 11.3897C21.3559 11.9029 21.7713 12.3183 22.2845 12.3183C22.7977 12.3183 23.213 11.9029 23.213 11.3897C23.213 6.64613 19.3537 2.78688 14.6102 2.78688C14.097 2.78688 13.6816 3.20225 13.6816 3.71545C13.6816 4.22865 14.097 4.64402 14.6102 4.64402Z" fill="#0057FF"/>
<path id="Vector_3" d="M12.9988 8.81204C15.3076 8.81204 17.1865 10.6909 17.1865 12.9997C17.1865 13.5129 17.6018 13.9283 18.115 13.9283C18.6282 13.9283 19.0436 13.5129 19.0436 12.9997C19.0436 9.66622 16.3323 6.955 12.9989 6.955C12.4857 6.955 12.0703 7.37037 12.0703 7.88357C12.0703 8.39698 12.4857 8.81214 12.9989 8.81214L12.9988 8.81204Z" fill="#0057FF"/>
</g>
</svg>
