<svg width="20" height="20" viewBox="0 0 20 20" fill="none" xmlns="http://www.w3.org/2000/svg">
<path d="M16.8367 1.17149C18.0423 2.44313 18.9521 3.62883 19.1504 4.7913C19.1176 7.41378 16.6446 10.6614 13.6728 13.6287C10.7167 16.5804 7.29316 19.4945 4.80377 19.117C3.634 18.9181 2.44063 18.0012 1.15822 16.7867C0.746326 16.394 0.746567 15.5486 1.16629 15.1295L3.69726 12.6023C4.13387 12.1663 4.98044 12.1662 5.53655 12.4606L7.24045 13.7079C8.14977 14.4826 10.0655 12.5818 11.3372 11.312C12.606 10.0451 14.5421 8.325 13.7259 7.21353L12.4803 5.51702C12.1899 4.96757 12.1899 4.12235 12.6063 3.70658L15.1274 1.18929C15.5772 0.740155 16.4239 0.739817 16.8367 1.17149Z" fill="#0057FF"/>
</svg>
