<svg width="19" height="19" viewBox="0 0 19 19" fill="none" xmlns="http://www.w3.org/2000/svg">
<g id="Layer 19">
<path id="Vector" d="M9.5 7.53125C10.5873 7.53125 11.4688 6.64981 11.4688 5.5625C11.4688 4.47519 10.5873 3.59375 9.5 3.59375C8.41269 3.59375 7.53125 4.47519 7.53125 5.5625C7.53125 6.64981 8.41269 7.53125 9.5 7.53125Z" fill="#0057FF"/>
<path id="Vector_2" d="M9.07344 14.5925C9.19231 14.6942 9.34358 14.75 9.5 14.75C9.65642 14.75 9.80769 14.6942 9.92656 14.5925C10.1562 14.4219 14.75 10.4056 14.75 5.5625C14.75 4.17011 14.1969 2.83476 13.2123 1.85019C12.2277 0.865624 10.8924 0.3125 9.5 0.3125C8.10761 0.3125 6.77226 0.865624 5.78769 1.85019C4.80312 2.83476 4.25 4.17011 4.25 5.5625C4.25 10.4056 8.87656 14.4219 9.07344 14.5925ZM6.21875 5.5625C6.21875 4.91353 6.41119 4.27913 6.77174 3.73954C7.13229 3.19994 7.64475 2.77937 8.24432 2.53102C8.84389 2.28267 9.50364 2.21769 10.1401 2.3443C10.7766 2.47091 11.3613 2.78342 11.8202 3.24231C12.2791 3.7012 12.5916 4.28586 12.7182 4.92236C12.8448 5.55886 12.7798 6.21861 12.5315 6.81818C12.2831 7.41775 11.8626 7.93021 11.323 8.29076C10.7834 8.65131 10.149 8.84375 9.5 8.84375C8.62976 8.84375 7.79516 8.49805 7.17981 7.88269C6.56445 7.26734 6.21875 6.43274 6.21875 5.5625Z" fill="#0057FF"/>
<path id="Vector_3" d="M17.9782 17.7753L16.0095 13.1816C15.9592 13.0629 15.8752 12.9617 15.7678 12.8906C15.6605 12.8194 15.5345 12.7814 15.4057 12.7812H13.3254C12.5852 13.8004 11.743 14.7415 10.812 15.59C10.4549 15.8968 9.99975 16.0654 9.529 16.0654C9.05826 16.0654 8.60309 15.8968 8.24603 15.59C7.29401 14.7449 6.43193 13.8037 5.67353 12.7812H3.59322C3.4644 12.7814 3.33846 12.8194 3.2311 12.8906C3.12374 12.9617 3.0397 13.0629 2.98947 13.1816L1.02072 17.7753C0.978472 17.8751 0.961573 17.9837 0.971527 18.0916C0.98148 18.1994 1.01798 18.3031 1.07776 18.3935C1.13754 18.4838 1.21875 18.5579 1.31415 18.6092C1.40954 18.6605 1.51615 18.6874 1.62447 18.6875H17.3745C17.4828 18.6874 17.5894 18.6605 17.6848 18.6092C17.7802 18.5579 17.8614 18.4838 17.9212 18.3935C17.981 18.3031 18.0175 18.1994 18.0274 18.0916C18.0374 17.9837 18.0205 17.8751 17.9782 17.7753Z" fill="#0057FF"/>
</g>
</svg>
