<svg width="15" height="12" viewBox="0 0 15 12" fill="none" xmlns="http://www.w3.org/2000/svg">
<g id="Group 1000002746">
<path id="Vector" d="M8.7536 7.63437C8.38042 7.91095 7.94694 8.05715 7.50001 8.05715C7.05312 8.05715 6.61964 7.91095 6.24646 7.63437L0.0998732 3.07875C0.0657716 3.05348 0.0325489 3.02713 0 3.00003V10.4649C0 11.3208 0.624757 12 1.38085 12H13.6191C14.389 12 15 11.3055 15 10.4649V3C14.9674 3.02716 14.9341 3.05358 14.8999 3.07888L8.7536 7.63437Z" fill="#0057FF"/>
<path id="Vector_2" d="M0.587402 2.54786L6.73397 6.76079C6.96665 6.92027 7.23331 7 7.49997 7C7.76666 7 8.03335 6.92024 8.26603 6.76079L14.4126 2.54786C14.7804 2.29591 15 1.87424 15 1.41914C15 0.636605 14.3808 0 13.6196 0H1.38038C0.619248 3.01194e-05 0 0.636635 0 1.41989C0 1.87424 0.219609 2.29591 0.587402 2.54786Z" fill="#0057FF"/>
</g>
</svg>
