<svg width="23" height="22" viewBox="0 0 23 22" fill="none" xmlns="http://www.w3.org/2000/svg">
<path d="M22.8316 4.1286C22.7002 3.93991 22.4886 3.82327 22.2589 3.81344L8.014 3.19846C7.60529 3.18055 7.26374 3.49658 7.24627 3.90403C7.2289 4.31132 7.54393 4.65546 7.95068 4.67296L21.2312 5.24635L18.6199 13.4063H6.9997L4.90033 1.95749C4.85418 1.70657 4.68218 1.49724 4.44496 1.40402L1.00655 0.0511058C0.627594 -0.0974914 0.199971 0.0889371 0.0511428 0.468022C-0.097428 0.847313 0.0886582 1.27586 0.467409 1.42492L3.5247 2.62785L5.66112 14.2776C5.72551 14.6278 6.03026 14.8822 6.38594 14.8822H6.74033L5.93108 17.1335C5.86334 17.3221 5.89125 17.5315 6.00652 17.6954C6.12163 17.8592 6.30885 17.9567 6.50871 17.9567H7.07632C6.7246 18.3488 6.50871 18.865 6.50871 19.4327C6.50871 20.6535 7.5005 21.6465 8.71913 21.6465C9.93776 21.6465 10.9296 20.6535 10.9296 19.4327C10.9296 18.865 10.7137 18.3488 10.362 17.9567H15.1813C14.8294 18.3488 14.6136 18.865 14.6136 19.4327C14.6136 20.6535 15.6051 21.6465 16.824 21.6465C18.0429 21.6465 19.0344 20.6535 19.0344 19.4327C19.0344 18.865 18.8186 18.3488 18.4669 17.9567H19.1572C19.4964 17.9567 19.7712 17.6814 19.7712 17.3418C19.7712 17.0021 19.4964 16.7268 19.1572 16.7268H7.38235L8.0454 14.882H19.1572C19.4776 14.882 19.7611 14.6746 19.8587 14.3693L22.9287 4.77575C22.9993 4.55679 22.9631 4.3174 22.8316 4.1286ZM8.71918 20.4169C8.17737 20.4169 7.73674 19.9756 7.73674 19.4329C7.73674 18.8903 8.17737 18.449 8.71918 18.449C9.261 18.449 9.70157 18.8903 9.70157 19.4329C9.70157 19.9756 9.261 20.4169 8.71918 20.4169ZM16.824 20.4169C16.2822 20.4169 15.8416 19.9756 15.8416 19.4329C15.8416 18.8903 16.2822 18.449 16.824 18.449C17.3658 18.449 17.8064 18.8903 17.8064 19.4329C17.8064 19.9756 17.3658 20.4169 16.824 20.4169Z" fill="#0A1426"/>
</svg>
