<svg width="43" height="36" viewBox="0 0 43 36" fill="none" xmlns="http://www.w3.org/2000/svg">
<path d="M41.7695 15.6176C40.6457 14.5563 38.9678 14.4211 37.6905 15.288L28.6278 21.4299C28.7832 19.9376 27.9357 18.4781 26.5101 17.9035L22.8559 16.4301C19.4574 15.0596 15.7192 15.07 12.3299 16.4595L8.0207 18.2247C7.30002 17.6616 6.40153 17.3408 5.44328 17.3408C4.79183 17.3408 4.16446 17.4889 3.57815 17.7815L1.28948 18.926C0.784872 19.1778 0.408837 19.6114 0.230387 20.1465C0.0521515 20.681 0.0930015 21.2532 0.344982 21.7578L6.55741 34.1817C6.91775 34.9009 7.64122 35.3475 8.44554 35.3475C8.76911 35.3475 9.09419 35.2712 9.38853 35.125L11.6772 33.9801C12.677 33.4806 13.4219 32.6221 13.775 31.563C13.9231 31.1184 13.9902 30.6607 13.9865 30.2051L23.9748 30.4225C24.0429 30.424 24.1111 30.4246 24.179 30.4246C26.0328 30.4246 27.8203 29.8762 29.3607 28.8323L41.3592 20.7006C42.1844 20.1412 42.7036 19.2509 42.7838 18.2571C42.8636 17.2636 42.4938 16.3015 41.7695 15.6176ZM11.7353 30.8832C11.5639 31.3975 11.2021 31.8142 10.7157 32.0571L8.46231 33.1844L2.28579 20.8318L4.53877 19.7052C4.82343 19.563 5.12766 19.491 5.44306 19.491C6.22007 19.491 6.91839 19.9212 7.26476 20.6133L11.6239 29.3324C11.8673 29.8181 11.9066 30.3689 11.7353 30.8832ZM40.6405 18.0841C40.613 18.4242 40.4352 18.7291 40.1527 18.9206L28.1544 27.0521C26.9287 27.8827 25.503 28.3086 24.0212 28.2727L13.3824 28.0413L9.36144 19.9991L13.145 18.4491C16.0131 17.2735 19.1762 17.2649 22.0518 18.4242L25.7062 19.8976C26.2929 20.1341 26.6171 20.7743 26.4604 21.3882C26.2862 22.0714 25.6606 22.518 24.9702 22.4739C24.9509 22.4709 24.9313 22.4705 24.912 22.4675L18.1936 21.3224C17.6082 21.2224 17.0531 21.6163 16.9533 22.2015C16.8535 22.7867 17.247 23.3421 17.8322 23.4419L18.0773 23.4836L18.0668 23.5494C18.0668 23.5494 21.9088 24.163 24.4839 24.5805C24.5342 24.5887 24.5841 24.5927 24.6342 24.5988C26.3006 24.8462 27.9813 24.4653 29.3773 23.5193L38.8968 17.0677C39.3337 16.7713 39.9082 16.8175 40.2928 17.181C40.5414 17.415 40.6678 17.7441 40.6405 18.0841Z" fill="white"/>
<path d="M26.6478 15.6793H22.8864C22.2926 15.6793 21.8114 15.1979 21.8114 14.6043V10.8594H18.0672C17.4736 10.8594 16.9922 10.378 16.9922 9.78443V6.02451C16.9922 5.43089 17.4736 4.94951 18.0672 4.94951H21.8116V1.20464C21.8116 0.611024 22.2928 0.129639 22.8866 0.129639H26.6481C27.2419 0.129639 27.7231 0.611024 27.7231 1.20464V4.94951H31.466C32.0598 4.94951 32.541 5.43089 32.541 6.02451V9.78443C32.541 10.378 32.0598 10.8594 31.466 10.8594H27.7231V14.6043C27.7228 15.1981 27.2417 15.6793 26.6478 15.6793ZM23.9614 13.5293H25.5728V9.78443C25.5728 9.19081 26.054 8.70943 26.6478 8.70943H30.3908V7.09951H26.6478C26.054 7.09951 25.5728 6.61812 25.5728 6.02451V2.27964H23.9614V6.02451C23.9614 6.61812 23.4802 7.09951 22.8864 7.09951H19.1422V8.70943H22.8866C23.4805 8.70943 23.9616 9.19081 23.9616 9.78443L23.9614 13.5293Z" fill="white"/>
</svg>
