<svg width="46" height="45" viewBox="0 0 46 45" fill="none" xmlns="http://www.w3.org/2000/svg">
<g clip-path="url(#clip0_513_640)">
<path d="M10.1198 6.43994C8.09826 6.43994 6.43977 8.09843 6.43977 10.1199C6.43977 10.8297 6.64845 11.4973 7.0004 12.0606C5.67584 12.3587 4.59977 13.3564 4.59977 14.7199V20.2399H3.67977C3.65104 20.2386 3.62226 20.2386 3.59352 20.2399C3.36478 20.2615 3.15237 20.3679 2.99808 20.5381C2.84379 20.7084 2.75878 20.9302 2.75977 21.1599V24.8399C2.7598 25.0839 2.85673 25.3179 3.02926 25.4904C3.20179 25.663 3.43578 25.7599 3.67977 25.7599H6.43977V38.6399C6.4398 38.8839 6.53674 39.1179 6.70926 39.2904C6.88179 39.463 7.11578 39.5599 7.35977 39.5599H38.6398C38.8838 39.5599 39.1178 39.463 39.2903 39.2904C39.4628 39.1179 39.5597 38.8839 39.5598 38.6399V25.7599H42.3198C42.5638 25.7599 42.7978 25.663 42.9703 25.4904C43.1428 25.3179 43.2397 25.0839 43.2398 24.8399V21.1599C43.2397 20.9159 43.1428 20.682 42.9703 20.5094C42.7978 20.3369 42.5638 20.24 42.3198 20.2399H41.3998V14.7199C41.3998 13.3564 40.3237 12.3587 38.9991 12.0606C39.3511 11.4973 39.5598 10.8297 39.5598 10.1199C39.5598 8.09843 37.9013 6.43994 35.8798 6.43994C33.8583 6.43994 32.1998 8.09843 32.1998 10.1199C32.1998 10.8297 32.4085 11.4973 32.7604 12.0606C31.4358 12.3587 30.3598 13.3564 30.3598 14.7199V19.3199V20.2399H28.5198V19.3199V14.7199C28.5198 13.3564 27.4437 12.3587 26.1192 12.0606C26.4711 11.4973 26.6798 10.8297 26.6798 10.1199C26.6798 8.09843 25.0213 6.43994 22.9998 6.43994C20.9783 6.43994 19.3198 8.09843 19.3198 10.1199C19.3198 10.8297 19.5285 11.4973 19.8804 12.0606C18.5558 12.3587 17.4798 13.3564 17.4798 14.7199V20.2399H15.6398V19.3199V14.7199C15.6398 13.3564 14.5637 12.3587 13.2392 12.0606C13.5911 11.4973 13.7998 10.8297 13.7998 10.1199C13.7998 8.09843 12.1413 6.43994 10.1198 6.43994ZM10.1198 8.27994C11.1469 8.27994 11.9598 9.09284 11.9598 10.1199C11.9598 11.147 11.1469 11.9599 10.1198 11.9599C9.09267 11.9599 8.27977 11.147 8.27977 10.1199C8.27977 9.09284 9.09267 8.27994 10.1198 8.27994ZM22.9998 8.27994C24.0269 8.27994 24.8398 9.09284 24.8398 10.1199C24.8398 11.147 24.0269 11.9599 22.9998 11.9599C21.9727 11.9599 21.1598 11.147 21.1598 10.1199C21.1598 9.09284 21.9727 8.27994 22.9998 8.27994ZM35.8798 8.27994C36.9069 8.27994 37.7198 9.09284 37.7198 10.1199C37.7198 11.147 36.9069 11.9599 35.8798 11.9599C34.8527 11.9599 34.0398 11.147 34.0398 10.1199C34.0398 9.09284 34.8527 8.27994 35.8798 8.27994ZM7.81977 13.7999H12.4198C13.299 13.7999 13.7998 14.3178 13.7998 14.7199V19.3199V20.2399H6.43977V14.7199C6.43977 14.3178 6.94059 13.7999 7.81977 13.7999ZM20.6998 13.7999H25.2998C26.179 13.7999 26.6798 14.3178 26.6798 14.7199V19.3199V20.2399H19.3198V14.7199C19.3198 14.3178 19.8206 13.7999 20.6998 13.7999ZM33.5798 13.7999H35.8798H38.1798C39.059 13.7999 39.5598 14.3178 39.5598 14.7199V20.2399H32.1998V19.3199V14.7199C32.1998 14.3178 32.7006 13.7999 33.5798 13.7999ZM4.59977 22.0799H41.3998V23.9199H4.59977V22.0799ZM8.27977 25.7599H37.7198V37.7199H8.27977V25.7599Z" fill="white"/>
</g>
<defs>
<clipPath id="clip0_513_640">
<rect width="46" height="44.16" fill="white"/>
</clipPath>
</defs>
</svg>
