<svg width="36" height="36" viewBox="0 0 36 36" fill="none" xmlns="http://www.w3.org/2000/svg">
<g clip-path="url(#clip0_513_628)">
<path d="M10.125 17.8144C11.46 17.8144 12.7651 17.4185 13.8751 16.6768C14.9851 15.9351 15.8503 14.8809 16.3612 13.6475C16.8721 12.4141 17.0058 11.0569 16.7453 9.74752C16.4848 8.43815 15.842 7.23541 14.898 6.29141C13.954 5.3474 12.7512 4.70453 11.4419 4.44408C10.1325 4.18363 8.77529 4.3173 7.54189 4.82819C6.30849 5.33908 5.25428 6.20425 4.51258 7.31428C3.77088 8.42431 3.375 9.72936 3.375 11.0644C3.375 12.8546 4.08616 14.5715 5.35203 15.8374C6.6179 17.1032 8.33479 17.8144 10.125 17.8144ZM10.125 6.56438C11.015 6.56438 11.885 6.8283 12.6251 7.32277C13.3651 7.81723 13.9419 8.52004 14.2825 9.3423C14.6231 10.1646 14.7122 11.0694 14.5385 11.9423C14.3649 12.8152 13.9363 13.617 13.307 14.2464C12.6776 14.8757 11.8758 15.3043 11.0029 15.4779C10.13 15.6515 9.22519 15.5624 8.40292 15.2218C7.58066 14.8812 6.87785 14.3045 6.38339 13.5644C5.88892 12.8244 5.625 11.9544 5.625 11.0644C5.625 9.8709 6.09911 8.72631 6.94302 7.8824C7.78693 7.03848 8.93153 6.56438 10.125 6.56438ZM27 15.3281C28.2238 15.3281 29.4201 14.9652 30.4376 14.2853C31.4551 13.6055 32.2482 12.6391 32.7165 11.5085C33.1848 10.3779 33.3074 9.13377 33.0686 7.93351C32.8299 6.73325 32.2406 5.63074 31.3752 4.76541C30.5099 3.90007 29.4074 3.31076 28.2071 3.07202C27.0069 2.83327 25.7628 2.95581 24.6321 3.42412C23.5015 3.89244 22.5352 4.68551 21.8553 5.70304C21.1754 6.72057 20.8125 7.91686 20.8125 9.14063C20.8125 10.7817 21.4644 12.3555 22.6248 13.5159C23.7852 14.6762 25.359 15.3281 27 15.3281ZM27 5.24813C27.7788 5.24813 28.54 5.47906 29.1876 5.91172C29.8351 6.34438 30.3398 6.95933 30.6378 7.67881C30.9358 8.3983 31.0138 9.19 30.8618 9.9538C30.7099 10.7176 30.3349 11.4192 29.7842 11.9699C29.2336 12.5205 28.532 12.8955 27.7682 13.0475C27.0044 13.1994 26.2127 13.1214 25.4932 12.8234C24.7737 12.5254 24.1587 12.0207 23.7261 11.3732C23.2934 10.7257 23.0625 9.96439 23.0625 9.18563C23.0625 8.14134 23.4773 7.13982 24.2158 6.4014C24.9542 5.66297 25.9557 5.24813 27 5.24813ZM36 23.0906V28.1531C36 28.4515 35.8815 28.7376 35.6705 28.9486C35.4595 29.1596 35.1734 29.2781 34.875 29.2781H21.375V27H33.75V23.0625C33.75 21.465 31.3481 19.125 27 19.125C22.815 19.125 20.4412 21.2681 20.25 22.8544C19.7759 22.1756 19.2077 21.5676 18.5625 21.0488C19.7269 18.7988 22.7419 16.9256 27 16.9256C32.5575 16.9256 36 20.1263 36 23.0906ZM1.125 33.0019H19.125C19.4234 33.0019 19.7095 32.8834 19.9205 32.6724C20.1315 32.4614 20.25 32.1753 20.25 31.8769V26.2519C20.25 23.0063 16.38 19.5019 10.125 19.5019C3.87 19.5019 0 23.0063 0 26.2519V31.8769C0 32.1753 0.118526 32.4614 0.329505 32.6724C0.540483 32.8834 0.826631 33.0019 1.125 33.0019ZM2.25 26.2519C2.25 24.4125 5.0625 21.7519 10.125 21.7519C15.1875 21.7519 18 24.4125 18 26.2519V30.7519H2.25V26.2519Z" fill="white"/>
</g>
<defs>
<clipPath id="clip0_513_628">
<rect width="36" height="36" fill="white"/>
</clipPath>
</defs>
</svg>
