<svg width="43" height="44" viewBox="0 0 43 44" fill="none" xmlns="http://www.w3.org/2000/svg">
<g clip-path="url(#clip0_513_652)">
<path d="M32.2936 17.2H23.2636L24.1236 4.68701C24.1375 4.40458 24.0581 4.12541 23.8978 3.89246C23.7375 3.65951 23.5051 3.48568 23.2364 3.39773C22.9676 3.30977 22.6774 3.31256 22.4104 3.40566C22.1434 3.49877 21.9144 3.67702 21.7586 3.91301L9.58958 23.65C9.46526 23.8471 9.39663 24.0742 9.391 24.3071C9.38537 24.5401 9.44294 24.7702 9.5576 24.9731C9.67226 25.1759 9.83972 25.3439 10.0422 25.4592C10.2447 25.5746 10.4746 25.6329 10.7076 25.628H19.9096L18.9636 38.313C18.9406 38.6047 19.0175 38.8955 19.1816 39.1377C19.3457 39.3799 19.5872 39.5592 19.8666 39.646H20.2536C20.476 39.6506 20.6959 39.5976 20.8918 39.4921C21.0877 39.3866 21.253 39.2323 21.3716 39.044L33.4116 19.135C33.5248 18.9388 33.5844 18.7163 33.5844 18.4898C33.5844 18.2633 33.5247 18.0408 33.4114 17.8447C33.2981 17.6485 33.1351 17.4857 32.9389 17.3725C32.7427 17.2594 32.5201 17.1999 32.2936 17.2ZM21.9306 33.11L22.5756 24.424C22.5874 24.2475 22.5627 24.0705 22.5032 23.9039C22.4437 23.7373 22.3505 23.5848 22.2296 23.4557C22.1086 23.3267 21.9623 23.2239 21.7999 23.1538C21.6376 23.0836 21.4625 23.0476 21.2856 23.048H13.0296L21.1996 9.71801L20.5976 18.404C20.5858 18.5805 20.6104 18.7575 20.67 18.9241C20.7295 19.0907 20.8226 19.2433 20.9436 19.3723C21.0646 19.5014 21.2108 19.6041 21.3732 19.6743C21.5356 19.7444 21.7107 19.7804 21.8876 19.78H30.0146L21.9306 33.11Z" fill="white"/>
</g>
<defs>
<clipPath id="clip0_513_652">
<rect width="43" height="43.43" fill="white"/>
</clipPath>
</defs>
</svg>
