<svg width="49" height="47" viewBox="0 0 49 47" fill="none" xmlns="http://www.w3.org/2000/svg">
<g id="noun-electrician-2588720 1" clip-path="url(#clip0_513_5094)">
<g id="Group">
<path id="Vector" d="M33.7096 30.1407L29.5874 28.8892V26.3377C30.3655 25.7411 30.9532 24.9245 31.2627 23.985L31.8475 22.2113C32.7342 21.9504 33.4186 21.1989 33.5744 20.2642L33.8763 18.4508C34.0306 17.5267 33.7085 16.5987 33.0149 15.9685L32.9832 15.9394C33.0962 15.3907 33.1538 14.8331 33.1583 14.2743H35.2002C35.7546 14.2743 36.204 13.8248 36.204 13.2704C36.204 12.716 35.7546 12.2666 35.2002 12.2666H34.0475V11.066C34.0475 7.17682 31.3306 3.91249 27.6955 3.06552V2.3245C27.6955 1.77009 27.2461 1.32068 26.6917 1.32068H22.253C21.6986 1.32068 21.2492 1.77009 21.2492 2.3245V3.06616C17.6142 3.91313 14.8972 7.17713 14.8972 11.0666V12.2673H13.7446C13.1901 12.2673 12.7407 12.7167 12.7407 13.2711C12.7407 13.8255 13.1901 14.2749 13.7446 14.2749H15.9238C15.9283 14.8335 15.9859 15.3911 16.0989 15.9397L16.0669 15.9688C15.3732 16.5991 15.0509 17.5271 15.2051 18.4515L15.507 20.2648C15.6629 21.1995 16.3469 21.9511 17.2339 22.2123L17.8184 23.9856C18.1202 24.9011 18.6874 25.6994 19.4364 26.2922V28.8898L15.3142 30.1413C11.3658 31.3404 8.71289 34.9187 8.71289 39.0453V43.5644C8.71289 44.1188 9.16231 44.5682 9.71671 44.5682H39.3067C39.8611 44.5682 40.3106 44.1188 40.3106 43.5644V39.0453C40.3106 34.9184 37.6576 31.3401 33.7092 30.1413L33.7096 30.1407ZM17.2265 39.0178C17.2265 39.5203 16.8177 39.9291 16.3155 39.9291C15.8133 39.9291 15.4046 39.5203 15.4046 39.0178C15.4046 38.5155 15.8133 38.1068 16.3155 38.1068C16.8178 38.1071 17.2265 38.5155 17.2265 39.0178ZM15.6946 42.5596V41.2767C15.8927 41.3311 16.1001 41.3628 16.3155 41.3628C17.3888 41.3628 18.2937 40.6372 18.5709 39.6516H30.1086C30.3858 40.6374 31.2911 41.3628 32.364 41.3628C32.7081 41.3628 33.0343 41.2866 33.329 41.1525V42.5597L15.6946 42.5596ZM33.2757 39.0178C33.2757 39.5203 32.8669 39.9291 32.3647 39.9291C31.8625 39.9291 31.4537 39.5203 31.4537 39.0178C31.4537 38.5155 31.8625 38.1068 32.3647 38.1068C32.8669 38.1071 33.2757 38.5155 33.2757 39.0178ZM33.3298 32.1322V36.8831C33.035 36.7493 32.7088 36.6728 32.3647 36.6728C32.0206 36.6728 31.6944 36.749 31.4 36.8831V31.5372L33.1265 32.0615C33.1954 32.0823 33.2613 32.1092 33.3298 32.1322ZM29.9656 31.1019V38.2179L25.2061 38.2176V33.2529L27.6964 34.9724C27.8184 35.0566 27.9605 35.0995 28.1039 35.0995C28.206 35.0995 28.3088 35.0777 28.4048 35.0336C28.635 34.9273 28.7921 34.7067 28.8171 34.4545L29.1798 30.8624L29.9656 31.1019ZM23.1597 31.9651L21.5115 33.1034L21.2916 30.9265L23.1597 31.9651ZM21.4443 29.3708V27.5488L21.677 27.6881C22.4775 28.1679 23.3936 28.4217 24.3264 28.4217H24.7553C25.6884 28.4217 26.6045 28.1679 27.4044 27.6881L27.5795 27.5831V29.3708L24.512 31.0756L21.4443 29.3708ZM27.7322 30.9264L27.5123 33.1033L25.8641 31.9651L27.7322 30.9264ZM16.9049 11.0664C16.9049 8.2922 18.7339 5.93786 21.2492 5.14407V5.5746C21.2492 6.129 21.6986 6.57841 22.253 6.57841C22.8075 6.57841 23.2569 6.129 23.2569 5.5746V3.32818H25.688V5.5746C25.688 6.129 26.1374 6.57841 26.6918 6.57841C27.2462 6.57841 27.6956 6.129 27.6956 5.5746V5.14407C30.2109 5.93758 32.04 8.29187 32.04 11.0664V12.2671H16.9049V11.0664ZM18.0169 20.3155L17.8754 20.3004C17.6792 20.2796 17.5194 20.1288 17.4871 19.9346L17.1853 18.1212C17.1436 17.8731 17.2304 17.6238 17.4164 17.4548L17.8895 17.0249C18.1715 16.7688 18.2841 16.3751 18.1804 16.0086C18.0201 15.442 17.9378 14.8589 17.9314 14.275H31.1498C31.1434 14.8592 31.0611 15.4424 30.9008 16.0089C30.7971 16.3755 30.9097 16.7688 31.1917 17.0252L31.6645 17.4548C31.8508 17.6244 31.9372 17.8735 31.8959 18.1215L31.5941 19.9349C31.5618 20.1295 31.402 20.2799 31.2055 20.3007L31.0666 20.3158C30.6204 20.3625 30.2417 20.6682 30.1027 21.0933L29.3563 23.357C29.1389 24.0164 28.6914 24.5759 28.0964 24.9328L26.3724 25.9664C25.8839 26.2592 25.325 26.4145 24.7556 26.4145H24.3267C23.7572 26.4145 23.1981 26.2596 22.7096 25.9664L20.9856 24.9328C20.3905 24.5759 19.9427 24.0163 19.7254 23.357L18.9795 21.0946C18.84 20.6676 18.461 20.3619 18.017 20.3155L18.0169 20.3155ZM19.844 30.8625L20.2066 34.4546C20.2322 34.7068 20.3891 34.9271 20.6189 35.0337C20.7146 35.0778 20.8174 35.0996 20.9198 35.0996C21.0632 35.0996 21.2053 35.0567 21.3273 34.9725L23.7715 33.2846V38.2173H18.5165C18.4938 38.1552 18.4688 38.0943 18.4413 38.0345V31.2885L19.844 30.8625ZM17.007 31.7239V36.7769C16.788 36.7094 16.556 36.6726 16.3149 36.6726C16.0998 36.6726 15.8921 36.7042 15.694 36.7587V32.132C15.7621 32.109 15.8281 32.0821 15.8972 32.0613L17.007 31.7239ZM10.7206 39.0438C10.7206 36.4184 12.09 34.0763 14.2602 32.7834V37.8893C14.0755 38.2244 13.9699 38.6082 13.9699 39.017C13.9699 39.4258 14.0755 39.8099 14.2602 40.1451V42.5592H10.7206V39.0438ZM38.303 42.5591H34.7635V32.7839C36.9337 34.0768 38.303 36.4189 38.303 39.0443V42.5591Z" fill="#015FC9"/>
<path id="Vector_2" d="M25.5302 8.36811H24.6353L25.2322 7.47246C25.3327 7.3217 25.3673 7.13252 25.3273 6.95454C25.2899 6.78681 25.189 6.64341 25.0632 6.56819C24.9125 6.46736 24.7233 6.4328 24.545 6.47312C24.3773 6.51089 24.2339 6.6114 24.1593 6.73656L22.8863 8.63217C22.7381 8.82999 22.7166 9.09343 22.8296 9.32005C22.9429 9.54667 23.167 9.6872 23.4141 9.6872H24.3091L23.7121 10.5829C23.5178 10.8738 23.5809 11.248 23.8613 11.4727L23.9122 11.505C23.9544 11.5261 24.1036 11.5946 24.2489 11.5946C24.4794 11.5946 24.6862 11.473 24.7937 11.2761L26.0581 9.39365C26.2063 9.19615 26.2281 8.93239 26.1148 8.70577C26.0072 8.4913 25.7943 8.36811 25.5302 8.36811Z" fill="#015FC9"/>
</g>
</g>
<defs>
<clipPath id="clip0_513_5094">
<rect width="49" height="46.9149" fill="white"/>
</clipPath>
</defs>
</svg>
