<svg width="46" height="46" viewBox="0 0 46 46" fill="none" xmlns="http://www.w3.org/2000/svg">
<g id="noun-select-2504291 1" clip-path="url(#clip0_513_4990)">
<g id="Group">
<path id="Vector" d="M19.3736 5.30295C19.8557 5.30295 20.2941 4.9086 20.2941 4.38247V2.01607C20.2941 1.53397 19.8997 1.09558 19.3736 1.09558C18.8478 1.09558 18.4531 1.48994 18.4531 2.01607L18.4534 4.38247C18.4971 4.90828 18.8915 5.30295 19.3736 5.30295Z" fill="#015FC9"/>
<path id="Vector_2" d="M15.121 6.53C15.2962 6.70517 15.5154 6.7929 15.7783 6.7929C15.9975 6.7929 16.2604 6.70517 16.4355 6.53C16.7862 6.17936 16.7862 5.60951 16.4355 5.25923L14.7701 3.59379C14.4194 3.24315 13.8496 3.24315 13.4993 3.59379C13.1487 3.94443 13.1487 4.51428 13.4993 4.86456L15.121 6.53Z" fill="#015FC9"/>
<path id="Vector_3" d="M23.0093 6.7929C23.2285 6.7929 23.4914 6.70517 23.6666 6.53L25.332 4.86456C25.6826 4.51392 25.6826 3.94408 25.332 3.59379C24.9814 3.24315 24.4115 3.24315 24.0612 3.59379L22.3958 5.25891C22.0452 5.60955 22.0452 6.1794 22.3958 6.52969C22.571 6.70516 22.7901 6.7929 23.0093 6.7929Z" fill="#015FC9"/>
<path id="Vector_4" d="M38.5684 31.5541C38.5684 29.6257 36.9907 28.048 35.0186 28.048C34.3173 28.048 33.616 28.2672 33.0465 28.6178C32.5207 27.3471 31.2496 26.4703 29.8034 26.4703C29.1021 26.4703 28.4008 26.6895 27.8313 27.0401C27.3055 25.7694 26.0344 24.8926 24.5882 24.8926C23.9747 24.8926 23.4048 25.0241 22.9228 25.331V21.2991H26.8669C27.3927 21.2991 27.7874 20.9047 27.7874 20.3786V9.42232C27.7874 8.89651 27.393 8.50183 26.8669 8.50183L11.8787 8.50214C11.3529 8.50214 10.9582 8.89649 10.9582 9.42262V20.3789C10.9582 20.9047 11.3525 21.2994 11.8787 21.2994H15.8668V35.192L13.5438 32.8689C12.3167 31.6856 10.432 31.4664 9.02979 32.4306C8.19703 33.0004 7.62723 33.8768 7.49575 34.8847C7.3643 35.8926 7.6272 36.9008 8.28445 37.6895L12.2726 42.4226C12.4478 42.6418 12.711 42.7733 12.9739 42.7733C13.1931 42.7733 13.4123 42.6855 13.5874 42.5541C13.9818 42.2034 14.0258 41.6336 13.7189 41.2392L9.73071 36.5498C9.42379 36.1554 9.29233 35.717 9.33636 35.235C9.42409 34.7529 9.687 34.3145 10.0813 34.0516C10.7386 33.6132 11.6591 33.701 12.2289 34.2708L15.0773 37.1193C15.5157 37.5576 16.173 37.6891 16.7428 37.4699C17.3126 37.2507 17.7069 36.6812 17.7069 36.0673V17.4862C17.7069 16.5658 18.4519 15.8208 19.3724 15.8208C19.8107 15.7771 20.2488 15.996 20.5557 16.3029C20.8626 16.6098 21.0378 17.0479 21.0378 17.4863V30.1517C21.0378 30.6776 21.4762 31.0722 21.9583 31.0722C22.4841 31.0722 22.8788 30.6339 22.8788 30.1517V28.4426C22.8788 27.5221 23.6238 26.7771 24.5442 26.7771C25.4647 26.7771 26.2097 27.5221 26.2097 28.4426V31.7294C26.2097 32.2553 26.648 32.6499 27.1301 32.6499C27.6559 32.6499 28.0506 32.2116 28.0506 31.7294V30.0203C28.0506 29.0998 28.7956 28.3548 29.7161 28.3548C30.6365 28.3548 31.3815 29.0998 31.3815 30.0203L31.3806 33.3072C31.3806 33.833 31.819 34.2276 32.3011 34.2276C32.8269 34.2276 33.2215 33.7893 33.2215 33.3072V31.6857V31.5542C33.2215 30.6338 33.9665 29.8888 34.887 29.8888C35.8074 29.8888 36.5524 30.6338 36.5524 31.5542V41.7655C36.5524 42.2913 36.9908 42.686 37.4729 42.686C37.9987 42.686 38.3934 42.2476 38.3934 41.7655L38.5684 31.5541ZM19.3729 13.9364C17.4445 13.9364 15.8668 15.5141 15.8668 17.4861V19.4145H12.8428V10.3427H25.9904V19.4145H22.9664V17.4861C22.9664 16.522 22.6157 15.6455 21.9145 14.988C21.2135 14.3307 20.4248 13.9801 19.3728 13.9361L19.3729 13.9364Z" fill="#015FC9"/>
</g>
</g>
<defs>
<clipPath id="clip0_513_4990">
<rect width="46" height="46" fill="white"/>
</clipPath>
</defs>
</svg>
