<svg width="55" height="46" viewBox="0 0 55 46" fill="none" xmlns="http://www.w3.org/2000/svg">
<g id="noun-meeting-1091674 1" clip-path="url(#clip0_513_5290)">
<g id="Group">
<path id="Vector" d="M15.1849 6.16199C13.2507 6.16199 11.6636 7.74899 11.6636 9.68332C11.6636 10.3625 11.8635 11.0014 12.2003 11.5402C10.9329 11.8255 9.90304 12.7803 9.90304 14.0849V19.3667H9.02281C8.99518 19.3655 8.96785 19.3655 8.94022 19.3667C8.48643 19.4097 8.14039 19.7913 8.14259 20.2473V23.7683C8.14259 24.2546 8.53651 24.6485 9.02282 24.6488H11.6636V36.9732C11.6639 37.4596 12.0578 37.8535 12.5442 37.8538H42.4748C42.9612 37.8535 43.3551 37.4596 43.3554 36.9732V24.6488H45.9962C46.4825 24.6485 46.8764 24.2546 46.8764 23.7683V20.2473C46.8764 19.7609 46.4825 19.367 45.9962 19.3667H45.1159V14.0849C45.1159 12.7803 44.0861 11.8255 42.8187 11.5402C43.1555 11.0014 43.3554 10.3625 43.3554 9.68332C43.3554 7.74907 41.7684 6.16199 39.8341 6.16199C37.8997 6.16199 36.3127 7.74899 36.3127 9.68332C36.3127 10.3625 36.5123 11.0014 36.8491 11.5402C35.5817 11.8255 34.5522 12.7803 34.5522 14.0849V19.3667H32.7914V14.0849C32.7914 12.7803 31.7619 11.8255 30.4945 11.5402C30.831 11.0014 31.0309 10.3625 31.0309 9.68332C31.0309 7.74907 29.4439 6.16199 27.5095 6.16199C25.5752 6.16199 23.9882 7.74899 23.9882 9.68332C23.9882 10.3625 24.1881 11.0014 24.5246 11.5402C23.2572 11.8255 22.2277 12.7803 22.2277 14.0849V19.3667H20.4669V14.0849C20.4669 12.7803 19.4374 11.8255 18.17 11.5402C18.5068 11.0014 18.7064 10.3625 18.7064 9.68332C18.7064 7.74907 17.1193 6.16199 15.185 6.16199H15.1849ZM15.1849 7.92277C16.1677 7.92277 16.9457 8.70048 16.9457 9.68324C16.9457 10.6661 16.1677 11.444 15.1849 11.444C14.2021 11.444 13.4245 10.666 13.4245 9.68324C13.4245 8.70044 14.2022 7.92277 15.1849 7.92277ZM27.5093 7.92277C28.4921 7.92277 29.2698 8.70048 29.2698 9.68324C29.2698 10.6661 28.4921 11.444 27.5093 11.444C26.5266 11.444 25.7488 10.666 25.7488 9.68324C25.7488 8.70044 26.5266 7.92277 27.5093 7.92277ZM39.8337 7.92277C40.8165 7.92277 41.5942 8.70048 41.5942 9.68324C41.5942 10.6661 40.8165 11.444 39.8337 11.444C38.8509 11.444 38.0729 10.666 38.0729 9.68324C38.0729 8.70044 38.8509 7.92277 39.8337 7.92277ZM12.9841 13.2046H17.3857C18.227 13.2046 18.7063 13.7001 18.7063 14.0848V19.3666H11.6636V14.0848C11.6636 13.7001 12.1429 13.2046 12.9841 13.2046ZM25.3085 13.2046H29.7101C30.5514 13.2046 31.0307 13.7001 31.0307 14.0848V19.3666H23.988V14.0848C23.988 13.7001 24.4673 13.2046 25.3085 13.2046ZM37.6329 13.2046H42.0345C42.8758 13.2046 43.3551 13.7001 43.3551 14.0848V19.3666H36.3124V14.0848C36.3124 13.7001 36.7917 13.2046 37.6329 13.2046ZM9.90304 21.1274H45.1156V22.8879H9.90304V21.1274ZM13.4244 24.6487H41.5944V36.0928H13.4244V24.6487Z" fill="#015FC9"/>
</g>
</g>
<defs>
<clipPath id="clip0_513_5290">
<rect width="55" height="45.4502" fill="white"/>
</clipPath>
</defs>
</svg>
