<svg width="55" height="48" viewBox="0 0 55 48" fill="none" xmlns="http://www.w3.org/2000/svg">
<g id="noun-ownership-4351494 1" clip-path="url(#clip0_513_5181)">
<g id="Group">
<path id="Vector" d="M14.1491 14.3586C14.2541 14.6187 14.5065 14.7888 14.7868 14.7888H14.7902L18.3662 14.7713L18.4199 26.1375C18.4218 26.5161 18.7291 26.8219 19.1077 26.8219H19.111L21.4113 26.8105H21.4116C21.3533 26.4366 21.3229 26.0589 21.3201 25.6804C21.3198 25.5984 21.3244 25.517 21.3269 25.4357L19.7921 25.4433L19.7384 14.0771V14.0768C19.7365 13.6982 19.4292 13.3924 19.0506 13.3924H19.0472L16.5108 13.4047L28.8274 1.63518L41.254 13.2836L38.7173 13.2959C38.3375 13.2977 38.0311 13.6069 38.0329 13.9867L38.0864 25.353L36.4367 25.3613C36.4444 25.4927 36.4502 25.6247 36.4511 25.757C36.4502 26.0847 36.429 26.4119 36.387 26.7371L38.7806 26.7254V26.7251C39.1604 26.7233 39.4668 26.4141 39.4652 26.0343L39.4118 14.668L42.9878 14.6505V14.6502C43.2693 14.6487 43.5217 14.4758 43.6246 14.2139C43.7274 13.9517 43.6602 13.6536 43.4548 13.4608L29.2935 0.186922C29.027 -0.063001 28.6119 -0.0608473 28.3479 0.191527L14.3124 13.6045H14.312C14.1085 13.7992 14.0443 14.0979 14.1496 14.3592L14.1491 14.3586Z" fill="#015FC9"/>
<path id="Vector_2" d="M22.6954 25.6619C22.7031 27.3177 23.3583 28.9048 24.5211 30.0838C25.6838 31.2628 27.2613 31.9404 28.9168 31.9711L28.9727 31.9714C30.5944 31.9766 32.1498 31.3291 33.2886 30.175C34.4486 29.0062 35.0921 27.4216 35.0755 25.775C35.054 23.5199 33.8498 21.4416 31.9041 20.301L31.8959 19.0369H31.8962C31.8937 18.6682 31.7436 18.316 31.4789 18.0591L30.9339 17.5298C30.9511 17.5233 30.968 17.5169 30.9849 17.5098L30.9852 17.5101C31.3119 17.3747 31.5738 17.119 31.7169 16.7953C31.8596 16.472 31.8725 16.1061 31.7528 15.7732C31.633 15.4407 31.3899 15.1669 31.0736 15.0087L31.0626 15.0032C31.0073 14.9467 30.9474 14.8951 30.8836 14.8488L30.6892 14.7085L31.0368 14.4165C31.3306 14.1696 31.5078 13.8113 31.5259 13.4282C31.544 13.045 31.4012 12.6716 31.132 12.3981L30.7341 11.9941L31.3478 11.4055C31.3589 11.3948 31.3699 11.384 31.3807 11.373V11.3733C31.5858 11.1915 31.7316 10.9529 31.8004 10.6877C31.8688 10.4224 31.8569 10.1427 31.7657 9.88445C31.7497 9.57743 31.6315 9.28483 31.4295 9.05303L29.6417 6.99962L29.642 6.99931C29.3807 6.69934 29.0024 6.5271 28.6045 6.5271C28.5766 6.5271 28.5487 6.52802 28.5204 6.52956V6.52986C28.0939 6.55596 27.7037 6.77856 27.4645 7.13256L26.2883 8.87401V8.87432C26.1126 9.13407 26.0313 9.4457 26.0574 9.75825L26.1093 20.4525C23.9521 21.5581 22.685 23.4776 22.6954 25.6621L22.6954 25.6619ZM30.4589 16.2394H30.4586L30.4583 16.2391L30.4589 16.2394ZM27.0748 21.5148C27.3269 21.4024 27.4884 21.1513 27.4866 20.8753L27.4328 9.75658C27.4325 9.71605 27.4307 9.67859 27.4279 9.64451L28.6045 7.90306L30.3923 9.95647L30.396 10.4136L29.287 11.4772H29.2867C29.1519 11.6067 29.0749 11.7848 29.0724 11.9715C29.0696 12.1582 29.1421 12.3381 29.2729 12.4713L30.152 13.3638L29.1387 14.2149H29.139C28.9751 14.3534 28.8836 14.5597 28.8916 14.7743C28.8993 14.9889 29.0049 15.1879 29.1783 15.3144L30.0776 15.964L29.2112 16.7239L29.2115 16.7243C29.0654 16.8529 28.9794 17.0365 28.9748 17.2312C28.9683 17.4261 29.0451 17.6146 29.186 17.7497L30.5206 19.0463L30.5314 20.7129V20.7125C30.5323 20.9763 30.6824 21.2164 30.9186 21.3334C31.746 21.7451 32.4439 22.3776 32.9348 23.1611C33.4254 23.9443 33.6904 24.8482 33.6999 25.7727V25.7819C33.7137 27.0632 33.2139 28.2965 32.3122 29.2068C31.431 30.1 30.2275 30.601 28.9726 30.5965C28.9582 30.5965 28.9435 30.5965 28.929 30.5962V30.5965C27.6358 30.571 26.404 30.0408 25.4961 29.1194C24.5885 28.1979 24.077 26.9579 24.0709 25.6647V25.6561C24.0586 23.1256 26.1673 21.9174 27.0749 21.5151L27.0748 21.5148Z" fill="#015FC9"/>
<path id="Vector_3" d="M28.885 28.8775C29.6151 28.8787 30.3161 28.5895 30.8328 28.0734C31.3498 27.5573 31.6402 26.8569 31.6402 26.1268C31.6402 25.3964 31.3501 24.696 30.833 24.1799C30.3163 23.6638 29.6157 23.3745 28.8853 23.3755H28.8711C27.8902 23.3807 26.9863 23.9079 26.4987 24.759C26.0111 25.6104 26.0136 26.6568 26.5054 27.5057C26.9973 28.3546 27.9036 28.8771 28.8849 28.8775H28.885ZM28.8786 24.751H28.8853C29.376 24.751 29.8295 25.0123 30.0757 25.4369C30.3216 25.8612 30.3229 26.3847 30.0788 26.8106C29.8347 27.2364 29.3824 27.4998 28.8918 27.502H28.885C28.3941 27.502 27.9406 27.2407 27.6944 26.8161C27.4485 26.3918 27.4472 25.8683 27.6913 25.4424C27.9354 25.0166 28.3877 24.7531 28.8783 24.751H28.8786Z" fill="#015FC9"/>
<path id="Vector_4" d="M11.9452 30.8818C11.5586 31.2696 11.3437 31.7961 11.3477 32.3436L11.3907 41.1774C11.3935 41.7226 11.6121 42.2449 11.9986 42.6296C12.3852 43.0144 12.9083 43.2305 13.4536 43.2305H13.4641L15.5264 43.2207C16.0268 43.2188 16.5095 43.0343 16.884 42.7024C17.2586 42.3702 17.4993 41.913 17.5613 41.4163L19.1736 40.8949C19.4272 40.8133 19.7023 40.8283 19.9454 40.937L26.2457 43.7506V43.7503C27.1882 44.1731 28.281 44.0874 29.1461 43.5234C29.16 43.5142 29.1735 43.505 29.1864 43.4952L39.8421 35.4474C40.3849 35.0968 40.7641 34.5432 40.8952 33.9107C41.0263 33.2782 40.8979 32.6193 40.5393 32.082C40.1804 31.5447 39.621 31.1741 38.9864 31.0528C38.3517 30.9315 37.695 31.07 37.1636 31.4372L32.0617 35.2968C31.5603 34.6591 30.4483 34.4184 29.2207 34.1538C27.1267 33.7688 25.0994 33.0838 23.2008 32.1203C20.7252 30.8176 18.6874 30.7638 17.1575 31.1338C17.0881 31.0353 17.0107 30.9432 16.9254 30.8578C16.54 30.4743 16.0178 30.2594 15.474 30.2606H15.4636L13.4013 30.2705C12.8539 30.2717 12.3294 30.4918 11.9454 30.882L11.9452 30.8818ZM22.5608 33.3374H22.5605C24.5685 34.3613 26.714 35.089 28.9308 35.4979C30.4893 35.8341 31.0005 35.9925 30.9569 36.2676H30.9565C30.8601 36.7325 30.5451 37.1221 30.1107 37.3134C28.7168 38.0487 26.2433 37.711 23.4972 36.4086V36.4089C23.3323 36.3303 23.1429 36.3208 22.971 36.3819C22.799 36.443 22.6584 36.5704 22.5801 36.7353C22.5021 36.9001 22.4926 37.0896 22.554 37.2615C22.6157 37.4334 22.7431 37.5738 22.908 37.6517C24.8856 38.5894 26.7379 39.0681 28.2897 39.0681H28.29C29.1423 39.0911 29.9876 38.9066 30.7526 38.5299C31.4303 38.197 31.9516 37.6137 32.207 36.9036C32.2245 36.8925 32.2433 36.8842 32.2602 36.8713L37.9675 32.5527C38.2656 32.3479 38.6516 32.3215 38.9752 32.4836C39.308 32.6571 39.5241 32.9933 39.5438 33.3682C39.5637 33.7427 39.3838 34.1001 39.0713 34.3073C39.0574 34.3162 39.0439 34.3258 39.031 34.3356L28.3792 42.381C27.907 42.6798 27.3166 42.7221 26.8069 42.494L20.5064 39.6804V39.6801C19.9528 39.4326 19.3274 39.3992 18.7508 39.5858L17.5739 39.9662L17.5374 32.4388C18.7833 32.1609 20.4658 32.2352 22.5607 33.3372L22.5608 33.3374ZM15.4703 31.6359H15.4737C15.8519 31.6359 16.1593 31.942 16.1611 32.3202L16.2041 41.154C16.205 41.3364 16.1332 41.5117 16.0048 41.6413C15.8765 41.7708 15.7021 41.8439 15.5197 41.8448L13.4574 41.8547H13.4541C13.0755 41.8547 12.7682 41.5489 12.7663 41.1703L12.7233 32.3365C12.7224 32.1541 12.7939 31.9788 12.9226 31.8492C13.0509 31.7194 13.2256 31.6463 13.408 31.6454L15.4703 31.6359Z" fill="#015FC9"/>
<g id="h">
<path id="Vector_5" d="M6.6539 49.1051C6.59403 49.1364 6.5317 49.1597 6.46722 49.1751C6.40336 49.1904 6.33643 49.1984 6.26704 49.1984C6.05826 49.1984 5.89277 49.1404 5.77088 49.024C5.64868 48.907 5.58789 48.7486 5.58789 48.5487C5.58789 48.3482 5.64868 48.1898 5.77088 48.0734C5.89277 47.9565 6.05825 47.8978 6.26704 47.8978C6.33643 47.8978 6.40336 47.9058 6.46722 47.9212C6.5317 47.9368 6.59403 47.9602 6.6539 47.9912V48.2503C6.59403 48.2095 6.53508 48.1797 6.47705 48.1606C6.41871 48.1419 6.35731 48.1324 6.29283 48.1324C6.17738 48.1324 6.0865 48.1692 6.02018 48.2429C5.95448 48.3166 5.92193 48.4186 5.92193 48.5487C5.92193 48.6783 5.95448 48.7796 6.02018 48.8533C6.0865 48.927 6.17738 48.9638 6.29283 48.9638C6.3573 48.9638 6.41871 48.9546 6.47705 48.9356C6.53508 48.9169 6.59403 48.8871 6.6539 48.8459V49.1051Z" fill="#015FC9"/>
</g>
<g id="l">
<path id="Vector_6" d="M12.7101 48.3707V47.8672H13.0134V49.1739H12.7101V49.0376C12.6689 49.0935 12.6235 49.1343 12.5738 49.1604C12.5237 49.1856 12.466 49.1985 12.4006 49.1985C12.2851 49.1985 12.19 49.1527 12.1157 49.0609C12.0411 48.9685 12.0039 48.8497 12.0039 48.7048C12.0039 48.5599 12.0411 48.4416 12.1157 48.3498C12.19 48.2574 12.2851 48.2111 12.4006 48.2111C12.466 48.2111 12.5237 48.2243 12.5738 48.2504C12.6235 48.2758 12.6689 48.3161 12.7101 48.3707ZM12.5124 48.9799C12.5768 48.9799 12.626 48.9565 12.6597 48.9099C12.6932 48.8626 12.7101 48.7941 12.7101 48.7048C12.7101 48.6148 12.6932 48.5463 12.6597 48.4997C12.626 48.453 12.5768 48.4297 12.5124 48.4297C12.4485 48.4297 12.3997 48.453 12.3662 48.4997C12.3324 48.5463 12.3159 48.6148 12.3159 48.7048C12.3159 48.7941 12.3324 48.8626 12.3662 48.9099C12.3997 48.9565 12.4485 48.9799 12.5124 48.9799Z" fill="#015FC9"/>
</g>
<g id="k">
<path id="Vector_7" d="M14.4002 48.9799C14.4647 48.9799 14.5138 48.9565 14.5476 48.9099C14.5811 48.8626 14.598 48.7941 14.598 48.7048C14.598 48.6148 14.5811 48.5463 14.5476 48.4997C14.5138 48.453 14.4647 48.4297 14.4002 48.4297C14.3355 48.4297 14.286 48.4536 14.2516 48.5009C14.2172 48.5476 14.2001 48.6157 14.2001 48.7048C14.2001 48.7941 14.2172 48.8626 14.2516 48.9099C14.286 48.9565 14.3355 48.9799 14.4002 48.9799ZM14.2001 48.3707C14.2418 48.3161 14.2876 48.2758 14.3376 48.2504C14.3883 48.2243 14.4463 48.2111 14.512 48.2111C14.6274 48.2111 14.7223 48.2574 14.7969 48.3498C14.8712 48.4416 14.9087 48.5599 14.9087 48.7048C14.9087 48.8497 14.8712 48.9685 14.7969 49.0609C14.7223 49.1527 14.6274 49.1985 14.512 49.1985C14.4463 49.1985 14.3883 49.1853 14.3376 49.1592C14.2876 49.1331 14.2418 49.0925 14.2001 49.0376V49.1739H13.9004V47.8672H14.2001V48.3707Z" fill="#015FC9"/>
</g>
<g id="i">
<path id="Vector_8" d="M16.7578 47.9199H17.0673L17.2834 48.8312L17.4984 47.9199H17.8103L18.0252 48.8312L18.2414 47.9199H18.5484L18.2537 49.1738H17.8803L17.6531 48.2208L17.4284 49.1738H17.055L16.7578 47.9199Z" fill="#015FC9"/>
</g>
<g id="g">
<path id="Vector_9" d="M18.7617 47.9199H19.6337V48.1643H19.0847V48.3977H19.6005V48.6421H19.0847V48.9294H19.6521V49.1738H18.7618L18.7617 47.9199Z" fill="#015FC9"/>
</g>
<g id="z">
<path id="Vector_10" d="M20.4366 48.4062C20.4882 48.4062 20.5269 48.3952 20.5533 48.3731C20.5794 48.3504 20.5926 48.3172 20.5926 48.2736C20.5926 48.2303 20.5794 48.1972 20.5533 48.1741C20.5269 48.1514 20.4882 48.1398 20.4366 48.1398H20.2585V48.4062L20.4366 48.4062ZM20.4477 48.954C20.5121 48.954 20.561 48.9405 20.5938 48.9135C20.6264 48.8858 20.6429 48.8441 20.6429 48.7882C20.6429 48.7342 20.6264 48.6936 20.5938 48.6666C20.5619 48.6396 20.5131 48.6261 20.4477 48.6261H20.2585V48.954L20.4477 48.954ZM20.7486 48.5033C20.8179 48.5229 20.8717 48.5604 20.9094 48.615C20.9478 48.6691 20.9672 48.7354 20.9672 48.814C20.9672 48.9353 20.926 49.0258 20.8444 49.0854C20.7624 49.1443 20.638 49.1738 20.471 49.1738H19.9355V47.9199H20.4207C20.5941 47.9199 20.7197 47.9466 20.7977 47.9997C20.8763 48.0522 20.9156 48.1361 20.9156 48.2515C20.9156 48.3129 20.9012 48.3654 20.8726 48.4087C20.8437 48.4514 20.8026 48.483 20.7486 48.5033Z" fill="#015FC9"/>
</g>
<g id="y">
<path id="Vector_11" d="M21.0957 47.9199H22.2502V48.1643H21.8351V49.1739H21.5121V48.1643H21.0957L21.0957 47.9199Z" fill="#015FC9"/>
</g>
<g id="g_2">
<path id="Vector_12" d="M22.418 47.9199H23.29V48.1643H22.741V48.3977H23.2568V48.6421H22.741V48.9294H23.3084V49.1738H22.418L22.418 47.9199Z" fill="#015FC9"/>
</g>
<g id="h_2">
<path id="Vector_13" d="M24.5855 49.1051C24.5257 49.1364 24.4633 49.1597 24.3989 49.1751C24.335 49.1904 24.2681 49.1984 24.1987 49.1984C23.9899 49.1984 23.8244 49.1404 23.7025 49.024C23.5803 48.907 23.5195 48.7486 23.5195 48.5487C23.5195 48.3482 23.5803 48.1898 23.7025 48.0734C23.8244 47.9565 23.9899 47.8978 24.1987 47.8978C24.2681 47.8978 24.335 47.9058 24.3989 47.9212C24.4633 47.9368 24.5257 47.9602 24.5855 47.9912V48.2503C24.5257 48.2095 24.4667 48.1797 24.4087 48.1606C24.3504 48.1419 24.2889 48.1324 24.2245 48.1324C24.109 48.1324 24.0181 48.1692 23.9518 48.2429C23.8861 48.3166 23.8536 48.4186 23.8536 48.5487C23.8536 48.6783 23.8861 48.7796 23.9518 48.8533C24.0181 48.927 24.109 48.9638 24.2245 48.9638C24.2889 48.9638 24.3504 48.9546 24.4087 48.9356C24.4667 48.9169 24.5257 48.8871 24.5855 48.8459V49.1051Z" fill="#015FC9"/>
</g>
<g id="x">
<path id="Vector_14" d="M24.8555 47.9199H25.1785V48.3977H25.655V47.9199H25.978V49.1738H25.655V48.642H25.1785V49.1738H24.8555V47.9199Z" fill="#015FC9"/>
</g>
<g id="w">
<path id="Vector_15" d="M26.8674 48.1324C26.7682 48.1324 26.6918 48.1689 26.6378 48.2417C26.5837 48.3139 26.5567 48.4161 26.5567 48.5487C26.5567 48.6798 26.5837 48.7818 26.6378 48.8545C26.6918 48.9276 26.7682 48.9638 26.8674 48.9638C26.9663 48.9638 27.043 48.9276 27.0971 48.8545C27.1511 48.7818 27.1781 48.6798 27.1781 48.5487C27.1781 48.4161 27.1511 48.3138 27.0971 48.2417C27.043 48.1689 26.9663 48.1324 26.8674 48.1324ZM26.8674 47.8978C27.0688 47.8978 27.2263 47.9555 27.3402 48.071C27.4548 48.1864 27.5122 48.3458 27.5122 48.5487C27.5122 48.7511 27.4548 48.9098 27.3402 49.0252C27.2263 49.1407 27.0688 49.1984 26.8674 49.1984C26.666 49.1984 26.5079 49.1407 26.3934 49.0252C26.2795 48.9098 26.2227 48.7511 26.2227 48.5487C26.2227 48.3458 26.2795 48.1864 26.3934 48.071C26.5079 47.9555 26.666 47.8978 26.8674 47.8978Z" fill="#015FC9"/>
</g>
<g id="e">
<path id="Vector_16" d="M27.7539 47.9199H28.2894C28.449 47.9199 28.5712 47.9555 28.6566 48.0268C28.7425 48.0974 28.7855 48.1981 28.7855 48.3289C28.7855 48.4609 28.7425 48.5622 28.6566 48.6335C28.5712 48.7041 28.449 48.7391 28.2894 48.7391H28.0769V49.1738H27.7539V47.9199ZM28.0769 48.1545V48.5045H28.255C28.3179 48.5045 28.3661 48.4895 28.3999 48.4591C28.4343 48.429 28.4515 48.3854 28.4515 48.3289C28.4515 48.2733 28.4343 48.2303 28.3999 48.1999C28.3661 48.1699 28.3179 48.1545 28.255 48.1545L28.0769 48.1545Z" fill="#015FC9"/>
</g>
<g id="v">
<path id="Vector_17" d="M29.8881 47.9605V48.2257C29.8193 48.1947 29.752 48.1714 29.6866 48.1557C29.6209 48.1404 29.5592 48.1324 29.5012 48.1324C29.4232 48.1324 29.3661 48.1431 29.3293 48.1643C29.2924 48.1858 29.274 48.2184 29.274 48.2626C29.274 48.2963 29.2863 48.3224 29.3108 48.3412C29.336 48.3602 29.3815 48.3765 29.4472 48.3903L29.5847 48.4173C29.7238 48.4452 29.823 48.4879 29.8819 48.545C29.9409 48.6024 29.9703 48.6835 29.9703 48.7882C29.9703 48.9267 29.9289 49.0298 29.8463 49.0977C29.7643 49.1649 29.6394 49.1984 29.4717 49.1984C29.3922 49.1984 29.3124 49.1904 29.2322 49.1751C29.1518 49.1603 29.0717 49.1382 28.9915 49.1087V48.8361C29.0717 48.8778 29.149 48.9098 29.2236 48.9319C29.2989 48.9534 29.371 48.9638 29.4398 48.9638C29.511 48.9638 29.5651 48.9525 29.6019 48.9294C29.6394 48.9058 29.6584 48.8717 29.6584 48.8275C29.6584 48.7891 29.6455 48.7593 29.6203 48.7378C29.5948 48.7167 29.5442 48.6973 29.468 48.6801L29.3428 48.6519C29.2175 48.6258 29.1257 48.5831 29.0677 48.5242C29.0093 48.4652 28.9805 48.386 28.9805 48.2859C28.9805 48.1616 29.0204 48.0658 29.1008 47.9985C29.1819 47.9316 29.2979 47.8978 29.4496 47.8978C29.5184 47.8978 29.589 47.9034 29.6621 47.9138C29.7348 47.9236 29.8101 47.9393 29.8881 47.9605Z" fill="#015FC9"/>
</g>
<g id="f">
<path id="Vector_18" d="M30.8516 47.9199H31.1746V48.9295H31.742V49.1739H30.8516L30.8516 47.9199Z" fill="#015FC9"/>
</g>
<g id="f_2">
<path id="Vector_19" d="M31.9492 47.9199H32.2722V48.9295H32.8396V49.1739H31.9492L31.9492 47.9199Z" fill="#015FC9"/>
</g>
<g id="e_2">
<path id="Vector_20" d="M33.043 47.9199H33.5784C33.7381 47.9199 33.8603 47.9555 33.9456 48.0268C34.0316 48.0974 34.0746 48.1981 34.0746 48.3289C34.0746 48.4609 34.0316 48.5622 33.9456 48.6335C33.8603 48.7041 33.7381 48.7391 33.5784 48.7391H33.366V49.1738H33.043V47.9199ZM33.366 48.1545V48.5045H33.544C33.607 48.5045 33.6552 48.4895 33.689 48.4591C33.7233 48.429 33.7405 48.3854 33.7405 48.3289C33.7405 48.2733 33.7233 48.2303 33.689 48.1999C33.6552 48.1699 33.607 48.1545 33.544 48.1545L33.366 48.1545Z" fill="#015FC9"/>
</g>
</g>
</g>
<defs>
<clipPath id="clip0_513_5181">
<rect width="55" height="47.926" fill="white"/>
</clipPath>
</defs>
</svg>
