<svg width="50" height="28" viewBox="0 0 50 28" fill="none" xmlns="http://www.w3.org/2000/svg">
<path d="M48.5034 13.8734C48.5034 21.2597 42.5202 27.2468 35.1404 27.2468C27.7605 27.2468 21.7773 21.2597 21.7773 13.8734C21.7773 6.48712 27.7605 0.5 35.1404 0.5C42.5202 0.5 48.5034 6.48712 48.5034 13.8734Z" stroke="#E8F2F9"/>
<path d="M37.0369 13.7129C37.2322 13.5177 37.2322 13.2011 37.0369 13.0058L33.855 9.82384C33.6597 9.62858 33.3431 9.62858 33.1479 9.82384C32.9526 10.0191 32.9526 10.3357 33.1479 10.5309L35.9763 13.3594L33.1479 16.1878C32.9526 16.3831 32.9526 16.6996 33.1479 16.8949C33.3431 17.0902 33.6597 17.0902 33.855 16.8949L37.0369 13.7129ZM0.742188 13.8594L36.6834 13.8594L36.6834 12.8594L0.742187 12.8594L0.742188 13.8594Z" fill="#04010C"/>
</svg>
