<svg width="26" height="19" viewBox="0 0 26 19" fill="none" xmlns="http://www.w3.org/2000/svg">
<path d="M6.51562 10.2031L12.7656 16.4531C13.9375 17.625 15.9688 16.8047 15.9688 15.125V12.3516C20.5781 12.5469 20.6953 13.5625 20.0312 15.8672C19.5234 17.5469 21.4375 18.9141 22.8828 17.9375C24.875 16.5703 25.9688 14.8516 25.9688 12.3516C25.9688 6.76562 20.9688 5.67188 15.9688 5.47656V2.66406C15.9688 0.984375 13.9375 0.164062 12.7656 1.33594L6.51562 7.58594C5.77344 8.28906 5.77344 9.5 6.51562 10.2031ZM7.84375 8.875L14.0938 2.625V7.3125C18.7812 7.3125 24.0938 7.58594 24.0938 12.3516C24.0938 14.5391 22.9609 15.6328 21.8281 16.375C23.4297 11.0625 19.4453 10.4375 14.0938 10.4375V15.125L7.84375 8.875ZM1.51562 7.58594C0.773438 8.28906 0.773438 9.5 1.51562 10.2031L7.76562 16.4531C8.54688 17.2734 9.71875 17.1562 10.4219 16.4531L2.84375 8.875L10.4219 1.33594C9.71875 0.632812 8.54688 0.515625 7.76562 1.33594L1.51562 7.58594Z" fill="#121416"/>
</svg>
