<svg width="14" height="15" viewBox="0 0 14 15" fill="none" xmlns="http://www.w3.org/2000/svg">
<path d="M7.17773 0.96875C3.43164 0.96875 0.396484 4.00391 0.396484 7.75C0.396484 11.4961 3.43164 14.5312 7.17773 14.5312C10.9238 14.5312 13.959 11.4961 13.959 7.75C13.959 4.00391 10.9238 0.96875 7.17773 0.96875ZM7.17773 13.2188C4.14258 13.2188 1.70898 10.7852 1.70898 7.75C1.70898 4.74219 4.14258 2.28125 7.17773 2.28125C10.1855 2.28125 12.6465 4.74219 12.6465 7.75C12.6465 10.7852 10.1855 13.2188 7.17773 13.2188ZM8.8457 10.375C9.00977 10.4844 9.20117 10.457 9.31055 10.293L9.83008 9.60938C9.93945 9.44531 9.91211 9.25391 9.74805 9.14453L7.94336 7.80469V3.92188C7.94336 3.75781 7.7793 3.59375 7.61523 3.59375H6.74023C6.54883 3.59375 6.41211 3.75781 6.41211 3.92188V8.43359C6.41211 8.51562 6.43945 8.625 6.52148 8.67969L8.8457 10.375Z" fill="#0057FF"/>
</svg>
