<svg width="37" height="32" viewBox="0 0 37 32" fill="none" xmlns="http://www.w3.org/2000/svg">
<path d="M26.9276 0.641113H4.50769C2.34004 0.641113 0.585938 2.40283 0.585938 4.57054V16.8337C0.585938 17.9214 1.02255 18.9018 1.73489 19.6141C2.43957 20.3265 3.42003 20.7631 4.50769 20.7631C4.76814 20.7631 4.9673 20.9929 4.92897 21.261L4.27025 25.4891C4.20133 25.9028 4.69152 26.1479 4.98259 25.8568L10.061 20.8857C10.1452 20.809 10.2448 20.7631 10.3597 20.7631H26.9276C29.0953 20.7631 30.857 19.009 30.857 16.8337V4.57054C30.857 2.40283 29.0953 0.641113 26.9276 0.641113ZM9.56312 10.3689L8.47541 11.4259C8.38349 11.5178 8.33754 11.6558 8.36054 11.786L8.62094 13.2796C8.67457 13.6013 8.32987 13.8541 8.0388 13.7009L6.69073 12.9962C6.57582 12.9349 6.43795 12.9349 6.32304 12.9962L4.9673 13.7009C4.67623 13.8541 4.33154 13.609 4.39283 13.2796L4.64556 11.786C4.66856 11.6558 4.62261 11.5255 4.53069 11.4336L3.44299 10.3689C3.20554 10.1314 3.33579 9.73316 3.66515 9.67954L5.16642 9.46504C5.29666 9.44976 5.41153 9.36546 5.47282 9.2506L6.14688 7.87948C6.29241 7.58079 6.72135 7.58079 6.86689 7.87948L7.53328 9.2506C7.59457 9.36546 7.70944 9.44976 7.83969 9.46504L9.34095 9.67954C9.67031 9.73316 9.80056 10.1314 9.56312 10.3689ZM18.7777 10.3689L17.69 11.4259C17.5981 11.5178 17.5522 11.6558 17.5751 11.786L17.8356 13.2796C17.8892 13.6013 17.5522 13.8541 17.2534 13.7009L15.9053 12.9962C15.7904 12.9349 15.6525 12.9349 15.5377 12.9962L14.1895 13.7009C13.8908 13.8541 13.5538 13.609 13.6074 13.2796L13.8602 11.786C13.8831 11.6558 13.8372 11.5255 13.7453 11.4336L12.6576 10.3689C12.4202 10.1314 12.5504 9.73316 12.8797 9.67954L14.381 9.46504C14.5112 9.44976 14.6262 9.36546 14.6874 9.2506L15.3615 7.87948C15.507 7.58079 15.936 7.58079 16.0815 7.87948L16.7479 9.2506C16.8091 9.36546 16.9241 9.44976 17.0543 9.46504L18.5556 9.67954C18.8849 9.73316 19.0151 10.1314 18.7777 10.3689ZM27.9923 10.3689L26.9046 11.4259C26.8127 11.5178 26.7744 11.6558 26.7974 11.786L27.0501 13.2796C27.1114 13.6013 26.7667 13.8541 26.4681 13.7009L25.1276 12.9962C25.005 12.9349 24.8672 12.9349 24.7522 12.9962L23.4042 13.7009C23.1131 13.8541 22.7684 13.609 22.822 13.2796L23.0748 11.786C23.0978 11.6558 23.0518 11.5255 22.9599 11.4336L21.8722 10.3689C21.6347 10.1314 21.765 9.73316 22.0944 9.67954L23.6033 9.46504C23.7335 9.44976 23.8407 9.36546 23.902 9.2506L24.5761 7.87948C24.7293 7.58079 25.1506 7.58079 25.2961 7.87948L25.9701 9.2506C26.0238 9.36546 26.1386 9.44976 26.2689 9.46504L27.7702 9.67954C28.0995 9.73316 28.2298 10.1314 27.9923 10.3689Z" fill="white"/>
<path d="M36.5861 9.71458V21.9854C36.5861 23.0731 36.1418 24.0535 35.4371 24.7659C34.7248 25.4706 33.7367 25.9072 32.6566 25.9072C32.3962 25.9072 32.1971 26.1446 32.243 26.4051L32.8941 30.6332C32.9631 31.0468 32.4728 31.292 32.1818 31.0085L27.1034 26.0297C27.0191 25.9608 26.9195 25.9072 26.8046 25.9072H10.2368C9.36356 25.9072 8.5593 25.6238 7.9082 25.1412L10.8113 22.2994H26.9272C29.9375 22.2994 32.3886 19.8484 32.3886 16.8381V5.78516H32.6566C34.8244 5.78516 36.5861 7.53925 36.5861 9.71458Z" fill="white"/>
</svg>
