<svg width="55" height="44" viewBox="0 0 55 44" fill="none" xmlns="http://www.w3.org/2000/svg">
<g id="noun-quote-5767821 1">
<path id="Vector" d="M10.4494 36.6668C9.69591 36.6668 9.16797 36.0947 9.16797 35.4533C9.16797 34.9969 9.43376 34.5073 10.0792 34.1645C13.3572 32.4283 17.1522 26.417 17.1522 22.7096C11.6228 22.8784 9.22124 17.976 9.22124 14.9034C9.22124 11.2255 12.4077 7.3335 17.1192 7.3335C23.0612 7.3335 25.9742 12.003 25.9742 17.063C25.9742 28.0284 13.4452 36.6666 10.4493 36.6666L10.4494 36.6668ZM30.3099 36.6668C29.5583 36.6668 29.0285 36.0947 29.0285 35.4533C29.0285 34.9969 29.2943 34.5073 29.9398 34.1645C33.2177 32.4283 37.0128 26.417 37.0128 22.7096C31.4851 22.8784 29.0818 17.976 29.0818 14.9034C29.0818 11.2255 32.27 7.3335 36.9798 7.3335C42.9217 7.3335 45.8348 12.003 45.8348 17.063C45.8348 28.0284 33.3073 36.6666 30.3098 36.6666L30.3099 36.6668Z" fill="#0057FF"/>
</g>
</svg>
