<svg width="50" height="37" viewBox="0 0 50 37" fill="none" xmlns="http://www.w3.org/2000/svg">
<path fill-rule="evenodd" clip-rule="evenodd" d="M15.9054 18.779C16.0134 18.779 16.1212 18.8087 16.2145 18.8691C16.3912 18.9813 16.4892 19.1808 16.4676 19.386C16.1586 22.3753 15.3647 25.1613 14.1076 27.6673C12.9967 29.8807 11.5424 31.8237 9.76323 33.4752C18.448 28.938 21.9827 19.2576 20.7904 11.4366C20.0416 6.5273 17.0555 1.28052 10.9202 1.28052C5.62502 1.28049 1.31598 5.4916 1.31598 10.6675C1.31607 15.8424 5.62498 20.0535 10.9202 20.0535C12.5708 20.0535 14.1978 19.6373 15.6276 18.8499C15.7139 18.802 15.8101 18.779 15.9054 18.779L15.9054 18.779ZM6.09221 36.1066C5.87528 36.1066 5.67116 35.9839 5.57695 35.7835C5.46016 35.5313 5.55145 35.233 5.79185 35.0853C12.3049 31.1034 14.5404 25.0213 15.2195 20.2818C13.8701 20.8571 12.4031 21.1583 10.9203 21.1583C5.00094 21.1583 0.185547 16.4514 0.185547 10.6675C0.185642 4.88264 5.00092 0.175781 10.9203 0.175781C13.8741 0.175719 16.4707 1.30356 18.4293 3.43646C20.2213 5.38705 21.4244 8.09734 21.9081 11.2746C23.3331 20.6164 18.3312 32.4864 6.25705 36.0828C6.20208 36.099 6.14612 36.1067 6.09223 36.1067L6.09221 36.1066Z" fill="#336EF9"/>
<path fill-rule="evenodd" clip-rule="evenodd" d="M43.3263 18.779C43.4342 18.779 43.5421 18.8087 43.6364 18.8691C43.813 18.9813 43.9101 19.1808 43.8895 19.386C43.5804 22.3753 42.7856 25.1613 41.5285 27.6673C40.4177 29.8807 38.9643 31.8237 37.1851 33.4752C45.868 28.938 49.4036 19.2576 48.2112 11.4366C47.4626 6.5273 44.4773 1.28052 38.3421 1.28052C33.0459 1.28049 28.7379 5.49161 28.7379 10.6675C28.7379 15.8424 33.0459 20.0535 38.3421 20.0535C39.9918 20.0535 41.6197 19.6373 43.0496 18.8499C43.136 18.802 43.2311 18.779 43.3263 18.779L43.3263 18.779ZM33.513 36.1067C33.2962 36.1067 33.0921 35.984 32.9988 35.7835C32.8811 35.5313 32.9733 35.233 33.2128 35.0854C39.7269 31.1034 41.9613 25.0213 42.6403 20.2818C41.2911 20.8571 39.8249 21.1583 38.3421 21.1583C32.4228 21.1583 27.6074 16.4514 27.6074 10.6675C27.6075 4.88265 32.4228 0.175781 38.3421 0.175781C41.2949 0.175719 43.8915 1.30356 45.8502 3.43646C47.6422 5.38705 48.8452 8.09734 49.33 11.2736C50.7539 20.6164 45.7521 32.4864 33.6779 36.0828C33.623 36.099 33.568 36.1067 33.513 36.1067V36.1067Z" fill="#336EF9"/>
</svg>
