<svg width="22" height="14" viewBox="0 0 22 14" fill="none" xmlns="http://www.w3.org/2000/svg">
<path id="Vector" d="M13.32 7.0562L21.36 13.0297C20.9018 13.5555 20.2417 13.8937 19.5 13.8937H2.5C1.75827 13.8937 1.09821 13.5555 0.639953 13.0297L8.67999 7.0562L10.76 8.21536C10.835 8.25619 10.915 8.27663 11 8.27663C11.085 8.27663 11.165 8.25619 11.24 8.21536L13.32 7.0562ZM21.3215 1.43329C20.8649 0.934126 20.22 0.617065 19.5 0.617065H2.5C1.78 0.617065 1.1351 0.934126 0.678497 1.43329L11 7.18386L21.3215 1.43329ZM21.8432 2.30868L14.29 6.51493L21.8628 12.1378C21.9448 11.8854 22 11.6206 22 11.3405V3.17025C22 2.86653 21.9389 2.57911 21.8432 2.30868ZM0.156799 2.30868C0.0610656 2.57911 0 2.86653 0 3.17025V11.3405C0 11.6206 0.0552368 11.8854 0.137237 12.1378L7.70999 6.51493L0.156799 2.30868Z" fill="#0057FF"/>
</svg>
