<svg width="21" height="21" viewBox="0 0 21 21" fill="none" xmlns="http://www.w3.org/2000/svg">
<g id="Group">
<g id="Group_2">
<path id="Vector" d="M13.2506 14.5109L17.0936 15.5819C17.5976 15.7289 17.9546 16.2119 17.8916 16.7789C17.8076 17.7659 17.4506 18.6059 16.8206 19.2359C14.4896 21.5669 9.9956 20.7899 5.1236 15.8969C0.251604 11.0039 -0.546395 6.46792 1.7846 4.15792C2.4146 3.52792 3.2546 3.19192 4.2416 3.08692C4.7666 3.02392 5.2916 3.38092 5.4386 3.88492L6.5096 7.72792C6.6356 8.16892 6.4676 8.63092 6.1316 8.90392L4.9346 9.84892C4.5986 10.1009 4.5566 10.5629 4.7666 10.8989C5.3966 11.8439 6.2366 12.8099 7.2236 13.7969C8.2106 14.7839 9.1766 15.5819 10.1216 16.2539C10.4576 16.4849 10.8986 16.4219 11.1716 16.0859L12.1166 14.8889C12.3476 14.5319 12.8096 14.3849 13.2506 14.5109Z" fill="#0057FF"/>
</g>
<g id="Group_3">
<path id="Vector_2" d="M19.7189 12.936C19.6769 12.936 19.6349 12.936 19.6139 12.915C19.3199 12.852 19.1309 12.558 19.1939 12.264C19.8239 9.30297 18.9419 6.27897 16.8209 4.15797C14.6999 2.05797 11.6549 1.15497 8.71487 1.80597C8.42087 1.86897 8.12687 1.67997 8.06387 1.38597C8.00087 1.09197 8.18987 0.797968 8.48387 0.734968C11.8019 0.0209683 15.2039 1.02897 17.5769 3.40197C19.9709 5.79597 20.9579 9.19797 20.2439 12.495C20.2019 12.768 19.9709 12.936 19.7189 12.936Z" fill="#0057FF"/>
</g>
<g id="Group_4">
<path id="Vector_3" d="M17.0518 12.348C17.0098 12.348 16.9678 12.348 16.9468 12.327C16.6528 12.264 16.4638 11.97 16.5268 11.676C16.9678 9.63897 16.3588 7.55997 14.8888 6.08997C13.4188 4.61997 11.3398 4.01097 9.30276 4.45197C9.00876 4.51497 8.71477 4.32597 8.65177 4.03197C8.58876 3.73797 8.77777 3.44397 9.07177 3.38097C11.4658 2.85597 13.9228 3.59097 15.6448 5.31297C17.3668 7.03497 18.1018 9.49197 17.5768 11.886C17.5138 12.18 17.2828 12.348 17.0518 12.348Z" fill="#0057FF"/>
</g>
<g id="Group_5">
<path id="Vector_4" d="M14.3637 11.781C14.3217 11.781 14.2797 11.781 14.2377 11.76C13.9437 11.697 13.7547 11.403 13.8177 11.109C14.0697 9.99597 13.7337 8.86197 12.9147 8.04297C12.1167 7.24497 10.9617 6.90897 9.84866 7.13997C9.55466 7.20297 9.26066 7.01397 9.19766 6.71997C9.13466 6.42597 9.32366 6.13197 9.61766 6.06897C11.0877 5.75397 12.5997 6.19497 13.6707 7.26597C14.7417 8.33697 15.1827 9.84897 14.8677 11.319C14.8257 11.592 14.6157 11.781 14.3637 11.781Z" fill="#0057FF"/>
</g>
</g>
</svg>
